<svg width="20" height="20" viewBox="0 0 20 20" fill="none" xmlns="http://www.w3.org/2000/svg">
<g clip-path="url(#clip0_1_46)">
<path fill-rule="evenodd" clip-rule="evenodd" d="M2.16518 9.08577C2.15201 8.16875 2.32124 7.25826 2.66306 6.40722C3.00487 5.55619 3.51244 4.78159 4.15626 4.12845C4.80008 3.47531 5.56731 2.95666 6.41335 2.60265C7.25939 2.24865 8.16735 2.06635 9.08447 2.06635C10.0016 2.06635 10.9095 2.24865 11.7556 2.60265C12.6016 2.95666 13.3689 3.47531 14.0127 4.12845C14.6565 4.78159 15.1641 5.55619 15.5059 6.40722C15.8477 7.25826 16.0169 8.16875 16.0038 9.08577C15.9776 10.9037 15.2371 12.6382 13.9424 13.9146C12.6476 15.1909 10.9025 15.9063 9.08447 15.9063C7.26639 15.9063 5.52135 15.1909 4.22657 13.9146C2.93179 12.6382 2.1913 10.9037 2.16518 9.08577ZM9.08375 0.0214845C7.65385 0.0212693 6.24419 0.359399 4.96998 1.00824C3.69576 1.65708 2.59316 2.59822 1.75227 3.75473C0.911387 4.91125 0.356088 6.25032 0.131758 7.66252C-0.0925713 9.07471 0.0204342 10.5199 0.461539 11.8801C0.902645 13.2403 1.65933 14.4768 2.66976 15.4885C3.68018 16.5003 4.91567 17.2586 6.27525 17.7015C7.63483 18.1444 9.07992 18.2593 10.4924 18.0368C11.9049 17.8144 13.2447 17.2608 14.4023 16.4215L17.538 19.5572C17.8059 19.8253 18.1693 19.9759 18.5482 19.9761C18.9272 19.9762 19.2907 19.8258 19.5588 19.5579C19.8268 19.29 19.9775 18.9267 19.9776 18.5477C19.9777 18.1687 19.8273 17.8053 19.5595 17.5372L16.4223 14.4015C17.4018 13.049 17.9886 11.4521 18.1178 9.78716C18.247 8.12222 17.9137 6.45394 17.1547 4.96646C16.3957 3.47899 15.2404 2.23015 13.8164 1.35779C12.3925 0.485431 10.7551 0.0234766 9.08518 0.0229131L9.08375 0.0214845ZM8.01947 5.77291C8.1024 5.85583 8.16819 5.95426 8.21308 6.06261C8.25796 6.17095 8.28106 6.28707 8.28106 6.40434C8.28106 6.52161 8.25796 6.63774 8.21308 6.74608C8.16819 6.85442 8.1024 6.95286 8.01947 7.03577L5.79375 9.26291L8.01947 11.4886C8.18693 11.6561 8.28101 11.8832 8.28101 12.1201C8.28101 12.3569 8.18693 12.584 8.01947 12.7515C7.852 12.9189 7.62487 13.013 7.38804 13.013C7.15121 13.013 6.92408 12.9189 6.75661 12.7515L3.89947 9.89434C3.81653 9.81143 3.75075 9.71299 3.70586 9.60465C3.66097 9.49631 3.63787 9.38019 3.63787 9.26291C3.63787 9.14564 3.66097 9.02952 3.70586 8.92118C3.75075 8.81284 3.81653 8.7144 3.89947 8.63148L6.75661 5.77434C6.83952 5.69141 6.93796 5.62562 7.0463 5.58073C7.15464 5.53585 7.27077 5.51275 7.38804 5.51275C7.50531 5.51275 7.62143 5.53585 7.72978 5.58073C7.83812 5.62562 7.93656 5.68998 8.01947 5.77291ZM11.5909 5.77291C11.4234 5.60545 11.1963 5.51137 10.9595 5.51137C10.7226 5.51137 10.4955 5.60545 10.328 5.77291C10.1606 5.94038 10.0665 6.16751 10.0665 6.40434C10.0665 6.64117 10.1606 6.86831 10.328 7.03577L12.5538 9.26148L10.328 11.4886C10.1606 11.6561 10.0665 11.8832 10.0665 12.1201C10.0665 12.3569 10.1606 12.584 10.328 12.7515C10.4955 12.9189 10.7226 13.013 10.9595 13.013C11.1963 13.013 11.4234 12.9189 11.5909 12.7515L14.448 9.89434C14.531 9.81143 14.5968 9.71299 14.6416 9.60465C14.6865 9.49631 14.7096 9.38019 14.7096 9.26291C14.7096 9.14564 14.6865 9.02952 14.6416 8.92118C14.5968 8.81284 14.531 8.7144 14.448 8.63148L11.5909 5.77291Z" fill="#008905"/>
</g>
<defs>
<clipPath id="clip0_1_46">
<rect width="20" height="20" fill="white"/>
</clipPath>
</defs>
</svg>
