<svg width="25" height="25" viewBox="0 0 25 25" fill="none" xmlns="http://www.w3.org/2000/svg">
<path d="M25 23.8636C25 24.165 24.8987 24.4541 24.7184 24.6672C24.538 24.8803 24.2935 25 24.0385 25H0.961538C0.706523 25 0.461951 24.8803 0.281628 24.6672C0.101305 24.4541 0 24.165 0 23.8636V1.13636C0 0.834981 0.101305 0.545943 0.281628 0.332833C0.461951 0.119724 0.706523 0 0.961538 0C1.21655 0 1.46113 0.119724 1.64145 0.332833C1.82177 0.545943 1.92308 0.834981 1.92308 1.13636V2.93892L8.65385 10.8935L11.8197 7.15057C11.909 7.04491 12.0151 6.9611 12.1318 6.90391C12.2485 6.84672 12.3736 6.81729 12.5 6.81729C12.6264 6.81729 12.7515 6.84672 12.8682 6.90391C12.9849 6.9611 13.091 7.04491 13.1803 7.15057L20.1923 15.4389V12.5C20.1923 12.1986 20.2936 11.9096 20.4739 11.6965C20.6543 11.4834 20.8988 11.3636 21.1538 11.3636C21.4089 11.3636 21.6534 11.4834 21.8338 11.6965C22.0141 11.9096 22.1154 12.1986 22.1154 12.5V18.1818C22.1172 18.2197 22.1172 18.2576 22.1154 18.2955C22.1154 18.3111 22.1154 18.3253 22.1094 18.3409C22.1034 18.3565 22.1094 18.3835 22.101 18.4062C22.0984 18.424 22.0947 18.4416 22.0901 18.4588C22.0901 18.4773 22.0829 18.4957 22.0781 18.5142C22.0733 18.5327 22.0685 18.5469 22.0637 18.5639L22.0469 18.6193L22.0288 18.6634C22.0216 18.6818 22.0144 18.7017 22.006 18.7202C21.9976 18.7386 21.9928 18.7457 21.9868 18.7599L21.9579 18.8153L21.9327 18.8551L21.9014 18.9048C21.8882 18.9247 21.8726 18.9432 21.8582 18.9616L21.8389 18.9872L21.8185 19.0085C21.8026 19.0272 21.7857 19.0447 21.768 19.0611C21.7557 19.0737 21.7429 19.0855 21.7296 19.0966L21.6935 19.1278L21.6478 19.1605C21.6362 19.1694 21.6242 19.1775 21.6118 19.1847L21.5673 19.2116L21.5264 19.233L21.4832 19.2514C21.4683 19.2588 21.4531 19.265 21.4375 19.2699L21.3942 19.2841C21.3774 19.2841 21.363 19.294 21.3462 19.2969L21.2957 19.3068L21.2536 19.3139C21.222 19.316 21.1903 19.316 21.1587 19.3139H16.3462C16.0911 19.3139 15.8466 19.1942 15.6662 18.9811C15.4859 18.768 15.3846 18.4789 15.3846 18.1776C15.3846 17.8762 15.4859 17.5871 15.6662 17.374C15.8466 17.1609 16.0911 17.0412 16.3462 17.0412H18.8329L12.5 9.56108L9.33414 13.304C9.24483 13.4096 9.13879 13.4935 9.02206 13.5506C8.90533 13.6078 8.78021 13.6373 8.65385 13.6373C8.52748 13.6373 8.40236 13.6078 8.28563 13.5506C8.16891 13.4935 8.06286 13.4096 7.97356 13.304L1.92308 6.15199V22.7273H24.0385C24.2935 22.7273 24.538 22.847 24.7184 23.0601C24.8987 23.2732 25 23.5623 25 23.8636Z" fill="#008905"/>
</svg>
