<svg width="20" height="20" viewBox="0 0 20 20" fill="none" xmlns="http://www.w3.org/2000/svg">
<path d="M10.3282 3.71095C8.93756 3.7086 7.19537 4.14806 5.47662 5.04259C3.7606 5.93712 2.40045 7.10899 1.60201 8.25352C0.80318 9.39415 0.587165 10.4567 0.980134 11.2145C1.37349 11.9684 2.36802 12.402 3.76216 12.402C5.15631 12.4059 6.89849 11.9645 8.61334 11.0738C10.3321 10.1793 11.6915 9.00352 12.4883 7.8629C13.2891 6.72227 13.5001 5.65977 13.1094 4.90196C12.7149 4.14806 11.7227 3.71095 10.3282 3.71095ZM13.918 6.45665C13.7813 7.05431 13.4844 7.66759 13.0665 8.26524C12.1836 9.52696 10.7422 10.7574 8.93756 11.6949C7.13287 12.6363 5.30084 13.109 3.76177 13.109C3.03521 13.109 2.36177 12.9996 1.7942 12.7691L2.20787 13.566C2.60162 14.3238 3.59341 14.7574 4.98834 14.7574C6.38287 14.7574 8.12506 14.3199 9.8399 13.4254C11.5586 12.5348 12.918 11.359 13.7149 10.2145C14.5118 9.07384 14.7305 8.01134 14.336 7.25743L13.918 6.45665ZM15.043 7.1129C15.4805 8.15587 15.129 9.4254 14.293 10.6168C13.5547 11.6754 12.4258 12.7027 11.0274 13.5621C11.461 13.609 11.9141 13.6324 12.3751 13.6324C14.3086 13.6324 16.0587 13.2184 17.293 12.5738C18.5313 11.9293 19.211 11.0856 19.211 10.234C19.211 9.38243 18.5313 8.53868 17.293 7.89415C16.6641 7.56603 15.8985 7.29649 15.043 7.1129ZM19.211 11.9879C18.8126 12.4527 18.2657 12.8629 17.6211 13.1988C16.254 13.9098 14.4102 14.3356 12.3751 14.3356C11.5469 14.3356 10.7501 14.2652 10.004 14.1324C9.09771 14.5895 8.18756 14.9293 7.31256 15.152C7.35943 15.1793 7.40631 15.2027 7.45709 15.2301C8.69146 15.8746 10.4415 16.2887 12.3751 16.2887C14.3086 16.2887 16.0587 15.8746 17.293 15.2301C18.5313 14.5856 19.211 13.7418 19.211 12.8902V11.9879Z" fill="#008905"/>
</svg>
