<svg width="15" height="15" viewBox="0 0 15 15" fill="none" xmlns="http://www.w3.org/2000/svg">
<g clip-path="url(#clip0_1_22)">
<path fill-rule="evenodd" clip-rule="evenodd" d="M0 1.5C0 1.10218 0.158035 0.720644 0.43934 0.43934C0.720644 0.158035 1.10218 0 1.5 0L13.5 0C13.8978 0 14.2794 0.158035 14.5607 0.43934C14.842 0.720644 15 1.10218 15 1.5V5.5L14.2 4.899C13.3334 4.24907 12.2615 3.93353 11.181 4.01032C10.1005 4.08711 9.08397 4.55107 8.31802 5.31702C7.55207 6.08297 7.08811 7.09951 7.01132 8.18C6.93453 9.26049 7.25007 10.3324 7.9 11.199L8 11.333V15H1.5C1.10218 15 0.720644 14.842 0.43934 14.5607C0.158035 14.2794 0 13.8978 0 13.5L0 1.5ZM8 5H3V4H8V5ZM3 8H6V7H3V8Z" fill="#008905"/>
<path fill-rule="evenodd" clip-rule="evenodd" d="M11.5005 5C10.8112 4.9999 10.1372 5.20334 9.5631 5.5848C8.98897 5.96625 8.54027 6.50874 8.27326 7.14423C8.00625 7.77971 7.93283 8.47988 8.0622 9.15693C8.19158 9.83397 8.51799 10.4577 9.0005 10.95V14.5C9.0005 14.5929 9.02636 14.6839 9.07518 14.7629C9.12399 14.8419 9.19384 14.9057 9.27689 14.9472C9.35995 14.9887 9.45292 15.0063 9.5454 14.998C9.63789 14.9896 9.72622 14.9557 9.8005 14.9L11.5005 13.625L13.2005 14.9C13.2748 14.9557 13.3631 14.9896 13.4556 14.998C13.5481 15.0063 13.6411 14.9887 13.7241 14.9472C13.8072 14.9057 13.877 14.8419 13.9258 14.7629C13.9746 14.6839 14.0005 14.5929 14.0005 14.5V10.95C14.483 10.4577 14.8094 9.83397 14.9388 9.15693C15.0682 8.47988 14.9948 7.77971 14.7277 7.14423C14.4607 6.50874 14.012 5.96625 13.4379 5.5848C12.8638 5.20334 12.1898 4.9999 11.5005 5ZM10.0005 13.5V11.663C10.4555 11.879 10.9635 12 11.5005 12C12.0375 12 12.5455 11.88 13.0005 11.663V13.5L11.8005 12.6C11.714 12.5351 11.6087 12.5 11.5005 12.5C11.3923 12.5 11.287 12.5351 11.2005 12.6L10.0005 13.5Z" fill="#008905"/>
</g>
<defs>
<clipPath id="clip0_1_22">
<rect width="15" height="15" fill="white"/>
</clipPath>
</defs>
</svg>
