<svg width="20" height="20" viewBox="0 0 20 20" fill="none" xmlns="http://www.w3.org/2000/svg">
<path d="M9.17543 5.52109C9.17804 5.99957 9.08157 6.4734 8.8921 6.91276C8.62157 7.57561 8.1604 8.14325 7.567 8.54379C6.97361 8.94434 6.27468 9.15975 5.55876 9.16276C4.83852 9.16274 4.13446 8.94915 3.53561 8.549C2.93676 8.14885 2.47001 7.5801 2.19439 6.91469C1.91877 6.24927 1.84665 5.51707 1.98716 4.81067C2.12766 4.10426 2.47448 3.45539 2.98376 2.94609C3.32207 2.6067 3.72404 2.33741 4.16663 2.15367C4.60922 1.96993 5.08372 1.87535 5.56293 1.87535C6.04214 1.87535 6.51664 1.96993 6.95923 2.15367C7.40181 2.33741 7.80378 2.6067 8.1421 2.94609C8.81747 3.63406 9.19982 4.55707 9.20876 5.52109H9.17543ZM18.1338 5.52109C18.1351 5.99861 18.0416 6.47164 17.8588 6.91276C17.6587 7.35655 17.3758 7.75816 17.0254 8.09609C16.3411 8.77952 15.4134 9.16338 14.4463 9.16338C13.4791 9.16338 12.5515 8.77952 11.8671 8.09609C11.1842 7.41315 10.8005 6.4869 10.8005 5.52109C10.8005 4.55529 11.1842 3.62903 11.8671 2.94609C12.204 2.60569 12.605 2.33542 13.047 2.1509C13.489 1.96639 13.9632 1.87129 14.4421 1.87109C15.4115 1.87386 16.3403 2.26037 17.0254 2.94609C17.3719 3.28017 17.6484 3.67994 17.8387 4.12206C18.029 4.56418 18.1293 5.03978 18.1338 5.52109ZM9.17543 14.4794C9.17394 14.9619 9.07176 15.4387 8.87543 15.8794C8.69703 16.3228 8.43055 16.7253 8.09209 17.0628C7.75351 17.4027 7.35081 17.672 6.90736 17.8551C6.46391 18.0382 5.98852 18.1314 5.50876 18.1294C4.78852 18.1294 4.08446 17.9158 3.48561 17.5157C2.88676 17.1155 2.42001 16.5468 2.14439 15.8814C1.86877 15.2159 1.79665 14.4837 1.93716 13.7773C2.07766 13.0709 2.42448 12.4221 2.93376 11.9128C3.27213 11.5735 3.67412 11.3043 4.1167 11.1206C4.55928 10.9369 5.03375 10.8424 5.51293 10.8424C5.99211 10.8424 6.46658 10.9369 6.90916 11.1206C7.35174 11.3043 7.75373 11.5735 8.09209 11.9128C8.76747 12.6007 9.14982 13.5237 9.15876 14.4878L9.17543 14.4794ZM18.1338 14.4794C18.1321 15.199 17.9173 15.9019 17.5166 16.4995C17.1158 17.0971 16.5469 17.5625 15.8819 17.8371C15.2168 18.1117 14.4852 18.1832 13.7796 18.0424C13.074 17.9016 12.4259 17.5549 11.9171 17.0461C11.4083 16.5373 11.0616 15.8892 10.9208 15.1836C10.78 14.4779 10.8515 13.7464 11.126 13.0813C11.4006 12.4162 11.8661 11.8474 12.4637 11.4466C13.0613 11.0458 13.7642 10.8311 14.4838 10.8294C15.4528 10.834 16.3809 11.2202 17.0671 11.9044C17.406 12.242 17.6747 12.6434 17.8578 13.0853C18.0409 13.5273 18.1347 14.0011 18.1338 14.4794Z" fill="#008905"/>
</svg>
