<svg width="20" height="19" viewBox="0 0 20 19" fill="none" xmlns="http://www.w3.org/2000/svg">
<path d="M5.36244 0.601562C5.41752 2.9268 6.00233 5.25137 6.73451 7.15508C7.50365 9.15473 8.45662 10.7093 8.99877 11.2514L9.10178 11.3544V12.3984H10.8987V11.3544L11.0017 11.2514C11.5438 10.7093 12.4968 9.15473 13.2659 7.15508C13.9981 5.25137 14.5829 2.9268 14.638 0.601562H5.36244ZM3.38568 3.26934C2.68373 3.50566 2.12412 3.98082 1.91596 4.45555C1.79818 4.7241 1.78002 4.98055 1.87736 5.24184C1.8885 5.27176 1.90158 5.30199 1.91627 5.33238C2.02438 5.26521 2.1352 5.2025 2.24846 5.14441L2.49365 5.01883L2.67416 5.22688C2.87483 5.45813 3.04955 5.71008 3.19846 5.97395C3.29897 5.85441 3.40186 5.66676 3.47385 5.42562C3.64928 4.83836 3.64268 3.98227 3.38568 3.26934ZM16.6147 3.26934C16.3577 3.98223 16.3512 4.83836 16.5265 5.42562C16.5986 5.66676 16.7015 5.85441 16.802 5.97395C16.9509 5.71004 17.1256 5.45813 17.3263 5.22688L17.5068 5.01883L17.752 5.14441C17.8652 5.2025 17.9761 5.26521 18.0842 5.33238C18.0988 5.30195 18.1119 5.27176 18.1231 5.24184C18.2204 4.98055 18.2022 4.7241 18.0845 4.45555C17.8763 3.98082 17.3167 3.50566 16.6147 3.26934ZM2.31885 5.91543C1.52779 6.40316 0.985997 7.14492 0.883458 7.78937C0.826935 8.14484 0.886974 8.46219 1.09139 8.74816C1.15623 8.83895 1.2376 8.92762 1.33764 9.01223C1.47057 8.80548 1.62001 8.60982 1.78451 8.42719L1.96889 8.2225L2.21174 8.35258C2.52072 8.51805 2.80791 8.7207 3.06877 8.94836C3.10678 8.80645 3.13201 8.64008 3.13803 8.45555C3.16287 7.69625 2.87389 6.6768 2.31889 5.91543H2.31885ZM17.6816 5.91543C17.1265 6.67676 16.8376 7.69629 16.8624 8.45555C16.8684 8.64008 16.8937 8.80645 16.9317 8.94836C17.1925 8.7207 17.4797 8.51805 17.7887 8.35258L18.0315 8.2225L18.2159 8.42719C18.3804 8.60981 18.5299 8.80545 18.6628 9.01219C18.7628 8.92762 18.8442 8.83895 18.909 8.74813C19.1135 8.46219 19.1735 8.14484 19.117 7.78937C19.0144 7.14492 18.4726 6.40316 17.6816 5.91543ZM2.12522 9.12238C1.56295 9.85699 1.32459 10.7401 1.461 11.3782C1.53631 11.7303 1.70701 12.0062 2.00178 12.2015C2.1949 12.3295 2.45022 12.4242 2.78068 12.4611C2.85446 12.2216 2.94721 11.9885 3.05807 11.7638L3.18014 11.5162L3.44967 11.5761C3.60963 11.6117 3.76736 11.6561 3.92209 11.708C3.90752 11.5581 3.87096 11.3883 3.80783 11.2073C3.55721 10.4887 2.9192 9.63758 2.12522 9.12238ZM17.8752 9.12238C17.0812 9.63758 16.4432 10.4887 16.1926 11.2073C16.1295 11.3883 16.0929 11.5581 16.0783 11.708C16.2334 11.6558 16.3911 11.6118 16.5507 11.5761L16.8203 11.5162L16.9424 11.7638C17.0532 11.9885 17.146 12.2216 17.2197 12.4611C17.5502 12.4242 17.8055 12.3295 17.9987 12.2015C18.2934 12.0062 18.4641 11.7302 18.5394 11.3782C18.6758 10.7401 18.4375 9.85699 17.8752 9.12238ZM3.57443 12.3409C3.21174 13.2448 3.22182 14.21 3.54674 14.8229C3.72526 15.1596 3.98057 15.3935 4.33846 15.5089C4.5176 15.5667 4.7274 15.5945 4.97068 15.5794C4.88729 15.1436 4.86244 14.6821 4.90209 14.2146L4.92561 13.9383L5.19983 13.8967C5.37405 13.8704 5.54952 13.8533 5.72553 13.8454C5.74717 13.8445 5.76877 13.8439 5.79037 13.8431C5.30525 13.2269 4.46682 12.6154 3.57443 12.3409ZM16.426 12.3409C15.5336 12.6154 14.6951 13.2268 14.21 13.8431C14.2317 13.8439 14.2533 13.8445 14.2749 13.8454C14.4506 13.8535 14.6262 13.8703 14.8006 13.8967L15.0749 13.9383L15.0983 14.2146C15.138 14.6821 15.1131 15.1436 15.0297 15.5794C15.273 15.5945 15.4829 15.5667 15.662 15.5089C16.0199 15.3935 16.2752 15.1596 16.4537 14.8229C16.7786 14.21 16.7887 13.2448 16.426 12.3409ZM7.80213 13.1016C7.72623 13.39 7.566 13.6501 7.35815 13.8579C7.31486 13.9009 7.26943 13.9416 7.22205 13.98C7.80033 14.1087 8.34154 14.3195 8.80033 14.5839C8.89346 14.3745 9.01033 14.1798 9.16783 14.0162C9.37365 13.8024 9.66858 13.6484 10.0002 13.6484C10.3319 13.6484 10.6268 13.8024 10.8326 14.0162C10.9901 14.1798 11.107 14.3746 11.2001 14.5839C11.6616 14.3179 12.2066 14.1061 12.7888 13.9776C12.7378 13.9358 12.689 13.8913 12.6427 13.8443C12.4385 13.636 12.2806 13.3813 12.2028 13.1016H7.80213ZM10.0002 14.3516C9.86608 14.3516 9.7801 14.3939 9.67443 14.5037C9.56881 14.6135 9.46369 14.7975 9.38041 15.0232C9.21381 15.4746 9.13264 16.0779 9.10088 16.525C9.05908 17.1126 9.21807 17.8284 9.58076 18.0898C9.76565 18.2231 10.2348 18.2231 10.4197 18.0898C10.7824 17.8284 10.9413 17.1126 10.8996 16.525C10.8678 16.0779 10.7866 15.4746 10.62 15.0232C10.5367 14.7975 10.4316 14.6135 10.326 14.5037C10.2203 14.3939 10.1344 14.3516 10.0002 14.3516ZM5.95643 14.5461C5.88947 14.5457 5.82268 14.5469 5.75615 14.5496C5.70127 14.5517 5.64795 14.5605 5.5935 14.5648C5.57717 15.6514 5.97693 16.6563 6.56983 17.1681C6.89264 17.4468 7.25678 17.5889 7.67725 17.5648C7.90803 17.5516 8.16139 17.4855 8.43404 17.3492C8.38444 17.0498 8.38026 16.7469 8.39955 16.475C8.42424 16.1278 8.4719 15.6953 8.57451 15.2689C7.9042 14.8515 6.91725 14.5504 5.95643 14.546V14.5461ZM14.044 14.5461C13.0832 14.5504 12.0962 14.8515 11.4259 15.2689C11.5285 15.6953 11.5762 16.1278 11.6009 16.475C11.6202 16.7468 11.616 17.0498 11.5664 17.3493C11.839 17.4856 12.0924 17.5516 12.3232 17.5648C12.7437 17.5889 13.1078 17.4468 13.4306 17.1681C14.0235 16.6563 14.4233 15.6514 14.4069 14.5648C14.3525 14.5605 14.2991 14.5517 14.2443 14.5496C14.1776 14.5469 14.1108 14.5458 14.044 14.5461Z" fill="#008905"/>
</svg>
