<svg width="20" height="20" viewBox="0 0 20 20" fill="none" xmlns="http://www.w3.org/2000/svg">
<path d="M15.4167 2.50015C15.723 2.50024 16.0255 2.56787 16.3027 2.69822C16.5798 2.82858 16.8249 3.01845 17.0203 3.25431C17.2157 3.49017 17.3567 3.76623 17.4333 4.06281C17.5098 4.35939 17.52 4.6692 17.4632 4.97018C17.4063 5.27116 17.2838 5.5559 17.1043 5.80412C16.9249 6.05234 16.6929 6.25794 16.4249 6.40626C16.1569 6.55459 15.8595 6.64199 15.5539 6.66225C15.2482 6.68252 14.9419 6.63513 14.6567 6.52348L10.86 10.3193C11.4841 11.2234 11.7611 12.3224 11.64 13.4143L13.8267 14.0702C14.1361 13.7051 14.5619 13.4577 15.0323 13.3696C15.5028 13.2815 15.9892 13.358 16.4098 13.5864C16.8304 13.8147 17.1596 14.1809 17.342 14.6234C17.5244 15.0659 17.5488 15.5577 17.4113 16.0161C17.2737 16.4745 16.9825 16.8716 16.5866 17.1406C16.1907 17.4095 15.7143 17.534 15.2374 17.493C14.7606 17.452 14.3124 17.2481 13.9682 16.9155C13.624 16.5829 13.4048 16.142 13.3475 15.6668L11.1617 15.0101C10.6996 15.9115 9.95196 16.6344 9.03558 17.0659C8.11919 17.4974 7.08568 17.6132 6.09652 17.3952C5.10737 17.1772 4.21829 16.6377 3.56821 15.8609C2.91813 15.0841 2.54367 14.1139 2.50333 13.1018L2.5 12.9168L2.50333 12.7326C2.53581 11.9215 2.78316 11.1335 3.22007 10.4493C3.65698 9.76509 4.26778 9.2092 4.99 8.83848L4.33333 6.65182C3.85294 6.59414 3.40764 6.37092 3.07398 6.02053C2.74031 5.67014 2.53913 5.21446 2.505 4.73182L2.5 4.58348L2.50417 4.44682C2.52671 4.10347 2.63395 3.77106 2.8163 3.47926C2.99865 3.18747 3.25043 2.94539 3.54916 2.77463C3.84788 2.60388 4.18425 2.50977 4.52821 2.50072C4.87218 2.49167 5.21303 2.56795 5.52032 2.72276C5.82762 2.87756 6.09178 3.10607 6.28923 3.38787C6.48667 3.66967 6.61125 3.99598 6.65182 4.33766C6.6924 4.67935 6.64771 5.02576 6.52175 5.34596C6.3958 5.66616 6.19249 5.95018 5.93 6.17265L6.58583 8.36015C7.67776 8.23904 8.77672 8.516 9.68083 9.14015L13.4767 5.34348C13.3983 5.14415 13.3514 4.93387 13.3375 4.72015L13.3333 4.58348L13.3375 4.44682C13.3722 3.91902 13.6063 3.42419 13.9925 3.06268C14.3786 2.70118 14.8877 2.50007 15.4167 2.50015Z" fill="#008905"/>
</svg>
