<svg width="20" height="20" viewBox="0 0 20 20" fill="none" xmlns="http://www.w3.org/2000/svg">
<path d="M16.199 10.8263L16.1906 10.843C16.224 10.568 16.2573 10.2846 16.2573 10.0013C16.2573 9.71797 16.2323 9.4513 16.199 9.1763L16.2073 9.19297L18.2406 7.59297L16.2156 4.0763L13.824 5.04297L13.8323 5.0513C13.399 4.71797 12.924 4.43464 12.4073 4.21797H12.4156L12.0323 1.66797H7.97396L7.60729 4.2263H7.61563C7.09896 4.44297 6.62396 4.7263 6.19062 5.05964L6.19896 5.0513L3.79896 4.0763L1.76562 7.59297L3.79896 9.19297L3.80729 9.1763C3.77396 9.4513 3.74896 9.71797 3.74896 10.0013C3.74896 10.2846 3.77396 10.568 3.81562 10.843L3.80729 10.8263L2.05729 12.2013L1.78229 12.418L3.80729 15.918L6.20729 14.9596L6.19062 14.9263C6.63229 15.268 7.10729 15.5513 7.63229 15.768H7.60729L7.98229 18.3346H12.024C12.024 18.3346 12.049 18.1846 12.074 17.9846L12.3906 15.7763H12.3823C12.899 15.5596 13.3823 15.2763 13.824 14.9346L13.8073 14.968L16.2073 15.9263L18.2323 12.4263C18.2323 12.4263 18.1156 12.3263 17.9573 12.2096L16.199 10.8263ZM9.99896 12.918C8.39062 12.918 7.08229 11.6096 7.08229 10.0013C7.08229 8.39297 8.39062 7.08464 9.99896 7.08464C11.6073 7.08464 12.9156 8.39297 12.9156 10.0013C12.9156 11.6096 11.6073 12.918 9.99896 12.918Z" fill="#008905"/>
</svg>
