<svg width="191" height="488" viewBox="0 0 191 488" fill="none" xmlns="http://www.w3.org/2000/svg">
<g filter="url(#filter0_d_1_719)">
<rect x="4" y="1" width="183" height="230" rx="8.13" fill="#0D0E12" shape-rendering="crispEdges"/>
<path d="M65 27H41C39.35 27 38 28.35 38 30V54C38 55.65 39.35 57 41 57H65C66.65 57 68 55.65 68 54V30C68 28.35 66.65 27 65 27ZM41 30H47V45H41V30ZM41 54V48H47V54H41ZM65 54H50V39H65V54ZM65 36H50V30H65V36Z" fill="#FFA800"/>
<path d="M35.1186 157V146.818H36.6548V155.678H41.2685V157H35.1186ZM46.1183 157.154C45.4023 157.154 44.7776 156.99 44.244 156.662C43.7103 156.334 43.296 155.875 43.0011 155.285C42.7061 154.695 42.5586 154.005 42.5586 153.217C42.5586 152.424 42.7061 151.732 43.0011 151.138C43.296 150.545 43.7103 150.085 44.244 149.756C44.7776 149.428 45.4023 149.264 46.1183 149.264C46.8342 149.264 47.4589 149.428 47.9925 149.756C48.5262 150.085 48.9405 150.545 49.2354 151.138C49.5304 151.732 49.6779 152.424 49.6779 153.217C49.6779 154.005 49.5304 154.695 49.2354 155.285C48.9405 155.875 48.5262 156.334 47.9925 156.662C47.4589 156.99 46.8342 157.154 46.1183 157.154ZM46.1232 155.906C46.5872 155.906 46.9717 155.784 47.2766 155.538C47.5816 155.293 47.8069 154.967 47.9528 154.559C48.1019 154.151 48.1765 153.702 48.1765 153.212C48.1765 152.724 48.1019 152.277 47.9528 151.869C47.8069 151.458 47.5816 151.129 47.2766 150.88C46.9717 150.631 46.5872 150.507 46.1232 150.507C45.6559 150.507 45.2681 150.631 44.9599 150.88C44.6549 151.129 44.4279 151.458 44.2788 151.869C44.1329 152.277 44.06 152.724 44.06 153.212C44.06 153.702 44.1329 154.151 44.2788 154.559C44.4279 154.967 44.6549 155.293 44.9599 155.538C45.2681 155.784 45.6559 155.906 46.1232 155.906ZM54.9018 149.364V150.557H50.7306V149.364H54.9018ZM51.8493 147.534H53.3358V154.758C53.3358 155.046 53.3788 155.263 53.465 155.409C53.5512 155.552 53.6622 155.649 53.7981 155.702C53.9373 155.752 54.0881 155.777 54.2505 155.777C54.3699 155.777 54.4743 155.769 54.5637 155.752C54.6532 155.736 54.7228 155.722 54.7725 155.712L55.041 156.94C54.9548 156.973 54.8322 157.007 54.6731 157.04C54.514 157.076 54.3152 157.096 54.0765 157.099C53.6854 157.106 53.3208 157.036 52.9828 156.891C52.6447 156.745 52.3713 156.519 52.1625 156.214C51.9537 155.91 51.8493 155.527 51.8493 155.066V147.534ZM62.1454 151.228L60.7981 151.467C60.7418 151.294 60.6523 151.13 60.5297 150.974C60.4103 150.819 60.2479 150.691 60.0424 150.592C59.8369 150.492 59.5801 150.442 59.2718 150.442C58.8509 150.442 58.4996 150.537 58.2179 150.726C57.9361 150.911 57.7953 151.152 57.7953 151.447C57.7953 151.702 57.8897 151.907 58.0787 152.063C58.2676 152.219 58.5725 152.347 58.9934 152.446L60.2065 152.724C60.9092 152.887 61.4328 153.137 61.7775 153.475C62.1222 153.813 62.2946 154.252 62.2946 154.793C62.2946 155.25 62.162 155.658 61.8968 156.016C61.635 156.37 61.2688 156.649 60.7981 156.851C60.3308 157.053 59.7889 157.154 59.1724 157.154C58.3173 157.154 57.6196 156.972 57.0794 156.607C56.5391 156.239 56.2077 155.717 56.085 155.041L57.5218 154.822C57.6113 155.197 57.7953 155.48 58.0737 155.673C58.3521 155.862 58.715 155.956 59.1625 155.956C59.6497 155.956 60.0391 155.855 60.3308 155.653C60.6225 155.447 60.7683 155.197 60.7683 154.902C60.7683 154.663 60.6788 154.463 60.4998 154.3C60.3242 154.138 60.054 154.015 59.6895 153.933L58.3968 153.649C57.6842 153.487 57.1573 153.228 56.8159 152.874C56.4778 152.519 56.3088 152.07 56.3088 151.526C56.3088 151.076 56.4347 150.681 56.6866 150.343C56.9385 150.005 57.2865 149.741 57.7306 149.553C58.1748 149.36 58.6835 149.264 59.2569 149.264C60.0822 149.264 60.7318 149.443 61.2058 149.801C61.6797 150.156 61.993 150.631 62.1454 151.228Z" fill="#99A1B7"/>
<rect x="34" y="173" width="106" height="4" rx="2" fill="#DFFFEA"/>
<path d="M45.4893 92.6364V121H41.196V96.9297H41.0298L34.2436 101.362V97.2621L41.3207 92.6364H45.4893ZM61.5416 121.388C59.6396 121.388 57.9407 121.06 56.445 120.404C54.9585 119.749 53.7813 118.839 52.9134 117.676C52.0547 116.504 51.5931 115.146 51.5284 113.604H55.8772C55.9326 114.445 56.2142 115.174 56.722 115.793C57.239 116.402 57.913 116.873 58.744 117.205C59.575 117.538 60.4983 117.704 61.5139 117.704C62.6311 117.704 63.619 117.51 64.4777 117.122C65.3456 116.734 66.0242 116.194 66.5135 115.502C67.0029 114.8 67.2475 113.992 67.2475 113.078C67.2475 112.127 67.0029 111.292 66.5135 110.571C66.0334 109.842 65.3271 109.27 64.3946 108.854C63.4713 108.439 62.3541 108.231 61.043 108.231H58.647V104.741H61.043C62.0956 104.741 63.0188 104.551 63.8129 104.173C64.6162 103.794 65.244 103.268 65.6964 102.594C66.1488 101.911 66.375 101.112 66.375 100.198C66.375 99.321 66.1765 98.5593 65.7795 97.913C65.3917 97.2575 64.8377 96.745 64.1176 96.3757C63.4066 96.0064 62.5664 95.8217 61.597 95.8217C60.6737 95.8217 59.8104 95.9925 59.0071 96.3342C58.2131 96.6665 57.5668 97.1467 57.0682 97.7745C56.5696 98.3931 56.3019 99.1364 56.2649 100.004H52.124C52.1701 98.4716 52.6225 97.1236 53.4812 95.9602C54.3491 94.7969 55.494 93.8874 56.9159 93.2319C58.3377 92.5763 59.9166 92.2486 61.6524 92.2486C63.4713 92.2486 65.0409 92.604 66.3612 93.315C67.6907 94.0167 68.7156 94.9538 69.4358 96.1264C70.1652 97.299 70.5252 98.5824 70.516 99.9766C70.5252 101.565 70.0821 102.913 69.1865 104.021C68.3001 105.129 67.1183 105.872 65.641 106.25V106.472C67.5245 106.758 68.9833 107.506 70.0174 108.716C71.0608 109.925 71.5778 111.425 71.5686 113.217C71.5778 114.777 71.1438 116.176 70.2667 117.413C69.3988 118.65 68.2124 119.624 66.7074 120.335C65.2024 121.037 63.4805 121.388 61.5416 121.388Z" fill="white"/>
</g>
<g filter="url(#filter1_d_1_719)">
<rect x="4" y="251" width="183" height="230" rx="8.13" fill="#0D0E12" shape-rendering="crispEdges"/>
<path d="M63.5 274C73.1652 274 81 281.835 81 291.5C81 301.165 73.1652 309 63.5 309C53.8348 309 46 301.165 46 291.5C46 281.835 53.8348 274 63.5 274ZM63.5 276.441C59.5062 276.441 55.6759 278.028 52.8519 280.852C50.0278 283.676 48.4413 287.506 48.4412 291.5C48.4413 295.494 50.0278 299.324 52.8519 302.148C55.6759 304.972 59.5062 306.559 63.5 306.559C67.4938 306.559 71.3241 304.972 74.1481 302.148C76.9722 299.324 78.5588 295.494 78.5588 291.5C78.5588 287.506 76.9722 283.676 74.1481 280.852C71.3241 278.028 67.4938 276.441 63.5 276.441ZM61.8725 283.767C62.5462 283.767 63.0923 284.314 63.0923 284.988V293.535H71.6392C71.955 293.547 72.2538 293.681 72.4729 293.909C72.6921 294.136 72.8145 294.44 72.8145 294.756C72.8145 295.072 72.6921 295.375 72.4729 295.603C72.2538 295.831 71.955 295.965 71.6392 295.976H61.8725C61.5485 295.976 61.2378 295.848 61.0088 295.619C60.7797 295.39 60.651 295.079 60.651 294.755V284.99C60.651 284.315 61.197 283.767 61.8725 283.767Z" fill="#03A9F4"/>
<path d="M35.1186 407V396.818H41.5021V398.141H36.6548V401.243H41.169V402.56H36.6548V405.678H41.5618V407H35.1186ZM44.6081 399.364L46.2935 402.337L47.9938 399.364H49.6195L47.2381 403.182L49.6394 407H48.0137L46.2935 404.146L44.5783 407H42.9476L45.324 403.182L42.9775 399.364H44.6081ZM51.1458 409.864V399.364H52.5975V400.602H52.7218C52.8079 400.442 52.9322 400.259 53.0946 400.05C53.257 399.841 53.4824 399.659 53.7708 399.503C54.0591 399.344 54.4403 399.264 54.9142 399.264C55.5307 399.264 56.0809 399.42 56.5648 399.732C57.0487 400.043 57.4282 400.492 57.7033 401.079C57.9817 401.665 58.1209 402.371 58.1209 403.197C58.1209 404.022 57.9834 404.73 57.7083 405.32C57.4332 405.906 57.0553 406.359 56.5748 406.677C56.0942 406.992 55.5456 407.149 54.9292 407.149C54.4651 407.149 54.0856 407.071 53.7907 406.915C53.499 406.76 53.2703 406.577 53.1046 406.369C52.9389 406.16 52.8113 405.974 52.7218 405.812H52.6323V409.864H51.1458ZM52.6025 403.182C52.6025 403.719 52.6803 404.189 52.8361 404.594C52.9919 404.998 53.2173 405.315 53.5123 405.543C53.8072 405.769 54.1685 405.881 54.5961 405.881C55.0402 405.881 55.4114 405.764 55.7097 405.528C56.008 405.29 56.2334 404.967 56.3858 404.559C56.5416 404.151 56.6195 403.692 56.6195 403.182C56.6195 402.678 56.5433 402.226 56.3908 401.825C56.2417 401.424 56.0163 401.107 55.7147 400.875C55.4164 400.643 55.0435 400.527 54.5961 400.527C54.1652 400.527 53.8006 400.638 53.5023 400.86C53.2073 401.082 52.9836 401.392 52.8311 401.79C52.6787 402.187 52.6025 402.652 52.6025 403.182ZM63.0776 407.154C62.3252 407.154 61.6773 406.993 61.1337 406.672C60.5935 406.347 60.1758 405.891 59.8809 405.305C59.5892 404.715 59.4434 404.024 59.4434 403.232C59.4434 402.449 59.5892 401.76 59.8809 401.163C60.1758 400.567 60.5868 400.101 61.1138 399.766C61.6441 399.432 62.2639 399.264 62.9732 399.264C63.4041 399.264 63.8217 399.335 64.226 399.478C64.6304 399.621 64.9933 399.844 65.3148 400.149C65.6363 400.454 65.8899 400.85 66.0755 401.337C66.2611 401.821 66.3539 402.41 66.3539 403.102V403.629H60.2836V402.516H64.8972C64.8972 402.125 64.8176 401.778 64.6586 401.477C64.4995 401.172 64.2757 400.931 63.9874 400.756C63.7024 400.58 63.3676 400.492 62.9831 400.492C62.5655 400.492 62.2009 400.595 61.8894 400.8C61.5811 401.003 61.3425 401.268 61.1735 401.596C61.0078 401.921 60.9249 402.274 60.9249 402.655V403.525C60.9249 404.035 61.0144 404.469 61.1934 404.827C61.3757 405.185 61.6292 405.459 61.954 405.648C62.2788 405.833 62.6583 405.926 63.0925 405.926C63.3742 405.926 63.6311 405.886 63.8631 405.807C64.0951 405.724 64.2956 405.601 64.4647 405.439C64.6337 405.277 64.763 405.076 64.8525 404.837L66.2594 405.091C66.1467 405.505 65.9445 405.868 65.6529 406.18C65.3645 406.488 65.0016 406.728 64.5641 406.901C64.1299 407.07 63.6344 407.154 63.0776 407.154ZM71.2198 407.154C70.4807 407.154 69.8443 406.987 69.3107 406.652C68.7804 406.314 68.3728 405.848 68.0877 405.255C67.8027 404.662 67.6602 403.982 67.6602 403.217C67.6602 402.441 67.806 401.757 68.0977 401.163C68.3893 400.567 68.8003 400.101 69.3306 399.766C69.8609 399.432 70.4857 399.264 71.2049 399.264C71.7849 399.264 72.302 399.372 72.756 399.587C73.2101 399.799 73.5763 400.098 73.8548 400.482C74.1365 400.867 74.3039 401.316 74.3569 401.83H72.9102C72.8306 401.472 72.6483 401.163 72.3633 400.905C72.0816 400.646 71.7037 400.517 71.2298 400.517C70.8155 400.517 70.4525 400.626 70.141 400.845C69.8327 401.061 69.5924 401.369 69.4201 401.77C69.2478 402.168 69.1616 402.638 69.1616 403.182C69.1616 403.739 69.2461 404.219 69.4151 404.624C69.5842 405.028 69.8228 405.341 70.131 405.563C70.4426 405.785 70.8088 405.896 71.2298 405.896C71.5115 405.896 71.7667 405.845 71.9954 405.742C72.2274 405.636 72.4213 405.485 72.5771 405.29C72.7362 405.094 72.8472 404.859 72.9102 404.584H74.3569C74.3039 405.078 74.1431 405.518 73.8746 405.906C73.6062 406.294 73.2466 406.599 72.7958 406.821C72.3484 407.043 71.823 407.154 71.2198 407.154ZM79.5112 399.364V400.557H75.34V399.364H79.5112ZM76.4586 397.534H77.9451V404.758C77.9451 405.046 77.9882 405.263 78.0744 405.409C78.1606 405.552 78.2716 405.649 78.4075 405.702C78.5467 405.752 78.6975 405.777 78.8599 405.777C78.9792 405.777 79.0836 405.769 79.1731 405.752C79.2626 405.736 79.3322 405.722 79.3819 405.712L79.6504 406.94C79.5642 406.973 79.4416 407.007 79.2825 407.04C79.1234 407.076 78.9245 407.096 78.6859 407.099C78.2948 407.106 77.9302 407.036 77.5922 406.891C77.2541 406.745 76.9806 406.519 76.7718 406.214C76.563 405.91 76.4586 405.527 76.4586 405.066V397.534ZM83.3778 407.169C82.8939 407.169 82.4564 407.08 82.0653 406.901C81.6742 406.718 81.3643 406.455 81.1357 406.11C80.9103 405.765 80.7976 405.343 80.7976 404.842C80.7976 404.411 80.8804 404.057 81.0462 403.778C81.2119 403.5 81.4356 403.28 81.7173 403.117C81.9991 402.955 82.3139 402.832 82.6619 402.749C83.0099 402.666 83.3646 402.603 83.7259 402.56C84.1832 402.507 84.5545 402.464 84.8395 402.431C85.1245 402.395 85.3317 402.337 85.4609 402.257C85.5902 402.178 85.6548 402.048 85.6548 401.869V401.835C85.6548 401.4 85.5322 401.064 85.2869 400.825C85.045 400.587 84.6837 400.467 84.2031 400.467C83.7027 400.467 83.3082 400.578 83.0199 400.8C82.7348 401.019 82.5376 401.263 82.4283 401.531L81.0312 401.213C81.197 400.749 81.4389 400.375 81.7571 400.089C82.0786 399.801 82.4482 399.592 82.8658 399.463C83.2834 399.33 83.7225 399.264 84.1832 399.264C84.4882 399.264 84.8113 399.301 85.1527 399.374C85.4974 399.443 85.8189 399.572 86.1172 399.761C86.4188 399.95 86.6657 400.22 86.858 400.572C87.0502 400.92 87.1463 401.372 87.1463 401.929V407H85.6946V405.956H85.6349C85.5388 406.148 85.3946 406.337 85.2024 406.523C85.0102 406.708 84.7633 406.862 84.4616 406.985C84.16 407.108 83.7988 407.169 83.3778 407.169ZM83.701 405.976C84.112 405.976 84.4633 405.895 84.755 405.732C85.05 405.57 85.2737 405.358 85.4261 405.096C85.5819 404.831 85.6598 404.547 85.6598 404.246V403.261C85.6068 403.314 85.504 403.364 85.3516 403.411C85.2024 403.454 85.0317 403.492 84.8395 403.525C84.6473 403.555 84.46 403.583 84.2777 403.609C84.0954 403.633 83.9429 403.652 83.8203 403.669C83.532 403.705 83.2685 403.767 83.0298 403.853C82.7945 403.939 82.6056 404.063 82.4631 404.226C82.3239 404.385 82.2543 404.597 82.2543 404.862C82.2543 405.23 82.3902 405.509 82.6619 405.697C82.9337 405.883 83.2801 405.976 83.701 405.976ZM90.6127 402.466V407H89.1262V399.364H90.5531V400.607H90.6475C90.8232 400.202 91.0983 399.877 91.4728 399.632C91.8507 399.387 92.3263 399.264 92.8997 399.264C93.42 399.264 93.8758 399.374 94.2669 399.592C94.658 399.808 94.9612 400.129 95.1767 400.557C95.3921 400.984 95.4998 401.513 95.4998 402.143V407H94.0133V402.322C94.0133 401.768 93.8691 401.336 93.5808 401.024C93.2924 400.709 92.8964 400.552 92.3926 400.552C92.0479 400.552 91.7413 400.626 91.4728 400.776C91.2077 400.925 90.9972 401.143 90.8414 401.432C90.689 401.717 90.6127 402.062 90.6127 402.466ZM100.71 407.154C99.9709 407.154 99.3346 406.987 98.801 406.652C98.2707 406.314 97.863 405.848 97.5779 405.255C97.2929 404.662 97.1504 403.982 97.1504 403.217C97.1504 402.441 97.2962 401.757 97.5879 401.163C97.8796 400.567 98.2905 400.101 98.8208 399.766C99.3511 399.432 99.9759 399.264 100.695 399.264C101.275 399.264 101.792 399.372 102.246 399.587C102.7 399.799 103.067 400.098 103.345 400.482C103.627 400.867 103.794 401.316 103.847 401.83H102.4C102.321 401.472 102.139 401.163 101.854 400.905C101.572 400.646 101.194 400.517 100.72 400.517C100.306 400.517 99.9428 400.626 99.6312 400.845C99.323 401.061 99.0827 401.369 98.9103 401.77C98.738 402.168 98.6518 402.638 98.6518 403.182C98.6518 403.739 98.7363 404.219 98.9054 404.624C99.0744 405.028 99.313 405.341 99.6213 405.563C99.9328 405.785 100.299 405.896 100.72 405.896C101.002 405.896 101.257 405.845 101.486 405.742C101.718 405.636 101.912 405.485 102.067 405.29C102.226 405.094 102.337 404.859 102.4 404.584H103.847C103.794 405.078 103.633 405.518 103.365 405.906C103.096 406.294 102.737 406.599 102.286 406.821C101.839 407.043 101.313 407.154 100.71 407.154ZM106.376 409.864C106.154 409.864 105.952 409.845 105.77 409.809C105.588 409.776 105.452 409.739 105.362 409.7L105.72 408.482C105.992 408.554 106.234 408.586 106.446 408.576C106.658 408.566 106.845 408.487 107.008 408.337C107.174 408.188 107.319 407.945 107.445 407.607L107.629 407.099L104.835 399.364H106.426L108.36 405.29H108.44L110.374 399.364H111.969L108.822 408.019C108.677 408.417 108.491 408.753 108.266 409.028C108.04 409.307 107.772 409.516 107.46 409.655C107.149 409.794 106.787 409.864 106.376 409.864Z" fill="#99A1B7"/>
<rect x="34" y="423" width="106" height="4" rx="2" fill="#DFFFEA"/>
<path d="M47.3175 354.018V357.619H34.7422V354.018H47.3175ZM60.0389 373.545V338.091H62.3102V373.545H60.0389ZM67.1437 349.087C66.9959 347.776 66.3866 346.761 65.3155 346.04C64.2445 345.311 62.8965 344.946 61.2715 344.946C60.1082 344.946 59.1018 345.131 58.2523 345.5C57.4029 345.86 56.7427 346.359 56.2719 346.996C55.8102 347.624 55.5794 348.339 55.5794 349.143C55.5794 349.817 55.7364 350.398 56.0503 350.888C56.3734 351.377 56.7935 351.788 57.3106 352.12C57.8369 352.444 58.4001 352.716 59.0002 352.938C59.6003 353.15 60.1774 353.325 60.7314 353.464L63.5013 354.184C64.4061 354.406 65.334 354.706 66.285 355.084C67.236 355.463 68.1177 355.961 68.9302 356.58C69.7427 357.199 70.3983 357.965 70.8969 358.879C71.4047 359.793 71.6586 360.887 71.6586 362.161C71.6586 363.768 71.2431 365.194 70.4121 366.441C69.5904 367.687 68.3947 368.67 66.8251 369.391C65.2648 370.111 63.3766 370.471 61.1607 370.471C59.0371 370.471 57.1998 370.134 55.6486 369.46C54.0975 368.786 52.8834 367.83 52.0062 366.593C51.1291 365.347 50.6444 363.869 50.5521 362.161H54.8454C54.9285 363.186 55.2609 364.04 55.8425 364.723C56.4334 365.397 57.1859 365.901 58.1 366.233C59.0233 366.556 60.0343 366.718 61.133 366.718C62.3425 366.718 63.4182 366.528 64.3599 366.15C65.3109 365.762 66.0588 365.227 66.6035 364.543C67.1483 363.851 67.4207 363.043 67.4207 362.12C67.4207 361.279 67.1806 360.592 66.7005 360.056C66.2296 359.521 65.5879 359.077 64.7754 358.727C63.9722 358.376 63.0627 358.066 62.0471 357.799L58.6955 356.885C56.4242 356.266 54.6238 355.357 53.2942 354.156C51.9739 352.956 51.3138 351.368 51.3138 349.392C51.3138 347.758 51.757 346.331 52.6433 345.113C53.5297 343.894 54.73 342.947 56.2442 342.273C57.7584 341.59 59.4665 341.249 61.3685 341.249C63.2889 341.249 64.9832 341.586 66.4512 342.26C67.9285 342.934 69.0918 343.862 69.9413 345.043C70.7907 346.216 71.2339 347.564 71.2708 349.087H67.1437ZM85.6507 341.636V370H81.3574V345.93H81.1912L74.405 350.362V346.262L81.482 341.636H85.6507ZM92.7839 370L105.165 345.514V345.306H90.845V341.636H109.597V345.431L97.2573 370H92.7839ZM110.827 370.263C110.07 370.263 109.419 369.995 108.874 369.46C108.329 368.915 108.057 368.26 108.057 367.493C108.057 366.736 108.329 366.09 108.874 365.554C109.419 365.01 110.07 364.737 110.827 364.737C111.584 364.737 112.235 365.01 112.78 365.554C113.325 366.09 113.597 366.736 113.597 367.493C113.597 368.001 113.468 368.467 113.209 368.892C112.96 369.308 112.627 369.64 112.212 369.889C111.796 370.138 111.335 370.263 110.827 370.263ZM126.467 370.388C125.202 370.369 123.956 370.138 122.728 369.695C121.509 369.252 120.401 368.513 119.404 367.479C118.407 366.445 117.608 365.056 117.008 363.311C116.417 361.566 116.122 359.387 116.122 356.774C116.122 354.299 116.366 352.102 116.856 350.181C117.354 348.261 118.07 346.641 119.002 345.32C119.935 343.991 121.061 342.98 122.382 342.287C123.702 341.595 125.184 341.249 126.827 341.249C128.517 341.249 130.017 341.581 131.328 342.246C132.639 342.911 133.701 343.829 134.514 345.002C135.335 346.174 135.857 347.509 136.079 349.004H131.855C131.568 347.822 131.001 346.858 130.151 346.11C129.302 345.362 128.194 344.988 126.827 344.988C124.75 344.988 123.129 345.893 121.966 347.702C120.812 349.512 120.23 352.028 120.221 355.25H120.429C120.918 354.447 121.518 353.764 122.229 353.201C122.949 352.628 123.753 352.19 124.639 351.885C125.535 351.571 126.476 351.414 127.464 351.414C129.108 351.414 130.594 351.816 131.924 352.619C133.263 353.413 134.329 354.512 135.123 355.915C135.917 357.319 136.314 358.925 136.314 360.735C136.314 362.544 135.903 364.183 135.082 365.651C134.269 367.119 133.124 368.283 131.647 369.141C130.17 369.991 128.443 370.406 126.467 370.388ZM126.453 366.787C127.543 366.787 128.517 366.519 129.376 365.984C130.234 365.448 130.913 364.728 131.411 363.823C131.91 362.918 132.159 361.907 132.159 360.79C132.159 359.701 131.915 358.708 131.425 357.812C130.945 356.917 130.28 356.206 129.431 355.68C128.591 355.153 127.631 354.89 126.55 354.89C125.729 354.89 124.967 355.047 124.265 355.361C123.573 355.675 122.963 356.109 122.437 356.663C121.911 357.217 121.495 357.854 121.191 358.574C120.895 359.285 120.747 360.038 120.747 360.832C120.747 361.893 120.992 362.877 121.481 363.782C121.98 364.686 122.659 365.416 123.517 365.97C124.385 366.515 125.364 366.787 126.453 366.787ZM139.864 370V366.898L149.461 356.954C150.486 355.874 151.331 354.927 151.996 354.115C152.67 353.293 153.173 352.513 153.505 351.774C153.838 351.036 154.004 350.251 154.004 349.42C154.004 348.478 153.782 347.665 153.339 346.982C152.896 346.29 152.291 345.759 151.525 345.39C150.759 345.011 149.895 344.822 148.935 344.822C147.92 344.822 147.033 345.029 146.276 345.445C145.519 345.86 144.937 346.447 144.531 347.204C144.125 347.961 143.922 348.847 143.922 349.863H139.836C139.836 348.136 140.233 346.627 141.027 345.334C141.821 344.042 142.911 343.04 144.296 342.329C145.681 341.609 147.255 341.249 149.018 341.249C150.8 341.249 152.37 341.604 153.727 342.315C155.094 343.017 156.16 343.977 156.926 345.196C157.693 346.405 158.076 347.772 158.076 349.295C158.076 350.348 157.877 351.377 157.48 352.384C157.092 353.39 156.414 354.512 155.444 355.749C154.475 356.977 153.127 358.468 151.4 360.222L145.764 366.122V366.33H158.533V370H139.864Z" fill="white"/>
</g>
<defs>
<filter id="filter0_d_1_719" x="0" y="0" width="191" height="238" filterUnits="userSpaceOnUse" color-interpolation-filters="sRGB">
<feFlood flood-opacity="0" result="BackgroundImageFix"/>
<feColorMatrix in="SourceAlpha" type="matrix" values="0 0 0 0 0 0 0 0 0 0 0 0 0 0 0 0 0 0 127 0" result="hardAlpha"/>
<feOffset dy="3"/>
<feGaussianBlur stdDeviation="2"/>
<feComposite in2="hardAlpha" operator="out"/>
<feColorMatrix type="matrix" values="0 0 0 0 0 0 0 0 0 0 0 0 0 0 0 0 0 0 0.03 0"/>
<feBlend mode="normal" in2="BackgroundImageFix" result="effect1_dropShadow_1_719"/>
<feBlend mode="normal" in="SourceGraphic" in2="effect1_dropShadow_1_719" result="shape"/>
</filter>
<filter id="filter1_d_1_719" x="0" y="250" width="191" height="238" filterUnits="userSpaceOnUse" color-interpolation-filters="sRGB">
<feFlood flood-opacity="0" result="BackgroundImageFix"/>
<feColorMatrix in="SourceAlpha" type="matrix" values="0 0 0 0 0 0 0 0 0 0 0 0 0 0 0 0 0 0 127 0" result="hardAlpha"/>
<feOffset dy="3"/>
<feGaussianBlur stdDeviation="2"/>
<feComposite in2="hardAlpha" operator="out"/>
<feColorMatrix type="matrix" values="0 0 0 0 0 0 0 0 0 0 0 0 0 0 0 0 0 0 0.03 0"/>
<feBlend mode="normal" in2="BackgroundImageFix" result="effect1_dropShadow_1_719"/>
<feBlend mode="normal" in="SourceGraphic" in2="effect1_dropShadow_1_719" result="shape"/>
</filter>
</defs>
</svg>
