<svg width="17" height="17" viewBox="0 0 17 17" fill="none" xmlns="http://www.w3.org/2000/svg">
<g opacity="0.3">
<path d="M14.7969 8.34961C14.7969 9.26628 14.6198 10.1309 14.2656 10.9434C13.9219 11.7559 13.4479 12.4642 12.8438 13.0684C12.2396 13.6725 11.5312 14.1465 10.7188 14.4902C9.90625 14.8444 9.04167 15.0215 8.125 15.0215C7.20833 15.0215 6.34375 14.8444 5.53125 14.4902C4.71875 14.1465 4.01042 13.6725 3.40625 13.0684C2.80208 12.4642 2.32812 11.7559 1.98438 10.9434C1.63021 10.1309 1.45312 9.26628 1.45312 8.34961C1.45312 7.43294 1.63021 6.56836 1.98438 5.75586C2.32812 4.94336 2.80208 4.23503 3.40625 3.63086C4.01042 3.02669 4.71875 2.55273 5.53125 2.20898C6.34375 1.85482 7.20833 1.67773 8.125 1.67773C9.04167 1.67773 9.90625 1.85482 10.7188 2.20898C11.5312 2.55273 12.2396 3.02669 12.8438 3.63086C13.4479 4.23503 13.9219 4.94336 14.2656 5.75586C14.6198 6.56836 14.7969 7.43294 14.7969 8.34961Z" fill="#99A1B7"/>
</g>
<path d="M10.6963 7.22119C10.6963 7.93001 10.445 8.53569 9.9425 9.03821C9.43998 9.54073 8.83431 9.79199 8.12549 9.79199C7.41667 9.79199 6.81099 9.54073 6.30847 9.03821C5.80595 8.53569 5.55469 7.93001 5.55469 7.22119C5.55469 6.50179 5.80595 5.89347 6.30847 5.39624C6.81099 4.89901 7.41667 4.65039 8.12549 4.65039C8.83431 4.65039 9.43998 4.89901 9.9425 5.39624C10.445 5.89347 10.6963 6.50179 10.6963 7.22119Z" fill="#99A1B7"/>
<path d="M8.12524 15.251C8.9716 15.251 9.77035 15.1055 10.5215 14.8146C11.2726 14.5236 11.9444 14.119 12.5369 13.6006L12.521 13.6165C12.3623 13.151 12.1401 12.7278 11.8545 12.3469C11.5583 11.9661 11.2197 11.6381 10.8389 11.363C10.458 11.088 10.0348 10.8711 9.56934 10.7124C9.11442 10.5643 8.63306 10.4902 8.12524 10.4902C7.61743 10.4902 7.13607 10.5643 6.68115 10.7124C6.21566 10.8711 5.79248 11.0853 5.41162 11.3551C5.03076 11.6249 4.69751 11.9502 4.41187 12.3311C4.11564 12.7119 3.88818 13.1298 3.72949 13.5847V13.6165C4.31136 14.1243 4.97786 14.5236 5.729 14.8146C6.48014 15.1055 7.27889 15.251 8.12524 15.251Z" fill="#99A1B7"/>
</svg>
