<svg width="52" height="44" viewBox="0 0 52 44" fill="none" xmlns="http://www.w3.org/2000/svg">
<path d="M23.6245 18.665C23.3837 19.0131 23.0573 19.2087 22.717 19.2087C22.3768 19.2087 22.0504 19.0131 21.8096 18.665L13.3004 6.34452V42.1408C13.3004 42.6339 13.1652 43.1068 12.9243 43.4554C12.6835 43.8041 12.3569 44 12.0164 44C11.6758 44 11.3492 43.8041 11.1084 43.4554C10.8676 43.1068 10.7323 42.6339 10.7323 42.1408V6.34452L2.22309 18.665C2.06614 18.9097 1.86651 19.0886 1.64522 19.1829C1.42393 19.2771 1.18918 19.2832 0.965712 19.2004C0.74224 19.1177 0.538317 18.9492 0.375428 18.7128C0.212538 18.4763 0.0967124 18.1806 0.0401544 17.8568C-0.0170586 17.5336 -0.0130672 17.1941 0.0517088 16.8739C0.116485 16.5537 0.239651 16.2647 0.408257 16.0373L11.1089 0.543737C11.3497 0.195565 11.6761 0 12.0164 0C12.3566 0 12.683 0.195565 12.9238 0.543737L23.6245 16.0373C23.8649 16.3859 24 16.8584 24 17.3511C24 17.8438 23.8649 18.3164 23.6245 18.665Z" fill="#C73088"/>
<path d="M51.6245 25.335C51.3837 24.9869 51.0573 24.7913 50.717 24.7913C50.3768 24.7913 50.0504 24.9869 49.8096 25.335L41.3004 37.6555V1.85922C41.3004 1.36613 41.1652 0.893223 40.9243 0.544552C40.6835 0.195877 40.3569 -3.8147e-06 40.0164 -3.8147e-06C39.6758 -3.8147e-06 39.3492 0.195877 39.1084 0.544552C38.8676 0.893223 38.7323 1.36613 38.7323 1.85922V37.6555L30.2231 25.335C30.0661 25.0903 29.8665 24.9114 29.6452 24.8171C29.4239 24.7229 29.1892 24.7168 28.9657 24.7996C28.7422 24.8823 28.5383 25.0508 28.3754 25.2872C28.2125 25.5237 28.0967 25.8194 28.0402 26.1432C27.9829 26.4664 27.9869 26.8059 28.0517 27.1261C28.1165 27.4463 28.2397 27.7353 28.4083 27.9627L39.1089 43.4563C39.3497 43.8044 39.6761 44 40.0164 44C40.3566 44 40.683 43.8044 40.9238 43.4563L51.6245 27.9627C51.8649 27.6141 52 27.1416 52 26.6489C52 26.1562 51.8649 25.6836 51.6245 25.335Z" fill="#C73088"/>
</svg>
