<svg width="372" height="106" viewBox="0 0 372 106" fill="none" xmlns="http://www.w3.org/2000/svg">
<mask id="mask0_1_663" style="mask-type:luminance" maskUnits="userSpaceOnUse" x="0" y="0" width="372" height="114">
<path d="M371.6 0.700195H0.400391V113.7H371.6V0.700195Z" fill="white"/>
</mask>
<g mask="url(#mask0_1_663)">
<path d="M23.5703 97.7012V74.8262C23.5703 71.8262 26.5703 68.8262 29.5703 68.8262C32.4003 68.8262 35.2303 71.8262 35.2303 74.8262V97.7012C35.2303 100.701 32.2303 103.701 29.2303 103.701C26.4003 103.701 23.5703 100.701 23.5703 97.7012Z" fill="#8F5FF4" fill-opacity="0.85"/>
</g>
<mask id="mask1_1_663" style="mask-type:luminance" maskUnits="userSpaceOnUse" x="0" y="0" width="372" height="114">
<path d="M371.6 0.700195H0.400391V113.7H371.6V0.700195Z" fill="white"/>
</mask>
<g mask="url(#mask1_1_663)">
<path d="M68.3135 97.7012V22.5137C68.3135 19.5137 71.3135 16.5137 74.3135 16.5137C77.1435 16.5137 79.9735 19.5137 79.9735 22.5137V97.7012C79.9735 100.701 76.9735 103.701 73.9735 103.701C71.1435 103.701 68.3135 100.701 68.3135 97.7012Z" fill="#8F5FF4" fill-opacity="0.85"/>
</g>
<mask id="mask2_1_663" style="mask-type:luminance" maskUnits="userSpaceOnUse" x="0" y="0" width="372" height="114">
<path d="M371.6 0.700195H0.400391V113.7H371.6V0.700195Z" fill="white"/>
</mask>
<g mask="url(#mask2_1_663)">
<path d="M113.056 97.7012V45.7637C113.056 42.7637 116.056 39.7637 119.056 39.7637C121.886 39.7637 124.716 42.7637 124.716 45.7637V97.7012C124.716 100.701 121.716 103.701 118.716 103.701C115.886 103.701 113.056 100.701 113.056 97.7012Z" fill="#8F5FF4" fill-opacity="0.85"/>
</g>
<mask id="mask3_1_663" style="mask-type:luminance" maskUnits="userSpaceOnUse" x="0" y="0" width="372" height="114">
<path d="M371.6 0.700195H0.400391V113.7H371.6V0.700195Z" fill="white"/>
</mask>
<g mask="url(#mask3_1_663)">
<path d="M157.799 97.7012V57.3887C157.799 54.3887 160.799 51.3887 163.799 51.3887C166.629 51.3887 169.459 54.3887 169.459 57.3887V97.7012C169.459 100.701 166.459 103.701 163.459 103.701C160.629 103.701 157.799 100.701 157.799 97.7012Z" fill="#8F5FF4" fill-opacity="0.85"/>
</g>
<mask id="mask4_1_663" style="mask-type:luminance" maskUnits="userSpaceOnUse" x="0" y="0" width="372" height="114">
<path d="M371.6 0.700195H0.400391V113.7H371.6V0.700195Z" fill="white"/>
</mask>
<g mask="url(#mask4_1_663)">
<path d="M202.542 97.7012V74.8262C202.542 71.8262 205.542 68.8262 208.542 68.8262C211.372 68.8262 214.202 71.8262 214.202 74.8262V97.7012C214.202 100.701 211.202 103.701 208.202 103.701C205.372 103.701 202.542 100.701 202.542 97.7012Z" fill="#8F5FF4" fill-opacity="0.85"/>
</g>
<mask id="mask5_1_663" style="mask-type:luminance" maskUnits="userSpaceOnUse" x="0" y="0" width="372" height="114">
<path d="M371.6 0.700195H0.400391V113.7H371.6V0.700195Z" fill="white"/>
</mask>
<g mask="url(#mask5_1_663)">
<path d="M247.285 97.7012V39.9512C247.285 36.9512 250.285 33.9512 253.285 33.9512C256.115 33.9512 258.945 36.9512 258.945 39.9512V97.7012C258.945 100.701 255.945 103.701 252.945 103.701C250.115 103.701 247.285 100.701 247.285 97.7012Z" fill="#8F5FF4" fill-opacity="0.85"/>
</g>
<mask id="mask6_1_663" style="mask-type:luminance" maskUnits="userSpaceOnUse" x="0" y="0" width="372" height="114">
<path d="M371.6 0.700195H0.400391V113.7H371.6V0.700195Z" fill="white"/>
</mask>
<g mask="url(#mask6_1_663)">
<path d="M292.028 97.7012V22.5137C292.028 19.5137 295.028 16.5137 298.028 16.5137C300.858 16.5137 303.688 19.5137 303.688 22.5137V97.7012C303.688 100.701 300.688 103.701 297.688 103.701C294.858 103.701 292.028 100.701 292.028 97.7012Z" fill="#8F5FF4" fill-opacity="0.85"/>
</g>
<mask id="mask7_1_663" style="mask-type:luminance" maskUnits="userSpaceOnUse" x="0" y="0" width="372" height="114">
<path d="M371.6 0.700195H0.400391V113.7H371.6V0.700195Z" fill="white"/>
</mask>
<g mask="url(#mask7_1_663)">
<path d="M336.771 97.7012V51.5762C336.771 48.5762 339.771 45.5762 342.771 45.5762C345.601 45.5762 348.431 48.5762 348.431 51.5762V97.7012C348.431 100.701 345.431 103.701 342.431 103.701C339.601 103.701 336.771 100.701 336.771 97.7012Z" fill="#8F5FF4" fill-opacity="0.85"/>
</g>
</svg>
