<svg width="25" height="25" viewBox="0 0 25 25" fill="none" xmlns="http://www.w3.org/2000/svg">
<path d="M25 24.1279C25 24.3592 24.9225 24.581 24.7846 24.7446C24.6467 24.9081 24.4597 25 24.2647 25H0.735294C0.540282 25 0.353257 24.9081 0.215363 24.7446C0.0774682 24.581 0 24.3592 0 24.1279V0.872093C0 0.6408 0.0774682 0.418979 0.215363 0.25543C0.353257 0.0918809 0.540282 0 0.735294 0C0.930306 0 1.11733 0.0918809 1.25523 0.25543C1.39312 0.418979 1.47059 0.6408 1.47059 0.872093V17.3721L8.05882 9.55814C8.19669 9.39482 8.38358 9.30309 8.57843 9.30309C8.77328 9.30309 8.96017 9.39482 9.09804 9.55814L12.5 13.5916L19.549 5.23256H16.4216C16.2266 5.23256 16.0395 5.14068 15.9016 4.97713C15.7637 4.81358 15.6863 4.59176 15.6863 4.36047C15.6863 4.12917 15.7637 3.90735 15.9016 3.7438C16.0395 3.58025 16.2266 3.48837 16.4216 3.48837H21.3235C21.5185 3.48837 21.7056 3.58025 21.8435 3.7438C21.9814 3.90735 22.0588 4.12917 22.0588 4.36047V10.1744C22.0588 10.4057 21.9814 10.6275 21.8435 10.7911C21.7056 10.9546 21.5185 11.0465 21.3235 11.0465C21.1285 11.0465 20.9415 10.9546 20.8036 10.7911C20.6657 10.6275 20.5882 10.4057 20.5882 10.1744V6.46512L13.0196 15.4419C12.8817 15.6052 12.6949 15.6969 12.5 15.6969C12.3051 15.6969 12.1183 15.6052 11.9804 15.4419L8.57843 11.4084L1.47059 19.8387V23.2558H24.2647C24.4597 23.2558 24.6467 23.3477 24.7846 23.5112C24.9225 23.6748 25 23.8966 25 24.1279Z" fill="#008905"/>
</svg>
