<svg width="33" height="33" viewBox="0 0 33 33" fill="none" xmlns="http://www.w3.org/2000/svg">
<rect width="32.53" height="32.53" rx="5.46" fill="#15171C"/>
<rect width="32.53" height="32.53" rx="5.46" />
<g clip-path="url(#clip0_1_84)">
<path d="M21.3133 19.0447C22.2387 18.0147 22.7014 16.8166 22.7014 15.4503C22.7014 13.9369 22.1598 12.6494 21.0767 11.5879C19.9935 10.5264 18.6948 9.99563 17.1804 9.99563C16.255 9.99563 15.3822 10.2163 14.5619 10.6578C13.7416 11.0992 13.0791 11.7035 12.5743 12.4707C12.0696 13.238 11.7751 14.084 11.691 15.0089C11.6489 15.2611 11.6542 15.5764 11.7068 15.9548C11.7593 16.3331 11.8803 16.7903 12.0696 17.3263C12.2589 17.8623 12.5165 18.3616 12.8425 18.824C13.1685 19.2864 13.647 19.7068 14.278 20.0852C14.9089 20.4635 15.6451 20.7158 16.4864 20.8419C17.2015 20.947 17.9481 20.8944 18.7263 20.6843C18.8525 20.6212 18.9892 20.6212 19.1364 20.6843L21.2186 21.504L21.1555 19.5176C21.1345 19.3285 21.1871 19.1708 21.3133 19.0447ZM12.4481 21.8509C13.2474 22.0821 14.0256 22.0505 14.7827 21.7563C13.626 21.3148 12.6585 20.6159 11.8803 19.6595C11.1021 18.7031 10.6289 17.6153 10.4606 16.3962C10.0399 17.0058 9.82962 17.6784 9.82962 18.4141C9.82962 19.318 10.1346 20.1062 10.7445 20.7788C10.8707 20.905 10.9233 21.0626 10.9023 21.2518L10.8392 22.4499L11.9749 21.8824C12.1221 21.8193 12.2799 21.8088 12.4481 21.8509ZM22.449 19.7068L22.5437 22.4499C22.5437 22.6811 22.449 22.8598 22.2597 22.9859C22.0915 23.1331 21.8917 23.1646 21.6603 23.0805L18.8525 21.977C18.1164 22.1662 17.3697 22.2292 16.6126 22.1662C15.3506 23.1961 13.9204 23.5219 12.322 23.1436L10.3975 24.0895C10.1661 24.1946 9.95582 24.1841 9.76652 24.0579C9.5562 23.9108 9.46156 23.7216 9.48259 23.4904L9.60878 21.441C8.89368 20.5371 8.53613 19.5282 8.53613 18.4141C8.53613 17.9096 8.60975 17.4209 8.75697 16.948C8.9042 16.475 9.11978 16.0336 9.40372 15.6237C9.68765 15.2138 10.0294 14.8617 10.429 14.5675C10.6604 12.9069 11.4176 11.5143 12.7005 10.3898C13.9835 9.26519 15.4768 8.70291 17.1804 8.70291C19.0523 8.70291 20.656 9.35978 21.9916 10.6735C23.3271 11.9873 23.9949 13.5795 23.9949 15.4503C23.9949 17.0478 23.4796 18.4667 22.449 19.7068ZM19.5466 13.2432C19.7148 13.2432 19.862 13.3063 19.9882 13.4324C20.1144 13.5585 20.1775 13.7109 20.1775 13.8896C20.1775 14.0682 20.1144 14.2206 19.9882 14.3467C19.862 14.4729 19.7148 14.5359 19.5466 14.5359H15.0982C14.9089 14.5359 14.7512 14.4729 14.625 14.3467C14.4988 14.2206 14.4357 14.0682 14.4357 13.8896C14.4357 13.7109 14.4988 13.5585 14.625 13.4324C14.7512 13.3063 14.9089 13.2432 15.0982 13.2432H19.5466ZM19.5466 16.6169C19.7148 16.6169 19.862 16.68 19.9882 16.8061C20.1144 16.9322 20.1775 17.0846 20.1775 17.2633C20.1775 17.4419 20.1144 17.5943 19.9882 17.7204C19.862 17.8466 19.7148 17.9096 19.5466 17.9096H15.0982C14.9089 17.9096 14.7512 17.8466 14.625 17.7204C14.4988 17.5943 14.4357 17.4367 14.4357 17.2475C14.4357 17.1424 14.4673 17.0373 14.5303 16.9322C14.5934 16.8271 14.6723 16.7483 14.767 16.6957C14.8616 16.6432 14.972 16.6169 15.0982 16.6169H19.5466Z" fill="#F64E60"/>
</g>
<defs>
<clipPath id="clip0_1_84">
<rect width="16.89" height="16.9" fill="white" transform="matrix(1 0 0 -1 7.82031 24.7197)"/>
</clipPath>
</defs>
</svg>
