<svg width="24" height="24" viewBox="0 0 24 24" fill="none" xmlns="http://www.w3.org/2000/svg">
<g opacity="0.3">
<path d="M20.7598 10.0264L19.4707 8.7373C19.3848 8.65137 19.3203 8.55469 19.2773 8.44727C19.2344 8.33984 19.2129 8.22168 19.2129 8.09277C19.2129 8.07845 19.2129 8.07129 19.2129 8.07129V6.24512C19.1986 5.71517 19.0052 5.264 18.6328 4.8916C18.2604 4.51921 17.8164 4.33301 17.3008 4.33301C17.3008 4.33301 17.2972 4.33301 17.29 4.33301C17.2829 4.33301 17.2793 4.33301 17.2793 4.33301H15.4531C15.4388 4.33301 15.4316 4.33301 15.4316 4.33301C15.3027 4.33301 15.181 4.30794 15.0664 4.25781C14.9518 4.20768 14.8516 4.14681 14.7656 4.0752L13.498 2.76465C13.3262 2.59277 13.1221 2.45671 12.8857 2.35645C12.6494 2.25619 12.4023 2.20605 12.1445 2.20605C11.8867 2.20605 11.6396 2.25619 11.4033 2.35645C11.167 2.45671 10.9629 2.59277 10.791 2.76465L9.50195 4.05371C9.41602 4.13965 9.31934 4.2041 9.21191 4.24707C9.10449 4.29004 8.98633 4.31152 8.85742 4.31152C8.8431 4.31152 8.83594 4.31152 8.83594 4.31152H7.00977C6.47982 4.32585 6.02865 4.51921 5.65625 4.8916C5.28385 5.264 5.09766 5.70801 5.09766 6.22363C5.09766 6.22363 5.09766 6.22721 5.09766 6.23438C5.09766 6.24154 5.09766 6.24512 5.09766 6.24512V8.07129C5.09766 8.08561 5.09766 8.09277 5.09766 8.09277C5.09766 8.22168 5.07259 8.34342 5.02246 8.45801C4.97233 8.57259 4.91146 8.67285 4.83984 8.75879L3.5293 10.0264C3.35742 10.1982 3.22135 10.4023 3.12109 10.6387C3.02083 10.875 2.9707 11.1221 2.9707 11.3799C2.9707 11.6377 3.02083 11.8848 3.12109 12.1211C3.22135 12.3574 3.35742 12.5615 3.5293 12.7334L4.81836 14.0225C4.9043 14.1084 4.96875 14.2051 5.01172 14.3125C5.05469 14.4199 5.07617 14.5381 5.07617 14.667C5.07617 14.6813 5.07617 14.6885 5.07617 14.6885V16.5146C5.09049 17.0446 5.28385 17.4958 5.65625 17.8682C6.02865 18.2406 6.47266 18.4268 6.98828 18.4268C6.98828 18.4268 6.99186 18.4268 6.99902 18.4268C7.00619 18.4268 7.00977 18.4268 7.00977 18.4268H8.83594C8.85026 18.4268 8.85742 18.4268 8.85742 18.4268C8.98633 18.4268 9.10807 18.4518 9.22266 18.502C9.33724 18.5521 9.4375 18.613 9.52344 18.6846L10.8125 19.9951C10.9844 20.167 11.1849 20.3031 11.4141 20.4033C11.6432 20.5036 11.8867 20.5537 12.1445 20.5537C12.4167 20.5537 12.6673 20.5036 12.8965 20.4033C13.1257 20.3031 13.3262 20.167 13.498 19.9951L14.7871 18.7061C14.873 18.6201 14.9697 18.5557 15.0771 18.5127C15.1846 18.4697 15.3027 18.4482 15.4316 18.4482C15.446 18.4482 15.4531 18.4482 15.4531 18.4482H17.2793C17.8092 18.4482 18.2604 18.262 18.6328 17.8896C19.0052 17.5173 19.1914 17.0661 19.1914 16.5361V14.6885C19.1914 14.5596 19.2165 14.4378 19.2666 14.3232C19.3167 14.2087 19.3848 14.1084 19.4707 14.0225L20.7598 12.7334C20.9316 12.5615 21.0677 12.361 21.168 12.1318C21.2682 11.9027 21.3184 11.652 21.3184 11.3799C21.3184 11.1221 21.2682 10.875 21.168 10.6387C21.0677 10.4023 20.9316 10.1982 20.7598 10.0264Z" fill="#008000"/>
</g>
<path d="M10.9451 14.7988C10.8562 14.7988 10.7673 14.7803 10.6785 14.7433C10.5896 14.7063 10.5155 14.6507 10.4563 14.5767L8.2124 12.3105C8.13835 12.2365 8.0828 12.155 8.04578 12.0662C8.00875 11.9773 7.99023 11.8884 7.99023 11.7996C7.99023 11.5922 8.05688 11.4219 8.19019 11.2886C8.32349 11.1553 8.49382 11.0886 8.70117 11.0886C8.80485 11.0886 8.90112 11.1071 8.98999 11.1442C9.07886 11.1812 9.15291 11.2367 9.21216 11.3108L10.9673 13.0881L15.1218 9.02246C15.1811 8.96322 15.2551 8.91508 15.344 8.87805C15.4329 8.84102 15.5217 8.82251 15.6106 8.82251C15.7143 8.82251 15.8068 8.84102 15.8883 8.87805C15.9698 8.91508 16.0475 8.96322 16.1216 9.02246C16.1808 9.08171 16.229 9.15576 16.266 9.24463C16.303 9.3335 16.3215 9.42977 16.3215 9.53345C16.3215 9.62231 16.303 9.71118 16.266 9.80005C16.229 9.88892 16.1808 9.96297 16.1216 10.0222L11.4561 14.5989C11.3968 14.6581 11.3228 14.7063 11.2339 14.7433C11.145 14.7803 11.0562 14.7988 10.9673 14.7988C10.9673 14.7988 10.9636 14.7988 10.9562 14.7988C10.9488 14.7988 10.9451 14.7988 10.9451 14.7988Z" fill="#008000"/>
</svg>
