<svg width="28" height="25" viewBox="0 0 28 25" fill="none" xmlns="http://www.w3.org/2000/svg">
<path d="M14.7412 24.4277L8.00307 17.2825C7.55305 16.8053 7.29763 16.1475 7.29763 15.464V2.57948C7.29763 1.16077 8.39227 1.90735e-06 9.73017 1.90735e-06H20.6766C21.6496 1.90735e-06 22.5254 0.619076 22.9146 1.56059L26.8796 11.3755C27.9013 13.9292 26.1377 16.7666 23.5227 16.7666H16.6508L17.8062 22.6736C17.9278 23.3185 17.7454 23.9763 17.3075 24.4406C16.5899 25.1886 15.4466 25.1886 14.7412 24.4277ZM2.43254 1.90735e-06C3.77044 1.90735e-06 4.86509 1.16077 4.86509 2.57948V12.8974C4.86509 14.3161 3.77044 15.4769 2.43254 15.4769C1.09464 15.4769 0 14.3161 0 12.8974V2.57948C0 1.16077 1.09464 1.90735e-06 2.43254 1.90735e-06Z" fill="#008905"/>
</svg>
