<svg width="35" height="35" viewBox="0 0 35 35" fill="none" xmlns="http://www.w3.org/2000/svg">
<path d="M17.5 0C27.1652 0 35 7.83475 35 17.5C35 27.1652 27.1652 35 17.5 35C7.83475 35 0 27.1652 0 17.5C0 7.83475 7.83475 0 17.5 0ZM17.5 2.44125C13.5062 2.44125 9.67592 4.02779 6.85186 6.85186C4.02779 9.67592 2.44125 13.5062 2.44125 17.5C2.44125 21.4938 4.02779 25.3241 6.85186 28.1481C9.67592 30.9722 13.5062 32.5588 17.5 32.5588C21.4938 32.5588 25.3241 30.9722 28.1481 28.1481C30.9722 25.3241 32.5588 21.4938 32.5588 17.5C32.5588 13.5062 30.9722 9.67592 28.1481 6.85186C25.3241 4.02779 21.4938 2.44125 17.5 2.44125ZM15.8725 9.76675C16.5462 9.76675 17.0923 10.3145 17.0923 10.9882V19.5352H25.6392C25.955 19.5472 26.2538 19.681 26.4729 19.9086C26.6921 20.1362 26.8145 20.4399 26.8145 20.7559C26.8145 21.0718 26.6921 21.3755 26.4729 21.6031C26.2538 21.8307 25.955 21.9645 25.6392 21.9765H15.8725C15.5485 21.9765 15.2378 21.8478 15.0088 21.6187C14.7797 21.3897 14.651 21.079 14.651 20.755V10.99C14.651 10.3145 15.197 9.76675 15.8725 9.76675Z" fill="#03A9F4"/>
</svg>
