<svg width="8" height="9" viewBox="0 0 8 9" fill="none" xmlns="http://www.w3.org/2000/svg">
<path d="M6.69125 8.58594C6.39275 8.58594 6.14896 8.47151 5.95991 8.24265L3.61663 5.37698C3.47732 5.19788 3.40767 4.99639 3.40767 4.7725C3.40767 4.54862 3.47732 4.35211 3.61663 4.18295L5.97484 1.28743C6.13404 1.08843 6.34548 0.976485 6.60916 0.951609C6.87285 0.926733 7.10419 0.996386 7.30319 1.16056C7.5022 1.32474 7.61663 1.53619 7.64648 1.79489C7.67633 2.0536 7.60668 2.28245 7.43752 2.48146L5.57185 4.77997L7.4226 7.04862C7.5818 7.24763 7.64896 7.47648 7.62409 7.73519C7.59921 7.9939 7.48727 8.20783 7.28827 8.37698C7.10916 8.51629 6.91016 8.58594 6.69125 8.58594ZM2.63155 8.24265L0.303193 5.37698C0.16389 5.19788 0.0942383 4.99639 0.0942383 4.7725C0.0942383 4.54862 0.16389 4.35211 0.303193 4.18295L2.6614 1.28743C2.82061 1.08843 3.02956 0.976485 3.28827 0.951609C3.54697 0.926733 3.77832 0.996386 3.9823 1.16056C4.18628 1.32474 4.30071 1.53619 4.32558 1.79489C4.35046 2.0536 4.28329 2.28245 4.12409 2.48146L2.25842 4.77997L4.10916 7.04862C4.26837 7.24763 4.33553 7.47648 4.31066 7.73519C4.28578 7.9939 4.17384 8.20783 3.97484 8.37698C3.79573 8.51629 3.59673 8.58594 3.37782 8.58594C3.06936 8.58594 2.82061 8.47151 2.63155 8.24265Z" fill="white"/>
</svg>
