<svg width="200" height="282" viewBox="0 0 200 282" fill="none" xmlns="http://www.w3.org/2000/svg">
<g clip-path="url(#clip0_1_745)">
<path d="M31.1235 142.999C22.5678 139.163 17.0527 130.139 15.8094 120.841C14.5661 111.542 17.1102 102.075 21.226 93.651C27.2375 81.3406 38.2882 69.9248 52.0019 69.5473C57.8412 69.3872 63.6107 71.2584 69.4499 70.9793C78.7647 70.5321 86.8651 64.7667 94.3621 59.227C101.859 53.6873 109.956 47.9178 119.274 47.4706C128.593 47.0233 138.848 54.5696 137.489 63.7942C137.042 66.8389 135.417 69.8673 136.213 72.8465C137.666 78.2631 145.45 78.62 150.531 76.2441C155.61 73.8682 160.497 69.8714 166.066 70.5485C171.335 71.1927 175.274 76.0882 176.509 81.2463C177.745 86.4043 176.858 91.8127 175.968 97.0405L170.761 127.513C169.53 134.682 168.06 142.351 162.877 147.46C157.272 152.983 148.782 154.091 140.933 154.665C106.533 157.185 71.9505 155.107 38.0994 148.489" fill="#F4F6F9"/>
<path d="M191.044 148.966C191.225 149.531 191.309 150.122 191.294 150.714C191.258 151.686 190.901 152.617 190.28 153.365C190.293 154.074 190.071 154.766 189.649 155.335C189.371 155.673 189.014 155.937 188.609 156.103C188.205 156.27 187.766 156.335 187.331 156.291C187.695 157.563 187.573 159.023 186.723 160.033C185.873 161.042 183.875 161.1 182.841 160.197L184.63 156.714C183.657 155.836 182.826 154.813 182.168 153.681C181.877 153.286 181.755 152.791 181.827 152.307C182.012 151.662 182.829 151.379 183.469 151.551C183.543 151.571 183.615 151.596 183.686 151.625C183.444 151.416 183.194 151.214 182.944 151.022C182.164 150.414 181.368 149.734 181.06 148.794C180.753 147.854 181.175 146.607 182.14 146.393C182.693 146.327 183.253 146.442 183.736 146.721C184.096 146.89 184.449 147.066 184.803 147.251C184.347 146.254 183.895 145.261 183.44 144.268C183.325 144.087 183.25 143.883 183.22 143.671C183.191 143.458 183.207 143.242 183.268 143.037C183.376 142.854 183.538 142.71 183.731 142.624C183.925 142.538 184.14 142.514 184.347 142.556C184.759 142.652 185.147 142.834 185.483 143.09C186.887 144.009 188.302 144.941 189.427 146.184C189.841 146.638 190.202 147.137 190.502 147.674C190.561 146.441 190.242 145.219 189.587 144.173C188.813 142.986 187.927 141.876 186.941 140.858C186.346 140.185 185.759 139.159 186.338 138.469C186.797 137.915 187.675 138.038 188.34 138.318C189.325 138.727 190.2 139.36 190.897 140.166C191.595 140.973 192.095 141.931 192.358 142.965C192.62 143.998 192.638 145.079 192.41 146.121C192.182 147.162 191.715 148.137 191.044 148.966ZM74.251 198.593C73.8294 198.369 73.4273 198.11 73.0487 197.818C73.2329 198.425 73.312 199.059 73.2826 199.693C73.1844 200.915 72.9264 202.118 72.5152 203.272C72.122 204.729 71.5716 206.139 70.8738 207.478C70.1667 208.825 69.0383 209.905 67.6609 210.551C66.4954 211.043 65.1987 211.093 63.9389 211.101C60.4033 211.129 56.8702 210.897 53.3684 210.407L54.2917 208.811C52.2112 211.721 49.4332 214.146 46.3064 215.356C40.381 217.621 36.0477 214.014 31.3328 210.264C27.9269 207.551 24.64 204.519 20.5899 202.927C15.0051 200.723 8.0579 201.179 3.97085 196.8C-0.842526 191.646 1.45952 183.345 4.27861 176.882C12.5405 157.956 22.9011 140.016 35.1655 123.401L29.0348 96.9504C24.2625 96.4581 14.5701 95.3747 14.5701 95.3747C19.0182 87.853 23.803 79.207 28.8009 70.6801C32.5679 64.2499 40.7748 59.4898 47.9067 63.7041C48.4378 64.0178 48.9404 64.3776 49.4086 64.7793C51.8215 66.8555 53.274 69.8594 54.0947 72.9328C54.8826 75.8668 55.1534 78.9034 55.5433 81.9153C56.806 81.4485 58.1818 81.3812 59.4841 81.7225C60.7863 82.0637 61.9522 82.7971 62.8238 83.8231C63.6953 84.8492 64.2304 86.1184 64.3565 87.4588C64.4826 88.7991 64.1935 90.1458 63.5286 91.3164C62.7 92.7541 61.3637 93.8299 59.7822 94.3324C63.2126 99.8516 66.4503 104.722 69.9341 109.774L70.0655 109.519C82.2076 111.464 94.2513 115.613 104.657 122.166C111.798 152.051 100.292 177.169 74.251 198.593Z" fill="white"/>
<path d="M191.898 124.521L130.259 92.1458C126.054 89.9371 120.854 91.5556 118.646 95.7609L70.7506 186.95C68.5418 191.155 70.1604 196.355 74.3657 198.563L136.004 230.938C140.21 233.147 145.409 231.528 147.618 227.322L195.514 136.134C197.723 131.929 196.103 126.729 191.898 124.521Z" fill="white"/>
<path d="M108.975 138.449C119.626 138.449 128.26 129.814 128.26 119.162C128.26 108.511 119.626 99.876 108.975 99.876C98.323 99.876 89.6882 108.511 89.6882 119.162C89.6882 129.814 98.323 138.449 108.975 138.449Z" fill="#FEAABC"/>
<path d="M147.223 180.095L154.674 168.093C155.462 166.824 156.271 165.507 156.501 164.03C156.731 162.553 156.238 160.853 154.942 160.107C153.571 159.319 151.802 159.824 150.468 160.678C149.135 161.531 148.007 162.705 146.583 163.386C145.159 164.067 143.214 164.108 142.212 162.881C141.126 161.551 141.392 159.102 139.751 158.527C138.839 158.207 137.875 158.737 136.94 158.978C136.004 159.22 134.678 158.876 134.674 157.908C131.453 161.56 129.66 165.963 127.017 170.045" fill="#9ED5F0"/>
<path d="M106.709 119.52C107.054 113.373 107.4 107.227 107.748 101.083C107.793 100.295 109.024 100.291 108.979 101.083C108.645 106.992 108.311 112.902 107.978 118.814H108.002L108.043 118.842C114.41 117.729 120.831 116.956 127.28 116.528C128.072 116.479 128.068 117.71 127.28 117.759C121.297 118.157 115.339 118.855 109.426 119.852L123.242 129.922C123.878 130.386 123.263 131.452 122.623 130.985L107.592 120.028C107.502 120.082 107.401 120.11 107.297 120.111C107.193 120.112 107.091 120.085 107.001 120.033C106.91 119.981 106.836 119.906 106.785 119.816C106.734 119.726 106.707 119.623 106.709 119.52ZM183.773 155.847L146.55 226.748C145.638 228.475 144.078 229.772 142.212 230.353C140.347 230.934 138.327 230.751 136.595 229.845L75.1578 197.58C74.5012 197.662 73.8324 197.707 73.1594 197.732C73.1617 197.75 73.1617 197.768 73.1594 197.785C73.5473 198.078 73.9591 198.34 74.3905 198.565L136.029 230.933C137.028 231.459 138.122 231.783 139.247 231.886C140.372 231.989 141.506 231.869 142.585 231.534C143.663 231.198 144.665 230.652 145.533 229.929C146.401 229.206 147.118 228.318 147.641 227.317L184.289 157.539L184.63 156.717C184.33 156.448 184.044 156.163 183.773 155.864V155.847ZM191.909 124.497L130.271 92.1412C129.272 91.615 128.178 91.2912 127.053 91.1881C125.929 91.0851 124.794 91.2049 123.716 91.5407C122.637 91.8765 121.635 92.4216 120.768 93.145C119.899 93.8683 119.183 94.7557 118.658 95.7563L115.831 101.136C116.217 101.284 116.599 101.444 116.972 101.616L119.746 96.3309C120.373 95.1403 121.311 94.1435 122.463 93.4478C123.614 92.7522 124.934 92.384 126.279 92.3832C127.472 92.382 128.647 92.6737 129.701 93.2327L191.34 125.601C193.067 126.513 194.364 128.073 194.945 129.938C195.526 131.804 195.343 133.824 194.437 135.556L191.537 141.079C191.809 141.515 192.03 141.98 192.197 142.466L195.529 136.126C196.585 134.106 196.797 131.749 196.119 129.572C195.44 127.396 193.927 125.577 191.909 124.513V124.497ZM83.3647 176.816C90.751 181.377 98.2454 185.744 105.848 189.918C107.995 191.097 110.151 192.26 112.314 193.407C113.016 193.776 113.64 192.713 112.939 192.344C105.278 188.281 97.7214 184.025 90.2668 179.574C88.1603 178.312 86.0663 177.039 83.9843 175.754C83.3114 175.327 82.7123 176.402 83.3647 176.816ZM86.6476 172.224L95.7531 177.173C96.4467 177.551 97.0704 176.488 96.3728 176.11L87.2672 171.162C86.5572 170.78 85.9376 171.843 86.6352 172.224H86.6476ZM91.4609 166.554C96.9131 169.478 102.484 172.167 108.175 174.621C108.896 174.929 109.525 173.87 108.798 173.554C103.102 171.108 97.5259 168.416 92.0682 165.478C91.3706 165.113 90.7469 166.176 91.4486 166.554H91.4609ZM94.6124 161.937L98.2808 164.194C98.4222 164.275 98.5899 164.298 98.7479 164.258C98.906 164.217 99.0417 164.116 99.1262 163.977C99.2042 163.834 99.2247 163.667 99.1835 163.509C99.1423 163.353 99.0425 163.217 98.9046 163.132L95.2361 160.874C95.0943 160.793 94.9263 160.771 94.7682 160.812C94.6101 160.854 94.4746 160.956 94.3908 161.095C94.313 161.238 94.2926 161.404 94.3338 161.561C94.375 161.717 94.4747 161.852 94.6124 161.937ZM124.158 167.157C123.464 166.775 122.84 167.838 123.538 168.219L126.906 170.062C125.774 172.013 124.655 173.97 123.55 175.934C123.165 176.627 124.227 177.251 124.613 176.558C125.721 174.58 126.845 172.612 127.986 170.653L147.728 181.482L153.472 184.621L148.549 184.942C147.761 184.991 147.757 186.221 148.549 186.172L157.601 185.586C158.076 185.553 158.487 184.896 158.036 184.535C156.242 183.089 154.767 181.288 153.702 179.245C153.333 178.544 152.27 179.168 152.639 179.869C153.532 181.568 154.694 183.108 156.082 184.432L155.442 184.473C155.422 184.399 155.386 184.33 155.337 184.269C155.288 184.209 155.228 184.16 155.159 184.125L130.949 170.882L128.589 169.582C131.691 164.285 134.907 159.058 138.236 153.898C139.604 151.798 140.982 149.71 142.369 147.636C142.416 147.569 142.447 147.492 142.461 147.411C142.474 147.33 142.469 147.247 142.446 147.168C142.423 147.089 142.382 147.016 142.327 146.955C142.271 146.894 142.203 146.847 142.127 146.816L143.358 145.609C142.616 148.367 141.87 151.126 141.122 153.886C141.083 154.041 141.106 154.206 141.188 154.344C141.269 154.482 141.4 154.583 141.555 154.626C141.709 154.668 141.874 154.649 142.014 154.573C142.155 154.495 142.26 154.368 142.307 154.214C143.251 150.73 144.193 147.245 145.135 143.763C145.168 143.632 145.157 143.495 145.105 143.37C145.053 143.246 144.962 143.143 144.845 143.075C144.729 143.007 144.594 142.979 144.46 142.995C144.327 143.011 144.201 143.07 144.104 143.164L136.262 150.813C135.692 151.367 136.562 152.236 137.133 151.682L140.202 148.695C135.779 155.338 131.547 162.105 127.505 168.999L124.158 167.157ZM189.518 128.584L161.614 114.846L133.809 101.152C131.573 100.053 129.057 98.5508 126.463 99.1006C124.432 99.511 122.614 101.513 123.16 103.66C123.353 104.427 124.543 104.103 124.346 103.335C123.858 101.411 126.11 100.172 127.728 100.229C128.837 100.32 129.919 100.625 130.911 101.128C131.987 101.616 133.041 102.162 134.104 102.683L147.412 109.249L173.933 122.31L188.893 129.676C189.579 130 190.223 128.957 189.492 128.588L189.518 128.584ZM170.732 135.113C170.369 134.691 169.908 134.364 169.391 134.16C168.873 133.956 168.313 133.882 167.761 133.943C167.241 134.026 166.758 134.263 166.374 134.624C166.029 134.928 165.651 135.445 165.172 135.084C164.351 134.456 164.449 133.188 164.313 132.281C164.166 131.305 163.781 130.279 162.8 129.889C161.819 129.499 160.818 129.992 159.928 130.402C159.571 130.615 159.165 130.73 158.75 130.734C158.306 130.665 158.147 130.254 158.089 129.86C157.938 128.843 158.151 127.767 157.572 126.848C157.23 126.362 156.767 125.973 156.229 125.72C155.69 125.468 155.095 125.36 154.502 125.408C152.988 125.494 151.712 126.397 150.543 127.279C149.914 127.747 150.543 128.818 151.163 128.342C152.106 127.632 153.157 126.795 154.367 126.647C155.245 126.545 156.349 126.885 156.665 127.792C156.981 128.699 156.693 129.7 157.006 130.611C157.152 131.056 157.452 131.433 157.853 131.675C158.253 131.918 158.727 132.009 159.189 131.932C160.111 131.801 160.859 131.161 161.762 130.997C162.763 130.812 163.029 131.818 163.141 132.61C163.28 133.603 163.28 134.563 163.866 135.429C164.453 136.294 165.373 136.738 166.329 136.249C166.886 135.966 167.223 135.322 167.843 135.17C168.106 135.123 168.376 135.129 168.637 135.188C168.898 135.247 169.145 135.358 169.361 135.515C170.502 136.262 170.793 137.817 171.064 139.052C171.236 139.828 172.422 139.499 172.25 138.724C171.947 137.468 171.618 136.139 170.732 135.113ZM160.883 141.403C160.976 141.698 161.162 141.955 161.412 142.137C161.663 142.318 161.966 142.413 162.274 142.409C163.029 142.409 163.592 141.847 164.26 141.588C165.405 141.153 166.669 141.678 167.724 142.126C169.124 142.721 170.51 143.402 172.057 143.426C172.22 143.426 172.377 143.362 172.492 143.246C172.608 143.131 172.672 142.974 172.672 142.811C172.672 142.648 172.608 142.491 172.492 142.376C172.377 142.26 172.22 142.195 172.057 142.195C169.321 142.154 166.936 139.536 164.122 140.341C163.799 140.442 163.488 140.579 163.198 140.751C162.993 140.866 162.426 141.309 162.164 141.161C161.803 140.964 162.32 139.906 162.406 139.639C162.845 138.289 162.504 136.766 161.142 136.073C160.787 135.911 160.402 135.827 160.012 135.826C159.621 135.825 159.236 135.908 158.88 136.068C158.525 136.229 158.207 136.464 157.95 136.757C157.692 137.05 157.5 137.394 157.387 137.768C157.154 138.523 158.34 138.847 158.577 138.092C158.66 137.808 158.828 137.557 159.059 137.373C159.289 137.189 159.572 137.08 159.866 137.062C160.161 137.043 160.454 137.116 160.705 137.27C160.958 137.425 161.156 137.653 161.273 137.924C161.778 139.085 160.539 140.226 160.883 141.42V141.403ZM98.0265 135.039L75.3261 178.305C75.7979 178.277 76.2699 178.26 76.7417 178.252L99.081 135.712C98.7158 135.498 98.3671 135.273 98.0265 135.039Z" fill="#3F4254"/>
<path d="M191.356 139.795C190.351 138.605 188.483 137.181 186.842 137.517C186.432 137.592 186.065 137.819 185.817 138.154C185.569 138.488 185.457 138.905 185.504 139.319C185.599 140.279 186.267 141.026 186.879 141.715C187.835 142.782 188.931 144.009 189.505 145.384C188.307 144.225 186.971 143.22 185.525 142.392C184.794 141.949 183.858 141.703 183.125 142.273C182.27 142.93 182.619 143.943 182.989 144.76C183.174 145.17 183.362 145.58 183.547 145.991C183.213 145.83 182.847 145.75 182.476 145.758C182.106 145.766 181.744 145.861 181.417 146.036C181.064 146.28 180.781 146.61 180.592 146.995C180.404 147.38 180.318 147.807 180.342 148.235C180.387 149.553 181.208 150.365 182.127 151.108C181.921 151.203 181.737 151.339 181.585 151.507C181.433 151.675 181.318 151.873 181.245 152.089C180.933 153.065 181.626 154.05 182.16 154.813C182.752 155.666 183.44 156.448 184.212 157.144C184.794 157.673 185.668 156.807 185.081 156.274C184.076 155.394 183.235 154.344 182.595 153.172C182.357 152.721 182.315 152.24 182.906 152.13C183.074 152.101 183.247 152.117 183.407 152.175C183.764 152.322 184.083 152.546 184.343 152.831C184.606 153.094 184.884 153.397 185.164 153.722C185.493 154.109 185.794 154.521 186.062 154.953C186.435 155.529 186.711 156.16 186.883 156.824C187.005 157.279 187.024 157.756 186.939 158.219C186.854 158.683 186.666 159.122 186.391 159.504C185.787 160.324 184.392 160.776 183.518 160.065C182.91 159.565 182.037 160.431 182.648 160.936C183.238 161.392 183.966 161.635 184.711 161.623C185.457 161.611 186.177 161.346 186.752 160.87C187.938 159.931 188.298 158.326 188.097 156.873C188.86 156.766 189.559 156.389 190.067 155.81C190.582 155.179 190.87 154.393 190.888 153.578C191.371 152.955 191.696 152.224 191.836 151.448C191.968 150.658 191.928 149.849 191.716 149.076C192.697 147.71 193.195 146.055 193.13 144.374C193.064 142.692 192.44 141.081 191.356 139.795ZM188.172 155.63C188.049 155.665 187.925 155.689 187.798 155.7C187.203 154.267 186.302 152.982 185.16 151.933C184.806 151.576 184.388 151.29 183.929 151.088C183.254 150.595 182.633 150.032 182.077 149.409C181.856 149.173 181.701 148.881 181.629 148.566C181.557 148.25 181.57 147.921 181.667 147.611C181.984 146.791 182.755 146.976 183.415 147.275C183.715 147.407 184.015 147.55 184.319 147.686C184.937 147.989 185.54 148.323 186.124 148.687C186.769 149.089 187.378 149.544 187.946 150.049C188.824 150.841 189.587 151.933 189.669 153.127C189.691 153.448 189.662 153.771 189.583 154.082C189.506 154.391 189.367 154.68 189.173 154.932C188.924 155.267 188.572 155.512 188.172 155.63ZM189.813 150.296C188.672 148.785 186.941 147.698 185.262 146.824C185.18 146.651 185.102 146.479 185.024 146.303C184.65 145.482 184.203 144.661 183.903 143.841C183.568 142.93 184.49 143.237 184.971 143.537C186.682 144.608 188.742 145.978 189.866 147.8C190.07 148.132 190.24 148.482 190.375 148.846L190.355 148.871H190.387C190.525 149.251 190.615 149.647 190.658 150.049C190.679 150.225 190.69 150.401 190.691 150.578C190.69 150.928 190.642 151.276 190.548 151.612C190.367 151.129 190.12 150.673 189.813 150.258V150.296ZM191.101 147.554C191.112 146.087 190.666 144.653 189.825 143.451C189.306 142.698 188.736 141.982 188.118 141.309C187.634 140.759 186.887 140.123 186.744 139.36C186.596 138.539 187.658 138.756 188.118 138.949C188.811 139.238 189.443 139.656 189.981 140.18C191.078 141.208 191.769 142.596 191.927 144.091C192.036 145.347 191.774 146.607 191.171 147.715C191.139 147.603 191.113 147.563 191.089 147.518L191.101 147.554ZM57.9847 128.896C57.8909 129.554 58.003 130.224 58.3057 130.816C58.6086 131.407 59.0869 131.89 59.6754 132.199C60.2183 132.51 60.8484 132.633 61.4684 132.55C62.0885 132.467 62.6639 132.182 63.1058 131.739C63.5044 131.326 63.792 130.818 63.9419 130.264C64.0919 129.709 64.0993 129.126 63.9635 128.567C63.7997 128.011 63.4715 127.517 63.0217 127.151C62.572 126.785 62.0219 126.563 61.4439 126.516C60.8166 126.435 60.1794 126.542 59.6132 126.824C59.0469 127.106 58.5773 127.55 58.2637 128.1C58.1889 128.248 58.1714 128.419 58.2145 128.58C58.1017 128.639 58.0153 128.739 57.9724 128.859L57.9847 128.896ZM59.3265 128.707C59.3758 128.617 59.4292 128.531 59.4825 128.444V128.424C59.5153 128.387 59.5481 128.346 59.585 128.309C59.6445 128.246 59.709 128.189 59.7779 128.137L59.8436 128.091L60.0119 127.985L60.1472 127.915L60.2252 127.886C60.3071 127.855 60.3908 127.827 60.4755 127.804C60.5617 127.78 60.6478 127.763 60.7341 127.747H60.812C60.8803 127.743 60.9488 127.743 61.0172 127.747H61.3208H61.3742L61.5219 127.775C61.6041 127.791 61.6851 127.813 61.764 127.841L61.8584 127.874L61.9856 127.936C62.0731 127.983 62.158 128.035 62.24 128.091H62.2605C62.2934 128.128 62.3344 128.161 62.3714 128.198L62.4739 128.309V128.329C62.5382 128.429 62.5972 128.532 62.6504 128.637V128.662C62.6678 128.709 62.6829 128.757 62.6955 128.805C62.719 128.889 62.7382 128.974 62.753 129.06C62.7544 129.086 62.7544 129.112 62.753 129.138C62.753 129.187 62.753 129.24 62.753 129.29C62.7523 129.395 62.7454 129.501 62.7325 129.606C62.7325 129.63 62.7078 129.762 62.6996 129.786C62.679 129.887 62.6503 129.986 62.6135 130.082C62.605 130.114 62.594 130.145 62.5806 130.176L62.5396 130.266C62.4858 130.374 62.4255 130.478 62.359 130.578L62.2975 130.664L62.24 130.738C62.1731 130.813 62.1018 130.885 62.0266 130.952L61.9487 131.013L61.8708 131.066L61.7394 131.144L61.6163 131.202C61.5308 131.235 61.443 131.263 61.3537 131.284L61.2429 131.305H61.1116C61.0268 131.311 60.9418 131.311 60.8572 131.305H60.7546C60.6782 131.288 60.6028 131.268 60.5289 131.243L60.3894 131.198C60.3414 131.171 60.2921 131.146 60.2416 131.124C60.1261 131.063 60.0151 130.995 59.9093 130.919L59.8271 130.853C59.7698 130.8 59.7081 130.746 59.6549 130.689C59.6015 130.631 59.5728 130.603 59.5359 130.558L59.4825 130.496C59.4733 130.479 59.4623 130.462 59.4497 130.447C59.3717 130.332 59.306 130.213 59.2404 130.094C59.2322 130.082 59.2252 130.07 59.2199 130.057C59.2199 130.057 59.2199 130.057 59.2199 130.024C59.2199 129.991 59.1707 129.876 59.1502 129.803C59.1296 129.729 59.1214 129.688 59.1091 129.634V129.597C59.1068 129.567 59.1068 129.537 59.1091 129.507C59.1091 129.45 59.1091 129.388 59.1091 129.331C59.1091 129.273 59.1378 129.076 59.1091 129.199C59.1237 129.091 59.1154 128.98 59.0844 128.875C59.1837 128.834 59.2672 128.762 59.3224 128.67L59.3265 128.707ZM87.6364 131.83C87.2877 133.664 85.4739 134.747 83.7217 134.677C83.8589 135.102 83.9106 135.55 83.8735 135.995C83.7094 138.108 81.7848 139.992 79.6141 139.015C78.759 138.611 78.095 137.89 77.7634 137.004C77.5225 137.196 77.2594 137.359 76.9797 137.488C74.5586 138.592 71.8545 136.696 71.756 134.099C71.6616 131.592 74.4232 129.753 76.7335 130.521C77.4844 130.767 77.1438 131.957 76.4052 131.707C75.9102 131.55 75.3806 131.541 74.8803 131.679C74.3801 131.818 73.9306 132.098 73.5861 132.486C73.2461 132.87 73.0409 133.354 73.0016 133.865C72.9624 134.377 73.0913 134.887 73.3687 135.318C73.6275 135.793 74.0377 136.169 74.5342 136.385C75.0307 136.602 75.5851 136.646 76.1098 136.512C76.6683 136.341 77.1582 135.998 77.509 135.531C77.5252 134.838 77.7771 134.171 78.223 133.639C78.3099 133.555 78.4193 133.498 78.538 133.476C78.6567 133.453 78.7794 133.466 78.8911 133.512C79.0026 133.558 79.0983 133.636 79.1663 133.736C79.2343 133.836 79.2716 133.953 79.2736 134.074C79.2513 134.719 79.0648 135.348 78.7319 135.9C78.8837 137.131 79.9917 138.362 81.2186 137.993C82.7574 137.558 83.217 134.973 81.8546 134.087C81.2021 133.648 81.8094 132.593 82.4743 133.024C82.9224 133.315 83.447 133.467 83.9817 133.461C84.5164 133.454 85.037 133.289 85.478 132.987C85.9018 132.688 86.2162 132.259 86.3733 131.765C86.5304 131.271 86.5214 130.738 86.3479 130.25C86.2112 129.743 85.9127 129.295 85.4979 128.974C85.0831 128.652 84.5747 128.475 84.05 128.469C83.5019 128.477 82.9693 128.652 82.5228 128.97C82.0765 129.288 81.7375 129.734 81.551 130.25C81.3089 131.001 80.1394 130.685 80.365 129.922C80.5817 129.183 80.597 128.4 80.4095 127.653C80.2219 126.906 79.8382 126.223 79.2981 125.674C77.5008 126.992 77.5583 130.25 79.5854 131.354C80.283 131.731 79.6592 132.794 78.9616 132.416C76.0236 130.812 76.0646 125.9 79.0601 124.374C79.179 124.31 79.3148 124.285 79.4486 124.301C79.5825 124.318 79.7077 124.377 79.8069 124.468C80.886 125.371 81.5778 126.653 81.7397 128.05C82.2227 127.683 82.7847 127.433 83.3811 127.32C85.995 126.828 88.137 129.261 87.6364 131.83ZM81.3499 190.099C81.5202 189.984 81.6736 189.846 81.8053 189.689C82.0801 189.396 82.2557 189.025 82.3072 188.627C82.3588 188.229 82.2837 187.825 82.0926 187.472C81.6822 186.751 80.8041 186.369 80.1065 185.991C78.6305 185.136 77.0459 184.484 75.3958 184.05C74.2942 183.799 73.1635 183.7 72.035 183.755C72.7613 182.86 74.2714 182.614 75.3588 182.622C77.0577 182.643 79.4911 183.181 80.8164 181.765C82.1418 180.349 80.8821 178.379 79.3146 177.874C78.329 177.631 77.3099 177.552 76.2985 177.641C75.1711 177.676 74.0463 177.774 72.9296 177.932C71.0707 178.199 69.1749 178.679 67.7428 179.984C66.4707 181.129 65.7691 182.778 65.412 184.424C64.6405 187.973 65.5721 192.102 63.5532 195.315C62.5849 196.775 61.1172 197.833 59.425 198.29C59.2732 198.335 59.1214 198.368 58.9654 198.4C59.0927 196.986 59.072 195.563 58.9039 194.153C58.4991 190.815 57.3583 187.608 55.5636 184.765C54.9813 183.854 54.3326 182.989 53.6227 182.175C55.0138 180.258 55.8632 177.829 56.6101 175.721C58.0546 171.64 59.0709 167.421 59.6425 163.131C59.9268 161.025 60.1049 158.907 60.176 156.783C60.2047 155.991 58.9737 155.991 58.9449 156.783C58.7657 162.095 57.9066 167.361 56.3885 172.454C55.7049 174.913 54.8083 177.308 53.709 179.61C53.4262 180.179 53.1054 180.727 52.7486 181.252C52.6379 181.141 52.5353 181.026 52.4245 180.916C51.1935 179.738 49.8024 178.548 48.2144 177.916C46.733 177.329 44.9316 177.395 43.877 178.716C43.503 179.219 43.2454 179.8 43.1226 180.415C42.9999 181.03 43.0151 181.665 43.1671 182.273C43.9057 185.577 47.7753 186.135 50.4508 184.913C51.3531 184.489 52.1631 183.893 52.8349 183.156C54.0578 184.602 55.0806 186.205 55.8756 187.924C57.6616 191.727 58.2415 195.986 57.5375 200.128C56.7217 204.351 54.6341 208.224 51.5546 211.227C48.4195 214.306 44.0904 216.41 39.7037 214.884C37.5987 214.15 35.7316 212.807 33.9794 211.461C32.0549 209.98 30.2042 208.413 28.3002 206.911C26.456 205.378 24.4498 204.052 22.3174 202.955C20.3931 202.07 18.3712 201.416 16.2935 201.006C12.4034 200.149 7.9306 199.635 4.92276 196.747C1.80002 193.747 1.53739 189.261 2.31705 185.256C3.1993 180.694 5.23052 176.45 7.15915 172.257C11.4908 162.843 16.3486 153.68 21.7101 144.813C24.391 140.379 27.195 136.023 30.1221 131.748C31.583 129.608 33.0753 127.491 34.599 125.395C34.8494 125.055 35.3131 124.575 35.6126 124.107C40.9569 125.055 46.4364 124.928 51.7311 123.734C53.5432 123.291 55.3174 122.705 57.0368 121.981C56.9852 122.07 56.9596 122.171 56.9629 122.273C57.0306 124.008 56.6874 125.734 55.9615 127.312C55.2356 128.889 54.1474 130.272 52.7856 131.35C51.4198 132.393 49.8187 133.085 48.123 133.364C46.4273 133.644 44.6889 133.503 43.0604 132.954C41.1889 132.36 39.5176 131.261 38.2307 129.778C37.7095 129.179 36.8436 130.053 37.3566 130.648C38.6205 132.072 40.2003 133.181 41.9697 133.885C43.739 134.589 45.6485 134.869 47.5455 134.702C49.4534 134.511 51.2852 133.854 52.8805 132.79C54.4759 131.727 55.786 130.288 56.6962 128.6C57.5965 126.976 58.1091 125.166 58.194 123.311C60.6697 124.49 63.4655 124.817 66.1465 124.242C68.3501 123.733 70.3693 122.623 71.9797 121.035C73.5901 119.447 74.7286 117.444 75.2686 115.248C75.4532 114.476 74.2672 114.148 74.0826 114.919C73.4692 117.397 72.0252 119.59 69.9915 121.132C68.2573 122.417 66.1824 123.162 64.0268 123.273C61.8713 123.384 59.7309 122.856 57.874 121.756C57.8267 121.728 57.7756 121.707 57.7221 121.694C60.6126 120.432 63.3216 118.79 65.7772 116.811C68.0674 114.94 70.1256 112.802 71.9077 110.442C78.0951 111.538 84.1631 113.224 90.0287 115.477C90.1053 115.07 90.1956 114.668 90.2995 114.271C86.4633 112.791 82.5365 111.557 78.5431 110.578C75.8348 109.913 73.0992 109.366 70.3362 108.936C70.2925 108.932 70.2485 108.932 70.2048 108.936C69.3514 107.705 68.5102 106.474 67.669 105.206C70.5299 103.805 73.0633 101.816 75.1038 99.3699C77.1444 96.9235 78.6463 94.0744 79.5116 91.0084C79.6264 90.5981 79.7044 90.0564 79.3761 89.7774C78.8755 89.3219 78.1245 89.8923 77.6527 90.3806C75.9524 92.1494 73.6428 93.205 71.1926 93.3331C68.7424 93.4611 66.3354 92.6519 64.46 91.0699C64.9183 89.9688 65.1088 88.7747 65.0162 87.5855C64.9234 86.3965 64.5501 85.2462 63.9265 84.2294C64.5148 82.2788 64.9267 80.2792 65.1576 78.2549C65.7526 72.5797 63.3562 65.2797 57.6319 60.7494C53.159 57.2122 43.8934 56.2356 39.749 60.1503C33.6265 57.8072 27.5041 66.2153 28.054 70.9055C26.7122 73.0311 25.5427 75.2921 24.3034 77.471C20.9386 83.339 17.623 89.2357 14.1843 95.0626C14.1328 95.1566 14.1064 95.2623 14.1076 95.3694C14.1088 95.4766 14.1376 95.5816 14.1913 95.6744C14.2448 95.7671 14.3214 95.8445 14.4137 95.8991C14.5058 95.9537 14.6107 95.9836 14.7177 95.9859C19.3711 96.507 24.0203 97.0241 28.6696 97.5083L30.6515 106.052C31.7457 110.801 32.84 115.549 33.9343 120.295C34.1641 121.284 34.3898 122.269 34.6196 123.258C24.4582 137.057 15.6017 151.771 8.1645 167.21C6.36307 170.948 4.55344 174.711 3.03516 178.572C1.76719 181.802 0.753632 185.244 0.70439 188.741C0.655149 192.023 1.63999 195.281 4.04872 197.596C6.45745 199.911 9.79357 200.846 12.9984 201.544C16.5151 202.307 19.9989 202.943 23.1545 204.773C26.6548 206.824 29.6544 209.623 32.8346 212.098C35.5674 214.227 38.5794 216.369 42.1495 216.611C45.7194 216.853 49.1582 215.019 51.7598 212.693C52.3582 212.151 52.928 211.578 53.4668 210.977C55.6581 211.276 57.8616 211.491 60.0693 211.597C62.2072 211.7 64.46 211.859 66.5774 211.495C70.8983 210.748 72.3838 206.324 73.4671 202.651C73.9467 201.256 74.1052 199.771 73.9308 198.306C75.2172 198.255 76.491 198.033 77.7183 197.645C78.6457 197.33 80.7549 196.513 79.9917 195.126C79.5842 194.529 78.9801 194.093 78.2846 193.895C79.212 194.026 80.2092 194.268 81.1119 194.001C81.5253 193.907 81.8992 193.687 82.1821 193.37C82.465 193.054 82.643 192.658 82.6918 192.237C82.745 191.33 82.1049 190.575 81.3499 190.099ZM48.9325 184.149C47.0695 184.633 44.8289 184.017 44.3612 181.941C43.9509 180.07 45.1819 178.384 47.1967 178.863C49.0186 179.299 50.6846 180.809 51.9978 182.208C51.188 183.143 50.1179 183.814 48.9242 184.137L48.9325 184.149ZM33.0069 110.738C31.9865 106.344 30.9661 101.948 29.9457 97.5493C29.8882 97.295 29.8267 97.0364 29.7693 96.7779C29.7315 96.6488 29.6533 96.5354 29.5461 96.4541C29.4391 96.3729 29.3086 96.3281 29.1743 96.3265C24.6891 95.8628 20.2041 95.3663 15.719 94.8656C18.4396 90.237 21.0863 85.5713 23.7453 80.9139C25.2226 78.3286 26.7053 75.7503 28.1936 73.1788C29.4245 71.0533 30.6268 68.9851 32.3914 67.2411C33.3622 66.2815 34.4419 65.4386 35.6085 64.7297C35.3586 66.4775 35.3091 68.2479 35.4608 70.0068C35.6947 72.0791 36.462 74.1555 37.9721 75.5916C39.7695 77.3028 42.3505 77.8855 44.8208 78.1153C46.9628 78.3164 49.2033 78.2876 51.1606 77.3889L51.7106 78.181C52.1964 79.6303 52.7608 81.0522 53.4011 82.4404C53.1454 82.6333 52.9041 82.8445 52.6789 83.0722C52.6153 83.1282 52.5638 83.1968 52.5278 83.2736C52.4919 83.3503 52.4722 83.4337 52.47 83.5185C52.4676 83.6032 52.483 83.6875 52.5149 83.7661C52.5467 83.8446 52.5945 83.9158 52.6552 83.9751C52.7158 84.0343 52.788 84.0803 52.8673 84.1103C52.9466 84.1404 53.0313 84.1537 53.116 84.1494C53.2006 84.1452 53.2835 84.1235 53.3594 84.0857C53.4354 84.0479 53.5026 83.9949 53.5571 83.9299C54.315 83.15 55.2701 82.5901 56.3207 82.3099C57.3715 82.0296 58.4785 82.0394 59.5241 82.3382C60.5698 82.637 61.5148 83.2137 62.2588 84.0067C63.0027 84.7999 63.5178 85.7798 63.7492 86.8424C63.9806 87.9049 63.9196 89.0103 63.5728 90.041C63.2259 91.0716 62.6061 91.989 61.7795 92.6956C60.9528 93.402 59.9501 93.8712 58.8779 94.0532C57.8058 94.2352 56.7044 94.1231 55.6909 93.729C55.5385 93.6696 55.3689 93.6734 55.2192 93.7391C55.0695 93.8049 54.9521 93.9275 54.8928 94.0799C54.8335 94.2323 54.8371 94.4019 54.9029 94.5515C54.9687 94.7012 55.0913 94.8187 55.2436 94.878C56.0359 95.1817 56.8777 95.3362 57.7262 95.3335C58.383 95.3313 59.0367 95.2445 59.6713 95.075C62.8419 100.155 66.1302 105.157 69.536 110.081C69.587 110.161 69.6552 110.228 69.7354 110.278C69.8157 110.328 69.906 110.359 70 110.37C70.094 110.381 70.1891 110.37 70.2784 110.339C70.3678 110.309 70.4492 110.258 70.5167 110.192H70.5659C67.5365 114.069 63.7199 117.261 59.3676 119.556C54.8646 121.871 49.9156 123.188 44.8577 123.418C41.8579 123.559 38.8517 123.375 35.8917 122.868H35.8137C34.8726 118.824 33.9343 114.777 32.9987 110.726L33.0069 110.738ZM80.0614 192.922C79.1463 192.886 78.2271 192.689 77.3121 192.602C76.397 192.516 75.5148 192.462 74.6161 192.434C73.3167 192.395 72.0186 192.419 70.7219 192.504C70.035 192.437 69.3418 192.484 68.6702 192.643C68.6246 192.654 68.5806 192.671 68.5389 192.693C68.5006 192.691 68.4622 192.691 68.4239 192.693C67.6443 192.783 67.6361 194.018 68.4239 193.924C69.0476 193.845 69.655 193.792 70.2952 193.747C70.7834 193.747 71.2718 193.788 71.756 193.833C73.0942 193.96 74.4226 194.175 75.7323 194.477C76.7705 194.716 77.9029 194.958 78.7524 195.565C78.7114 195.536 78.7934 195.602 78.8672 195.667L78.9042 195.697C78.8576 195.736 78.8137 195.778 78.7729 195.823C78.4373 196.049 78.0748 196.233 77.6937 196.369C75.2316 197.313 72.4823 197.133 69.8971 197.137C69.7339 197.137 69.5773 197.201 69.4618 197.317C69.3464 197.432 69.2816 197.589 69.2816 197.752C69.2816 197.916 69.3464 198.071 69.4618 198.187C69.5773 198.303 69.7339 198.368 69.8971 198.368C70.8204 198.368 71.7641 198.368 72.7079 198.368C72.7487 198.558 72.7775 198.752 72.7942 198.946C72.9542 200.908 72.1458 202.959 71.5139 204.789C70.9229 206.493 70.09 208.244 68.6045 209.357C67.037 210.526 65.0427 210.468 63.1797 210.46C61.0787 210.46 58.9805 210.359 56.885 210.157C56.0643 210.08 55.2436 209.987 54.4229 209.877C56.747 206.911 58.2676 203.394 58.8383 199.668H58.9532C60.5749 199.358 62.0781 198.602 63.2946 197.486C66.0357 194.986 66.0768 191.211 66.2409 187.772C66.2576 186.14 66.5547 184.523 67.119 182.992C67.4211 182.238 67.881 181.558 68.4678 180.996C69.0545 180.435 69.7545 180.006 70.5208 179.738C72.3427 179.09 74.3699 178.917 76.2903 178.871C77.2136 178.847 78.26 178.765 79.1381 179.118C79.7372 179.36 80.4635 180.14 80.0039 180.813C79.5936 181.416 78.617 181.461 77.9728 181.477C76.9346 181.503 75.9005 181.363 74.8664 181.4C73.3687 181.449 71.7436 181.958 70.8737 183.262C70.7465 183.454 70.6445 183.66 70.5701 183.878C70.25 183.919 69.934 183.964 69.614 184.022C68.8343 184.157 69.1666 185.347 69.9422 185.207C71.3925 184.918 72.8818 184.878 74.3452 185.093C75.6859 185.344 76.9836 185.786 78.1984 186.406C78.9042 186.747 79.5977 187.12 80.2748 187.51C80.841 187.834 81.4402 188.331 80.8329 188.946C80.6009 189.168 80.3052 189.312 79.9875 189.356C78.5488 188.686 77.0327 188.195 75.4737 187.896C73.1965 187.447 70.8594 187.392 68.5634 187.732C67.7838 187.846 68.1162 189.032 68.8918 188.922C71.4194 188.557 73.995 188.716 76.4585 189.389H75.8923L69.5811 189.278C69.4179 189.278 69.2613 189.343 69.1459 189.458C69.0305 189.574 68.9656 189.731 68.9656 189.894C68.9656 190.057 69.0305 190.213 69.1459 190.329C69.2613 190.444 69.4179 190.51 69.5811 190.51L76.2205 190.583C77.2711 190.583 78.3298 190.644 79.3802 190.608L79.7906 190.583C80.4061 190.854 81.0996 191.199 81.3827 191.745C81.8095 192.639 80.7056 192.939 80.0532 192.91L80.0614 192.922ZM53.1919 88.8992C53.8467 87.8136 54.738 86.8895 55.7995 86.1962C56.8609 85.5027 58.0651 85.0577 59.3224 84.8943C59.6508 84.8491 59.938 85.2143 59.938 85.5097C59.9338 85.6716 59.8676 85.8258 59.7531 85.9404C59.6386 86.055 59.4844 86.1211 59.3224 86.1253C58.2787 86.2807 57.2826 86.6661 56.4061 87.2538C55.5297 87.8413 54.7948 88.6165 54.2547 89.5229C54.172 89.6639 54.0367 89.7662 53.8785 89.8073C53.7204 89.8485 53.5524 89.8252 53.4114 89.7425C53.2705 89.6598 53.1681 89.5244 53.127 89.3663C53.0858 89.2081 53.1091 89.0402 53.1919 88.8992ZM39.1662 105.157C40.3854 104.895 41.5465 104.412 42.5926 103.733C43.602 104.603 44.9234 105.453 46.2611 104.936C47.5988 104.419 48.1898 102.847 47.9928 101.46C47.8176 100.569 47.5091 99.7102 47.0777 98.9116C47.0241 98.8107 46.9391 98.7301 46.8356 98.6819C47.3116 97.5691 47.5894 96.3818 47.6563 95.1735C47.6973 94.3815 46.4662 94.3815 46.4252 95.1735C46.3673 96.2461 46.1172 97.2997 45.6866 98.2838C45.4186 97.9896 45.0805 97.768 44.7039 97.6397C44.3272 97.5112 43.9242 97.4802 43.5323 97.5493C42.9706 97.6472 42.4679 97.9575 42.1287 98.4159C41.7896 98.8743 41.6397 99.4455 41.7104 100.011C41.4103 100.096 41.1329 100.247 40.8986 100.453C40.6643 100.659 40.479 100.915 40.3562 101.201C40.2123 101.525 40.1769 101.887 40.2553 102.232C40.3337 102.577 40.5216 102.888 40.7912 103.118C40.8466 103.163 40.9056 103.205 40.9676 103.241C40.2927 103.574 39.5785 103.82 38.842 103.975C38.0624 104.131 38.3948 105.317 39.1662 105.157ZM45.822 100.549C45.9245 100.546 46.0247 100.518 46.1151 100.47C46.2054 100.422 46.2835 100.353 46.3432 100.27C46.5578 100.728 46.7056 101.214 46.7822 101.714C46.8234 102.025 46.8053 102.341 46.729 102.646C46.6636 102.901 46.5509 103.142 46.3965 103.356C46.2225 103.58 45.9801 103.741 45.7061 103.815C45.4322 103.889 45.1415 103.872 44.8782 103.766C44.4059 103.594 43.9712 103.332 43.598 102.995C44.4575 102.295 45.2071 101.471 45.822 100.549ZM42.9085 99.5518C42.9239 99.4878 42.9431 99.4248 42.966 99.3631C42.9455 99.4164 43.1097 99.1456 43.0768 99.1825C43.1219 99.1333 43.1671 99.084 43.2163 99.0389L43.3025 98.9691C43.3561 98.9297 43.4123 98.8941 43.4708 98.8624L43.5898 98.8091L43.7662 98.7558H43.8114H43.8647C44.0801 98.7278 44.2987 98.7742 44.4843 98.887C44.7337 99.0309 44.9382 99.2411 45.0752 99.4944C44.8307 99.9012 44.5564 100.289 44.2545 100.656C43.8797 100.349 43.445 100.124 42.9783 99.995C42.9783 99.954 42.9783 99.9703 42.9783 99.995C42.9576 99.9375 42.9411 99.8785 42.9291 99.8186C42.9291 99.8186 42.9291 99.6955 42.9291 99.6913C42.9325 99.6738 42.9325 99.6557 42.9291 99.638C42.9272 99.6083 42.9203 99.5792 42.9085 99.5518ZM41.4519 101.788C41.4626 101.715 41.4893 101.645 41.5299 101.583C41.6078 101.45 41.7186 101.339 41.8514 101.261C41.9842 101.183 42.1348 101.14 42.2889 101.136C42.5481 101.404 42.8739 101.598 43.2328 101.698C43.044 101.87 42.847 102.034 42.6418 102.19C42.5553 102.144 42.4577 102.121 42.3594 102.126C42.2612 102.13 42.1659 102.161 42.0838 102.215C42.0491 102.241 42.012 102.265 41.973 102.285H41.8827C41.8827 102.285 41.7801 102.248 41.7555 102.244C41.7168 102.215 41.6756 102.191 41.6324 102.17C41.6016 102.143 41.5729 102.114 41.5462 102.084C41.5352 102.062 41.5228 102.042 41.5093 102.022C41.5093 102.002 41.5093 101.981 41.5093 101.965C41.5093 101.948 41.5093 101.883 41.5093 101.866C41.5093 101.85 41.5093 101.837 41.5093 101.837C41.49 101.818 41.4678 101.801 41.4436 101.788H41.4519ZM34.7427 77.9881L33.4008 80.9467C33.3172 81.086 33.1821 81.1869 33.0247 81.2276C32.8673 81.2682 32.7003 81.2455 32.5596 81.1642C32.4212 81.0797 32.3208 80.945 32.2795 80.7881C32.2382 80.6313 32.2592 80.4646 32.338 80.323L33.6717 77.3438C33.7558 77.2107 33.8868 77.1141 34.0388 77.0731C34.1909 77.0319 34.3527 77.0495 34.4924 77.1223C34.6338 77.2049 34.7379 77.3389 34.783 77.4964C34.8281 77.6539 34.8108 77.8226 34.7345 77.9675L34.7427 77.9881ZM31.9605 77.0402L30.4012 80.2819C30.3621 80.3549 30.3089 80.4191 30.2443 80.4709C30.1799 80.5228 30.1057 80.5611 30.0261 80.5836C29.9465 80.6061 29.8632 80.6124 29.7812 80.602C29.6991 80.5916 29.62 80.5648 29.5485 80.5231C29.4771 80.4815 29.4148 80.4258 29.3653 80.3596C29.3159 80.2933 29.2802 80.2177 29.2606 80.1374C29.241 80.057 29.2378 79.9736 29.2512 79.8919C29.2645 79.8102 29.2942 79.7321 29.3384 79.6623L30.8977 76.4165C30.9804 76.2756 31.1158 76.1733 31.2739 76.132C31.4321 76.0908 31.6 76.1143 31.741 76.197C31.8819 76.2797 31.9842 76.415 32.0254 76.5731C32.0665 76.7312 32.0432 76.8993 31.9605 77.0402ZM29.9662 72.6618C29.9457 72.581 29.9457 72.4964 29.9662 72.4156C29.9701 72.3351 29.9956 72.2571 30.0401 72.1899C30.123 72.0522 30.255 71.951 30.4095 71.9067L31.2301 71.6811C31.3909 71.6412 31.5608 71.6631 31.7061 71.7426C31.8426 71.8267 31.9434 71.9582 31.9893 72.1119C32.0119 72.1924 32.0119 72.2776 31.9893 72.3582C31.9847 72.4398 31.9593 72.519 31.9154 72.5879C31.8329 72.7242 31.7027 72.8251 31.5502 72.871L30.7295 73.0926C30.5688 73.1347 30.3982 73.1125 30.2535 73.0311C30.18 72.9899 30.1159 72.9341 30.065 72.867C30.0143 72.7999 29.9778 72.7231 29.958 72.6413L29.9662 72.6618ZM36.2323 76.1497C36.0696 76.147 35.9141 76.0824 35.7973 75.9691L34.6852 74.7792C34.5727 74.6619 34.5082 74.5067 34.5046 74.3442C34.5038 74.2633 34.5194 74.183 34.5505 74.1082C34.5814 74.0335 34.6273 73.9658 34.6852 73.9092C34.8005 73.7938 34.957 73.7288 35.1202 73.7287C35.2832 73.7297 35.4393 73.7946 35.5552 73.9092L36.6672 75.0993C36.7805 75.2161 36.845 75.3715 36.8477 75.5343C36.8483 75.6152 36.8327 75.6954 36.8017 75.77C36.7707 75.8448 36.7249 75.9124 36.6672 75.9691C36.6074 76.0236 36.5376 76.0658 36.4615 76.0933C36.3855 76.1208 36.3048 76.133 36.224 76.1292L36.2323 76.1497Z" fill="#3F4254"/>
</g>
<defs>
<clipPath id="clip0_1_745">
<rect width="200" height="187.94" fill="white" transform="translate(0 47)"/>
</clipPath>
</defs>
</svg>
