<svg width="8" height="9" viewBox="0 0 8 9" fill="none" xmlns="http://www.w3.org/2000/svg">
<path d="M0.437055 8.37698C0.23805 8.20783 0.126109 7.9939 0.101234 7.73519C0.0763581 7.47648 0.143522 7.24763 0.302726 7.04862L2.1684 4.75012L0.317652 2.48146C0.158448 2.28245 0.0912835 2.0536 0.116159 1.79489C0.141035 1.53619 0.255463 1.32474 0.459443 1.16056C0.663423 0.996386 0.894766 0.926733 1.15347 0.951609C1.41218 0.976485 1.62611 1.08843 1.79526 1.28743L4.12362 4.1531C4.26293 4.33221 4.33258 4.5337 4.33258 4.75758C4.33258 4.98146 4.26293 5.17798 4.12362 5.34713L1.76541 8.24265C1.57636 8.47151 1.33258 8.58594 1.03407 8.58594C0.815164 8.58594 0.616159 8.51629 0.437055 8.37698ZM5.1087 1.28743L7.43705 4.1531C7.57636 4.33221 7.64601 4.5337 7.64601 4.75758C7.64601 4.98146 7.57636 5.17798 7.43705 5.34713L5.07885 8.24265C4.88979 8.47151 4.64601 8.58594 4.3475 8.58594C4.1286 8.58594 3.92959 8.51629 3.75049 8.37698C3.55148 8.20783 3.43954 7.9939 3.41467 7.73519C3.38979 7.47648 3.45696 7.24763 3.61616 7.04862L5.48183 4.75012L3.63108 2.48146C3.47188 2.28245 3.40472 2.0536 3.42959 1.79489C3.45447 1.53619 3.5689 1.32474 3.77288 1.16056C3.97686 0.996386 4.2082 0.926733 4.46691 0.951609C4.72561 0.976485 4.93954 1.08843 5.1087 1.28743Z" fill="#B5B5C3"/>
</svg>
