<svg width="25" height="25" viewBox="0 0 25 25" fill="none" xmlns="http://www.w3.org/2000/svg">
<path d="M13.5619 0.572332L7.36282 7.71749C6.9488 8.19469 6.71382 8.85246 6.71382 9.53602V22.4205C6.71382 23.8392 7.72089 25 8.95176 25H19.0225C19.9177 25 20.7233 24.3809 21.0814 23.4394L24.7292 13.6245C25.6692 11.0708 24.0467 8.23339 21.6409 8.23339H15.3187L16.3817 2.32638C16.4936 1.68151 16.3258 1.02374 15.9229 0.559435C15.2627 -0.188614 14.2109 -0.188614 13.5619 0.572332ZM2.23794 25C3.46881 25 4.47588 23.8392 4.47588 22.4205V12.1026C4.47588 10.6839 3.46881 9.52312 2.23794 9.52312C1.00707 9.52312 0 10.6839 0 12.1026V22.4205C0 23.8392 1.00707 25 2.23794 25Z" fill="#008905"/>
</svg>
