<svg width="289" height="102" viewBox="0 0 289 102" fill="none" xmlns="http://www.w3.org/2000/svg">
<path d="M-10 6.66992H308" stroke="#DBDFE9" stroke-dasharray="4 4"/>
<mask id="mask0_1_567" style="mask-type:luminance" maskUnits="userSpaceOnUse" x="-14" y="0" width="324" height="113">
<path d="M310 0.669922H-14V112.67H310V0.669922Z" fill="white"/>
</mask>
<g mask="url(#mask0_1_567)">
<path d="M-10 49.5271C-0.725 49.5271 7.225 15.2414 16.5 15.2414C25.775 15.2414 33.725 98.0985 43 98.0985C52.275 98.0985 60.225 9.5271 69.5 9.5271C78.775 9.5271 86.725 58.0985 96 58.0985C105.275 58.0985 113.225 18.0985 122.5 18.0985C131.775 18.0985 139.725 29.5271 149 29.5271C158.275 29.5271 166.225 49.5271 175.5 49.5271C184.775 49.5271 192.725 9.5271 202 9.5271C211.275 9.5271 219.225 49.5271 228.5 49.5271C237.775 49.5271 245.725 15.2414 255 15.2414C264.275 15.2414 272.225 40.9557 281.5 40.9557C290.775 40.9557 298.725 15.2414 308 15.2414" stroke="#252F4A" stroke-width="2"/>
</g>
</svg>
