<svg width="33" height="33" viewBox="0 0 33 33" fill="none" xmlns="http://www.w3.org/2000/svg">
<rect width="32.53" height="32.53" rx="5.46" fill="#15171C"/>
<rect width="32.53" height="32.53" rx="5.46" />
<g clip-path="url(#clip0_1_90)">
<path d="M21.1865 23.6475C21.0603 23.6475 20.9446 23.6054 20.8394 23.5213L16.7697 20.7782L14.5928 22.3547C14.4035 22.4809 14.2037 22.5071 13.9934 22.4336C13.7831 22.36 13.6569 22.2181 13.6148 22.0079L12.5106 17.846L8.59861 16.3641C8.32519 16.259 8.18848 16.0593 8.18848 15.765C8.18848 15.4707 8.32519 15.271 8.59861 15.1659L23.458 9.26985C23.5211 9.22781 23.5841 9.20679 23.6472 9.20679C23.6893 9.20679 23.7209 9.20679 23.7419 9.20679C23.9101 9.20679 24.0469 9.26985 24.152 9.39597C24.1731 9.39597 24.1836 9.40648 24.1836 9.4275C24.2677 9.5326 24.3203 9.65872 24.3413 9.80586C24.3413 9.82688 24.3413 9.85841 24.3413 9.90045C24.3413 9.92147 24.3413 9.94249 24.3413 9.96351L21.8174 23.143C21.7754 23.3532 21.6492 23.5003 21.4388 23.5844C21.3547 23.6264 21.2706 23.6475 21.1865 23.6475ZM17.1167 19.4855L20.7448 21.9448L22.7008 11.6976L15.6339 18.4766L17.1167 19.454C17.1167 19.475 17.1167 19.4855 17.1167 19.4855ZM14.1196 18.9495L14.5928 20.7782L15.6339 20.0215L14.2773 19.1072C14.2142 19.0651 14.1617 19.0126 14.1196 18.9495ZM10.5862 15.765L13.2678 16.774C13.4781 16.858 13.6043 17.0052 13.6464 17.2154L13.9934 18.5081C14.0144 18.3399 14.0775 18.2033 14.1827 18.0982L20.9025 11.6346L10.5862 15.765Z" fill="#FFA800"/>
</g>
<defs>
<clipPath id="clip0_1_90">
<rect width="16.89" height="16.9" fill="white" transform="matrix(1 0 0 -1 7.82031 24.7197)"/>
</clipPath>
</defs>
</svg>
