<svg width="47" height="47" viewBox="0 0 47 47" fill="none" xmlns="http://www.w3.org/2000/svg">
<path d="M40.4739 0.0004717C41.4336 0.000751372 42.3816 0.21262 43.2501 0.620989C44.1186 1.02936 44.8864 1.62418 45.4988 2.36309C46.1111 3.10199 46.553 3.96681 46.7928 4.89594C47.0327 5.82506 47.0647 6.79564 46.8866 7.73855C46.7084 8.68145 46.3245 9.57348 45.7621 10.3511C45.1998 11.1287 44.4729 11.7728 43.6331 12.2375C42.7934 12.7021 41.8615 12.976 40.9038 13.0394C39.9461 13.1029 38.9862 12.9545 38.0924 12.6047L26.1957 24.4962C28.1515 27.3286 29.0193 30.7714 28.6398 34.1922L35.4917 36.2468C36.4614 35.1031 37.7955 34.328 39.2696 34.052C40.7436 33.776 42.2678 34.0158 43.5858 34.7312C44.9038 35.4466 45.9353 36.5938 46.5068 37.9801C47.0782 39.3663 47.1549 40.907 46.7238 42.3431C46.2927 43.7792 45.3802 45.0231 44.1397 45.8657C42.8992 46.7083 41.4064 47.0982 39.9122 46.9698C38.418 46.8414 37.0136 46.2025 35.9351 45.1606C34.8566 44.1187 34.1698 42.7374 33.9902 41.2488L27.141 39.1916C25.6931 42.0154 23.3504 44.2801 20.479 45.6319C17.6075 46.9837 14.369 47.3464 11.2696 46.6634C8.17008 45.9805 5.3842 44.2902 3.3472 41.8568C1.3102 39.4234 0.136838 36.3839 0.0104447 33.2132L0 32.6336L0.0104447 32.0567C0.112216 29.5155 0.887256 27.0469 2.2563 24.9034C3.62534 22.76 5.53926 21.0185 7.80232 19.8571L5.74468 13.0067C4.23938 12.8261 2.84405 12.1268 1.79853 11.0291C0.753007 9.93135 0.122601 8.50381 0.0156674 6.9918L0 6.5271L0.0130564 6.09896C0.0837067 5.02333 0.419729 3.98195 0.991111 3.06783C1.56249 2.1537 2.35144 1.3953 3.28749 0.860366C4.22353 0.325431 5.27753 0.0306176 6.35533 0.00225931C7.43313 -0.026099 8.50118 0.21288 9.46407 0.697852C10.427 1.18282 11.2547 1.89869 11.8734 2.7815C12.4921 3.66431 12.8824 4.68658 13.0096 5.757C13.1367 6.82742 12.9967 7.91266 12.602 8.91578C12.2073 9.91891 11.5703 10.8087 10.7478 11.5056L12.8028 18.3586C16.2243 17.9792 19.6679 18.8468 22.5009 20.8022L34.395 8.90802C34.1495 8.28353 34.0024 7.62479 33.9589 6.95525L33.9458 6.5271L33.9589 6.09896C34.0676 4.4455 34.8013 2.89529 36.0112 1.76277C37.221 0.630246 38.8165 0.000216519 40.4739 0.0004717Z" fill="#008905"/>
</svg>
