<svg width="251" height="251" viewBox="0 0 251 251" fill="none" xmlns="http://www.w3.org/2000/svg">
<g clip-path="url(#clip0_1_152)">
<g clip-path="url(#clip1_1_152)">
<path opacity="0.2" d="M74.2562 116.081C69.2196 114.812 65.0674 111.39 61.1074 108.045C53.2643 101.433 45.3827 94.8195 37.5396 88.2451C45.8056 89.2447 54.2639 88.8602 62.4146 87.0532C65.1443 86.4381 67.9509 85.6691 70.1424 83.9006C72.6415 81.9014 74.1409 78.941 75.4096 76.019C80.9844 63.4854 84.7137 48.2604 77.5626 36.5726C82.5607 45.2615 88.4046 53.4892 94.9405 61.0633C104.706 47.7607 116.278 35.7653 129.197 25.5C127.774 33.074 129.312 41.1478 133.387 47.6837C135.041 50.2982 137.194 52.7971 140.077 53.8737C143.999 55.3346 148.381 53.989 152.303 52.4896C162.492 48.6834 172.411 44.1082 181.946 38.8794C173.218 46.0689 163.837 54.4504 162.76 65.7153C162.568 67.6376 162.799 69.9061 164.337 71.0594C165.605 71.9821 167.298 71.9052 168.874 71.7899C181.177 70.8287 193.479 69.829 205.782 68.8679C199.631 73.1355 193.787 77.9029 188.404 83.0932C186.521 84.9387 184.637 88.0913 186.559 89.8984C187.674 90.9363 189.404 90.7825 190.903 90.5903C198.901 89.6291 207.09 90.3597 214.818 92.6665C216.086 93.051 217.471 93.5507 218.124 94.7426C219.354 96.8952 217.317 99.3942 215.432 101.01C204.399 110.39 192.25 118.464 179.293 125C170.988 129.19 162.3 132.805 154.995 138.572C150.88 141.839 147.036 145.838 141.923 147.03C135.578 148.491 129.12 145.108 123.929 141.187C118.701 137.264 113.779 132.574 107.551 130.767C102.4 129.267 96.7093 129.883 91.7495 127.845C84.1371 124.731 79.0236 115.735 70.796 115.542" fill="white"/>
<path d="M201.976 119.848C201.168 124.27 199.207 128.422 197.131 132.42C194.171 138.149 190.979 143.724 187.596 149.222C186.097 151.644 184.482 154.143 182.176 155.835C178.753 158.334 174.255 158.757 169.987 158.218C167.22 161.448 164.413 164.677 161.029 167.291C159.953 168.138 158.8 168.907 157.492 169.368C153.84 170.598 149.687 168.83 145.92 168.868C145.651 169.214 145.343 169.521 144.997 169.829C139.461 175.058 131.964 178.095 124.352 178.172C117.815 178.249 111.318 176.135 106.012 172.289C104.858 173.097 103.821 174.097 102.975 175.25C100.283 178.826 102.129 182.478 102.59 187.745C102.321 187.784 102.091 187.861 101.86 187.899C103.936 191.783 105.204 196.089 105.551 200.51C100.322 200.356 95.0932 201.24 90.172 203.124L90.2873 203.432C88.5572 200.779 87.1732 197.895 86.1351 194.858C86.0198 194.513 85.9044 194.128 85.866 193.743C84.7894 194.32 83.7514 194.935 82.7134 195.55C76.1774 190.552 70.0643 184.785 66.1428 177.557C62.2597 170.329 60.8371 161.448 63.8744 153.797C66.6426 146.877 73.563 141.494 80.9064 141.379C79.4069 137.611 78.6764 133.497 78.8302 129.46C79.1378 121.117 83.0593 113.236 88.4419 106.815C88.7495 106.431 89.0955 106.046 89.4031 105.7C83.5591 98.7029 77.6768 91.7439 71.8329 84.7466C86.2889 72.5589 102.282 62.1399 119.315 53.8738C121.045 53.0279 123.159 52.2205 124.735 53.2971C125.389 53.7584 125.851 54.489 126.274 55.181C133.309 66.9457 140.345 78.7489 147.38 90.5136C154.494 93.6278 160.683 99.0106 164.413 105.854C165.22 107.314 165.912 108.853 166.451 110.429C166.72 110.198 166.989 109.967 167.219 109.737C171.833 105.739 177.139 102.278 183.136 101.202C189.134 100.164 195.939 101.97 199.515 106.93C202.244 110.544 202.782 115.427 201.976 119.848ZM126.274 178.134C122.006 178.134 118.584 188.63 118.584 201.587C118.584 214.543 122.045 225.039 126.274 225.039C130.503 225.039 133.963 214.543 133.963 201.587C133.963 188.63 130.541 178.134 126.274 178.134ZM83.9052 198.318C81.0601 199.088 80.1759 205.008 81.9444 211.506C83.713 218.003 87.4423 222.693 90.3258 221.887C93.1709 221.117 94.0551 215.196 92.2866 208.699C90.5181 202.163 86.7503 197.511 83.9052 198.318ZM160.683 193.243C157.723 192.936 154.801 198.126 154.109 204.854C153.417 211.583 155.262 217.272 158.184 217.541C161.145 217.849 164.067 212.659 164.758 205.931C165.451 199.241 163.605 193.551 160.683 193.243Z" fill="white"/>
<path d="M188.827 172.943C188.174 172.558 188.789 171.558 189.404 171.943C193.71 174.519 198.016 177.133 202.322 179.709C202.976 180.094 202.36 181.094 201.746 180.709C197.439 178.133 193.133 175.519 188.827 172.943ZM182.676 179.402C185.136 181.862 187.597 184.323 190.057 186.783C190.596 187.322 191.403 186.477 190.865 185.977C188.404 183.516 185.944 181.056 183.483 178.595C182.945 178.057 182.137 178.864 182.676 179.402ZM52.3797 181.171C47.9199 183.132 43.4601 185.131 39.0002 187.091C38.3082 187.399 38.9234 188.399 39.5769 188.091C44.0367 186.131 48.4965 184.132 52.9564 182.17C53.61 181.862 53.0333 180.902 52.3797 181.171ZM54.8403 130.036C47.6123 131.421 40.2305 131.882 32.8872 131.382C32.1567 131.344 32.1567 132.497 32.8872 132.535C40.3459 133.035 47.843 132.535 55.1479 131.152C55.8784 131.036 55.5708 129.921 54.8403 130.036ZM52.1875 137.457C48.9963 138.11 45.7668 138.726 42.5758 139.379C41.8453 139.532 42.1529 140.648 42.8834 140.494C46.0744 139.84 49.3039 139.225 52.495 138.572C53.2255 138.418 52.918 137.303 52.1875 137.457ZM142.345 56.0264C143.306 53.7964 144.268 51.5282 145.228 49.2982C145.344 49.0291 145.305 48.6831 145.036 48.4908C144.805 48.337 144.383 48.4139 144.229 48.6831C143.268 50.913 142.306 53.1813 141.346 55.4112C141.23 55.6804 141.269 56.0264 141.538 56.2186C141.769 56.3724 142.191 56.3339 142.345 56.0264ZM76.4089 50.2208C74.7941 48.2985 73.1794 46.3762 71.6031 44.4538C71.4109 44.2232 70.988 44.2616 70.7957 44.4538C70.565 44.6846 70.6035 45.0307 70.7957 45.2613C72.4105 47.1836 74.0252 49.1059 75.6015 51.0284C75.7938 51.259 76.2167 51.2206 76.4089 51.0284C76.6396 50.7976 76.6012 50.4515 76.4089 50.2208ZM64.5289 47.2605C67.3739 49.5288 70.1806 51.8357 73.0256 54.104C73.6023 54.5654 74.4097 53.758 73.833 53.2966C70.9879 51.0283 68.1814 48.7215 65.3363 46.4532C64.7595 45.9918 63.9522 46.7991 64.5289 47.2605Z" fill="#24668A"/>
<path d="M145.881 178.403C146.189 184.286 146.228 190.167 145.997 196.05C145.997 196.512 145.497 196.665 145.189 196.55H145.151C141.768 196.858 138.384 197.164 135.001 197.472C134.271 197.549 134.271 196.396 135.001 196.319C138.307 196.012 141.576 195.704 144.881 195.435C145.074 189.744 145.035 184.055 144.728 178.403C143.113 178.326 141.537 178.249 139.922 178.095C139.192 178.018 139.192 176.864 139.922 176.941C141.691 177.095 143.498 177.211 145.266 177.249V177.018C145.266 177.095 145.266 177.172 145.266 177.249C151.226 177.441 157.185 177.095 163.106 176.212C163.836 176.096 164.144 177.211 163.413 177.326C157.607 178.211 151.764 178.557 145.881 178.403ZM130.233 203.124C130.08 203.855 131.195 204.163 131.349 203.432C132.386 198.588 132.156 193.551 130.733 188.784C130.503 188.091 129.427 188.361 129.619 189.091C131.003 193.666 131.233 198.511 130.233 203.124ZM124.198 182.901C122.16 186.131 121.122 189.975 121.314 193.782C121.353 194.512 122.506 194.512 122.467 193.782C122.313 190.167 123.236 186.554 125.197 183.478C125.581 182.863 124.582 182.286 124.198 182.901ZM159.991 196.781C160.722 196.473 161.106 197.088 161.26 197.703C161.837 199.548 161.953 201.548 161.645 203.432C161.606 203.739 161.722 204.047 162.03 204.124C162.298 204.201 162.682 204.047 162.721 203.739C162.913 202.509 162.99 201.279 162.875 200.01C162.759 198.857 162.567 197.588 162.03 196.55C161.491 195.588 160.414 195.242 159.415 195.704C158.338 196.204 157.954 197.357 157.646 198.395C157.454 199.126 158.569 199.434 158.761 198.703C159.031 198.049 159.261 197.088 159.991 196.781ZM84.3667 212.159C84.0975 212.236 83.8669 212.582 83.9822 212.851C84.8665 215.235 86.1352 217.464 87.7116 219.464C88.0576 219.925 88.4805 220.31 89.0572 220.463C89.5954 220.579 90.1721 220.463 90.6335 220.156C91.6716 219.502 91.9407 218.272 92.0945 217.157C92.1329 216.85 92.0176 216.542 91.71 216.465C91.4409 216.388 91.0564 216.542 91.018 216.85C90.9026 217.695 90.7873 218.772 89.9799 219.234C89.1341 219.733 88.519 218.657 88.096 218.08C86.8657 216.388 85.8661 214.504 85.0972 212.543C84.9819 212.274 84.6743 212.082 84.3667 212.159ZM201.13 125.038C199.784 128.653 197.977 132.113 196.131 135.496C194.209 139.072 192.21 142.609 190.133 146.069C188.25 149.261 186.405 152.759 183.636 155.296C181.176 157.564 177.984 158.641 174.679 158.872C173.179 158.988 171.68 158.911 170.218 158.757C168.604 160.64 166.989 162.486 165.258 164.255C163.836 165.677 162.298 167.099 160.645 168.291C160.376 167.984 160.106 167.714 159.837 167.445C159.914 167.368 159.991 167.33 160.106 167.253C163.529 164.754 166.374 161.487 169.142 158.295C167.028 157.218 164.835 156.258 162.606 155.45C160.414 154.681 158.184 154.066 155.955 153.566C154.916 153.336 153.725 153.028 152.725 153.451C152.34 153.605 152.072 153.836 151.803 154.105C151.803 154.143 151.803 154.182 151.803 154.22C151.841 155.45 151.072 156.488 150.033 157.026C148.265 160.333 146.535 163.678 144.805 166.984C144.344 167.368 143.882 167.791 143.498 168.253C143.459 168.33 143.421 168.407 143.382 168.484L142.882 169.253C142.806 169.291 142.729 169.291 142.652 169.329C142.536 169.483 142.421 169.637 142.306 169.829C142.229 169.752 142.153 169.637 142.153 169.521C139.307 170.483 136.193 170.675 133.117 170.483C132.232 170.444 131.349 170.367 130.503 170.29C130.695 171.637 130.387 173.02 129.427 174.059C128.734 174.827 127.811 175.327 126.812 175.442C126.928 176.096 127.005 176.75 127.12 177.403C131.349 176.98 135.462 175.635 139.154 173.482C139.845 173.059 140.537 172.636 141.191 172.174C140.999 172.713 140.845 173.289 140.73 173.866C139.922 174.366 139.115 174.827 138.269 175.25C135.193 176.788 131.926 177.864 128.542 178.364C132.08 181.133 134.579 190.321 134.579 201.51C134.579 201.778 134.579 202.086 134.579 202.355C136.462 202.278 138.346 202.316 140.191 202.432C144.728 202.778 149.227 203.816 153.494 205.469C153.494 205.238 153.532 205.008 153.571 204.738C154.302 197.588 157.492 192.282 160.799 192.628C164.106 192.974 166.143 198.818 165.412 205.969C165.066 209.276 164.182 212.389 162.913 214.619C161.645 216.888 160.068 218.08 158.531 218.08C158.415 218.08 158.338 218.08 158.223 218.08C156.57 217.926 155.185 216.35 154.34 213.736C153.686 211.737 153.417 209.276 153.494 206.662C147.496 204.316 141.037 203.201 134.617 203.509C134.271 216.004 130.772 225.5 126.351 225.5C122.006 225.5 118.546 216.273 118.123 204.047C114.816 204.278 111.51 204.738 108.242 205.392C108.165 205.431 108.127 205.431 108.05 205.431C108.011 206.162 107.973 206.892 107.973 207.622C107.934 208.353 106.781 208.353 106.82 207.622C106.897 205.277 107.012 202.893 107.089 200.548C107.089 200.125 107.473 199.933 107.819 200.01C107.857 199.856 107.973 199.702 108.204 199.663C111.433 198.741 114.816 198.241 118.161 198.203C118.584 188.899 120.776 181.44 123.736 178.634C122.544 178.634 121.314 178.518 120.122 178.364C115.124 177.711 110.318 175.788 106.166 172.905C105.281 173.559 104.475 174.328 103.782 175.212C102.475 176.864 102.13 178.788 102.321 180.863C102.398 181.556 102.475 182.247 102.59 182.939C102.782 183.709 102.975 184.438 103.129 185.208C103.167 185.4 103.129 185.554 103.052 185.669C103.167 186.323 103.244 186.976 103.321 187.63C103.359 187.861 103.129 188.13 102.898 188.168H102.859C103.436 189.284 103.936 190.475 104.359 191.667C105.397 194.473 106.012 197.395 106.243 200.394C106.243 200.51 106.205 200.625 106.128 200.74C105.781 200.317 105.397 199.894 104.974 199.548C104.552 195.665 103.398 191.897 101.63 188.438C96.4005 189.59 91.3255 191.437 86.635 193.936C86.7504 194.55 87.0579 195.204 87.2502 195.704C87.5577 196.55 87.9038 197.395 88.2883 198.203C88.4421 198.549 88.6343 198.934 88.7881 199.28C88.6727 199.395 88.5574 199.51 88.4805 199.625C88.6727 199.817 88.8265 200.048 89.0188 200.24C90.5182 202.124 91.8253 204.738 92.6712 207.661C97.2459 207.776 101.822 207.93 106.397 208.161C107.128 208.199 107.128 209.352 106.397 209.314C101.937 209.084 97.4382 208.93 92.9788 208.814C94.7089 215.581 93.6323 221.425 90.4797 222.27C90.2106 222.347 89.9799 222.386 89.7108 222.386C86.6735 222.386 83.1364 217.849 81.4063 211.467C79.5224 204.546 80.5604 198.434 83.79 197.549C84.828 197.28 85.943 197.549 87.0579 198.357C86.4813 197.088 85.943 195.781 85.5585 194.435C84.7512 194.896 83.9053 195.358 83.1364 195.858C82.9826 195.973 82.7135 195.973 82.5597 195.858C77.9461 192.32 73.5247 188.438 69.9107 183.863C63.6054 175.865 59.7223 165.1 62.9134 154.988C65.2971 147.453 72.2944 141.148 80.2529 140.648C79.1379 137.572 78.4844 134.305 78.4074 130.998C78.2152 122.424 81.9061 114.197 87.1348 107.545C87.6731 106.853 88.2498 106.162 88.8265 105.508C83.0979 98.6644 77.3309 91.8207 71.6023 84.9772C71.4101 84.7466 71.3332 84.362 71.6023 84.1698C72.2944 83.5546 73.0248 82.978 73.7553 82.4013C79.484 77.7108 85.4047 73.2894 91.5563 69.1371C97.7074 64.9849 104.052 61.1786 110.549 57.6416C112.164 56.7572 113.817 55.9115 115.47 55.0656C117.085 54.2582 118.661 53.3739 120.314 52.7203C121.776 52.1052 123.506 51.7208 124.966 52.4897C125.697 52.8742 126.197 53.5277 126.62 54.1813C127.158 54.9887 127.619 55.8345 128.119 56.6803C132.309 63.7161 136.539 70.7519 140.73 77.7877C143.152 81.8245 145.535 85.8615 147.957 89.8599C151.61 91.4747 154.993 93.6661 157.954 96.3574C161.722 99.7789 165.028 104.278 166.912 109.199C171.372 105.315 176.485 101.893 182.29 100.625C188.134 99.3558 194.939 100.587 199.131 105.123C204.013 110.621 203.513 118.618 201.13 125.038ZM88.0575 201.125C86.8272 199.625 85.597 198.78 84.5589 198.78C84.4051 198.78 84.2514 198.818 84.0591 198.857C81.8292 199.471 80.6758 204.623 82.4828 211.352C84.2897 218.08 87.9038 221.963 90.1337 221.348C92.3636 220.733 93.5171 215.619 91.71 208.968C89.9799 208.93 88.2498 208.891 86.5197 208.891C85.7892 208.891 85.7892 207.738 86.5197 207.738C88.1345 207.776 89.7493 207.776 91.364 207.814C90.5567 205.162 89.4032 202.816 88.0575 201.125ZM154.571 205.969C156.224 206.662 157.838 207.43 159.415 208.314C160.068 208.661 159.492 209.66 158.838 209.314C157.415 208.545 155.993 207.814 154.494 207.199C154.456 209.506 154.725 211.698 155.301 213.466C155.993 215.619 157.031 216.888 158.223 217.003C159.377 217.118 160.683 216.081 161.799 214.12C162.99 212.005 163.836 209.084 164.182 205.892C164.912 198.972 162.913 194.051 160.606 193.82C160.53 193.82 160.491 193.82 160.414 193.82C158.146 193.82 155.339 198.164 154.648 204.931C154.648 205.277 154.609 205.623 154.571 205.969ZM140.345 88.7834C139.654 91.8207 139.077 94.8965 138.654 97.9721C137.155 108.853 137.346 119.963 139.231 130.767C139.269 130.921 139.231 131.037 139.154 131.152C139.922 131.383 140.653 131.613 141.422 131.843C140.96 128.999 140.576 126.154 140.306 123.27C139.346 112.159 140.153 100.894 142.652 90.0137C142.806 89.2832 143.921 89.5908 143.767 90.3213C143.075 93.3586 142.498 96.4343 142.076 99.5096C140.614 109.929 140.768 120.579 142.421 130.96C143.075 130.344 143.69 129.729 144.306 129.076C145.074 128.23 145.92 127.307 146.266 126.154C146.305 126.038 146.343 125.885 146.343 125.769C146.112 125.962 145.843 126.115 145.497 126.192C144.613 126.462 143.498 126.231 142.959 125.423C142.382 124.538 142.729 123.463 143.498 122.847C144.344 122.193 145.42 122.155 146.266 122.809C146.381 122.886 146.497 123.001 146.612 123.116C146.805 122.424 146.881 121.733 146.92 121.079C147.112 118.503 146.458 115.927 145.151 113.736C144.766 113.082 145.766 112.505 146.151 113.159C146.805 114.236 147.304 115.388 147.611 116.581C148.265 118.926 148.381 121.694 147.534 123.963C147.496 124.116 147.419 124.269 147.342 124.423C147.457 124.769 147.496 125.154 147.496 125.538C147.419 126.846 146.728 127.999 145.92 128.961C144.92 130.19 143.767 131.229 142.613 132.343C142.652 132.766 142.267 133.036 141.922 133.036C141.73 133.228 141.537 133.459 141.345 133.651C139.96 135.188 138.807 137.034 138.923 139.188C139.038 141.302 140.422 143.263 142.153 144.415C144.113 145.723 146.497 146.069 148.765 145.569C153.917 144.492 157.454 140.302 160.183 136.112C161.645 133.882 163.029 131.613 164.298 129.268C165.566 126.884 166.643 124.423 167.105 121.733C168.027 116.504 166.566 111.044 164.106 106.392C161.991 102.432 159.031 98.9721 155.57 96.1267C151.187 92.5128 145.92 89.9752 140.345 88.7834ZM145.343 123.578C144.69 123.309 143.421 124.078 143.998 124.846C144.575 125.615 145.728 125 146.112 124.423C146.112 124.385 146.151 124.385 146.151 124.346C145.997 124.001 145.728 123.732 145.343 123.578ZM89.4801 104.815C93.7093 100.125 98.7074 96.1652 103.859 92.4743C103.359 91.3209 103.244 90.0138 103.667 88.8218C104.129 87.5147 105.205 86.515 106.435 85.9767C102.936 83.0164 99.3228 75.673 102.436 71.8668C106.512 66.8688 111.626 69.0602 112.817 62.1783C116.239 63.9852 116.47 68.8295 115.278 70.5596C114.893 71.1364 114.432 71.5977 114.009 71.9821C115.085 72.0591 116.162 72.2897 117.2 72.6358C118.777 73.2124 120.276 74.0583 121.814 74.7888C123.39 75.5577 124.928 76.3266 126.505 77.0956C129.427 78.5566 132.348 80.0176 135.308 81.4401C135.616 81.5939 135.693 82.1321 135.424 82.3628C133.117 84.3236 130.81 86.2843 128.465 88.2066C128.619 88.6681 128.811 89.091 128.965 89.5523C130.964 94.7426 132.963 99.9327 134.924 105.123C135.039 105.469 134.847 105.7 134.579 105.777C134.117 107.814 133.117 109.66 131.772 111.237C129.042 114.465 124.889 116.312 120.699 116.081C116.47 115.85 112.356 113.736 109.895 110.275C109.818 110.16 109.78 110.044 109.78 109.967C109.741 109.89 109.741 109.813 109.741 109.698C109.818 104.815 109.741 99.9712 109.55 95.0887C109.127 95.2041 108.665 95.281 108.204 95.281C107.473 95.281 106.705 95.1271 106.051 94.7811C105.435 94.4736 104.897 94.0122 104.475 93.4355C102.859 94.5889 101.283 95.7422 99.7065 96.9721C99.7834 97.0106 99.8603 97.049 99.9372 97.126C102.091 99.4712 104.052 102.009 105.82 104.662C108.934 109.352 111.433 114.465 113.279 119.771C115.047 124.923 116.124 130.306 116.547 135.727C117.854 135.227 119.123 134.727 120.391 134.151C123.813 132.651 127.273 131.037 130.964 130.421C132.732 130.113 134.502 130.075 136.27 130.383C136.885 130.498 137.461 130.613 138.038 130.767C137.5 127.73 137.116 124.692 136.847 121.656C135.885 110.583 136.693 99.3558 139.154 88.4758C136.385 87.976 133.54 87.8222 130.695 88.0144C129.964 88.0529 129.964 86.8995 130.695 86.8611C131.772 86.7841 132.886 86.7457 133.963 86.7841C138.077 86.8995 142.153 87.7454 145.997 89.2064C143.421 84.9003 140.845 80.5942 138.269 76.2882C134.156 69.4063 130.041 62.5243 125.966 55.6808C125.543 54.9888 125.158 54.1813 124.467 53.6815C123.852 53.2586 123.044 53.1816 122.313 53.297C120.622 53.5662 119.084 54.4889 117.584 55.2578C114.356 56.8726 111.164 58.5642 108.011 60.3328C101.706 63.8699 95.5547 67.7146 89.5954 71.8284C83.7516 75.8653 78.0998 80.1714 72.6789 84.7465C74.3705 86.7457 76.0238 88.745 77.7154 90.7442C81.6754 95.4732 85.597 100.125 89.4801 104.815ZM111.664 137.457C112.932 137.072 114.202 136.65 115.431 136.227C115.201 133.189 114.778 130.152 114.125 127.153C112.932 121.733 111.049 116.504 108.511 111.583C105.974 106.7 102.859 102.124 99.1305 98.049C99.0151 97.9337 98.9767 97.7798 98.9767 97.6644C98.5151 98.0491 98.0151 98.4337 97.5536 98.8183C99.3228 101.279 101.091 103.739 102.782 106.238C108.857 115.312 113.856 126.231 111.664 137.457ZM109.741 86.3997C109.665 86.7073 109.357 86.8995 109.05 86.8611C107.319 86.515 105.358 87.5916 104.781 89.2447C104.206 90.8979 105.012 93.0126 106.589 93.8199C108.165 94.6273 110.356 94.0891 111.356 92.6666C111.549 92.3974 111.895 92.359 112.164 92.5127C112.432 92.7049 112.471 93.051 112.317 93.3201C111.895 93.9353 111.356 94.3966 110.703 94.7426C110.933 99.7404 110.972 104.777 110.933 109.775C112.202 111.583 113.971 112.928 115.97 113.851C119.546 115.465 123.736 115.465 127.196 113.582C130.503 111.813 132.963 108.622 133.656 104.892C133.271 103.855 132.848 102.816 132.463 101.779C130.733 97.2414 129.004 92.7434 127.234 88.2066C127.158 88.0144 127.234 87.7453 127.388 87.63C129.581 85.7845 131.81 83.9391 134.002 82.0937C132.656 81.4401 131.349 80.7865 130.041 80.1329C127.12 78.6718 124.236 77.2109 121.314 75.7884C120.66 75.4808 120.006 75.1348 119.315 74.7888C119.431 74.9041 119.546 75.0194 119.661 75.1348C119.853 75.404 119.891 75.7116 119.661 75.9422C119.469 76.1729 119.046 76.1729 118.854 75.9422C118.738 75.7884 118.623 75.6731 118.469 75.5577C118.431 75.5192 118.431 75.5193 118.392 75.4809C118.315 75.4424 118.238 75.3655 118.161 75.327C118.123 75.327 118.084 75.2887 118.046 75.2887H118.007C117.931 75.2502 117.854 75.2501 117.777 75.2117C117.738 75.2117 117.738 75.2117 117.7 75.2117C117.661 75.2117 117.661 75.2117 117.661 75.2117C117.623 75.2117 117.584 75.2117 117.546 75.2117C117.546 75.2117 117.546 75.2117 117.507 75.2117C117.469 75.2117 117.469 75.2117 117.507 75.2117C117.431 75.2117 117.315 75.2501 117.277 75.2501C117.238 75.2501 117.2 75.2887 117.2 75.2887C117.161 75.2887 117.124 75.327 117.124 75.3655L117.085 75.4039L117.047 75.4424C117.047 75.4424 117.047 75.4424 117.047 75.4809C117.047 75.5193 117.008 75.5577 117.008 75.5577C117.008 75.5962 116.97 75.6346 116.97 75.6731C116.97 75.7116 116.97 75.7884 116.97 75.7115C116.97 75.6346 116.97 75.7499 116.97 75.8268C116.97 75.8653 116.97 75.8653 116.97 75.9038C116.97 75.9421 117.047 76.0575 116.97 75.9038C117.085 76.2113 117.047 76.519 116.778 76.7112C116.547 76.8649 116.124 76.788 115.97 76.5189C115.739 76.0191 115.739 75.4808 116.008 75.0194C116.239 74.5581 116.701 74.2506 117.162 74.1352C117.392 74.0967 117.623 74.0583 117.815 74.0967C116.124 73.3663 114.317 72.9049 112.432 73.2124C112.356 73.2124 112.317 73.2124 112.24 73.2124C110.626 74.0967 109.319 74.8657 109.627 77.9415C109.856 80.2098 111.51 82.5935 109.665 85.5154L109.281 85.7076C109.319 85.7076 109.396 85.7077 109.434 85.7462C109.588 85.7845 109.78 86.0537 109.741 86.3997ZM83.3671 144.992C84.3667 146.723 85.5585 148.338 86.9042 149.837C88.2498 151.298 89.7877 152.759 91.7485 153.259C93.9015 153.836 96.1698 153.143 98.169 152.297C99.2074 151.874 100.206 151.375 101.206 150.875C102.13 150.413 103.052 149.913 103.821 149.222C104.935 148.261 105.858 146.991 105.551 145.454C105.281 144.186 104.552 143.032 104.09 141.839C103.552 140.379 103.436 138.88 104.013 137.38C104.398 136.419 104.935 135.535 105.128 134.535C105.281 133.497 105.051 132.459 104.705 131.46C103.975 129.46 102.667 127.768 101.976 125.769C101.36 123.963 101.168 121.925 102.282 120.271C102.706 119.656 103.706 120.233 103.282 120.848C102.744 121.656 102.552 122.578 102.629 123.539C102.975 127.768 107.588 131.152 106.051 135.65C105.705 136.612 105.166 137.495 104.897 138.495C104.858 138.688 104.82 138.88 104.82 139.072C106.32 138.803 107.819 138.495 109.319 138.111C109.78 137.995 110.241 137.88 110.703 137.764C110.587 137.649 110.549 137.457 110.587 137.264C111.203 134.266 111.241 131.19 110.856 128.191C109.511 117.349 103.013 108.161 96.7469 99.5481C92.9019 102.816 89.3647 106.431 86.4428 110.583C81.7523 117.311 78.7919 125.423 79.6762 133.689C80.0606 137.611 81.3678 141.533 83.3671 144.992ZM108.011 153.836C108.088 153.951 108.05 153.72 107.934 153.874L107.896 153.913C107.819 154.066 107.896 154.259 108.011 154.412C109.204 154.45 110.395 154.488 111.587 154.527C111.433 154.412 111.318 154.22 111.28 154.028C110.972 151.337 108.665 148.953 106.012 148.568C104.858 150.298 102.975 151.337 101.13 152.22C99.0921 153.22 96.9776 154.259 94.7089 154.565C93.9784 154.681 93.2479 154.681 92.5174 154.565C93.863 156.104 95.4009 157.488 97.1315 158.603C97.9767 159.141 98.8997 159.794 99.8988 159.987C100.36 160.102 100.783 160.063 101.091 159.717C101.399 159.41 101.63 159.026 102.014 158.795C103.013 158.218 103.975 158.988 104.82 159.487C105.589 159.948 106.551 160.102 107.434 159.794C108.242 159.525 108.819 158.795 108.896 157.949C108.934 157.526 108.896 157.064 108.665 156.681C108.434 156.258 108.011 155.988 107.665 155.719C106.974 155.142 106.32 154.028 107.012 153.182C107.511 152.566 108.588 152.528 109.011 153.259C109.396 153.874 108.396 154.45 108.011 153.836ZM115.239 168.407C117.507 168.138 119.776 168.176 122.045 168.33C122.39 167.599 122.929 166.984 123.582 166.6C122.852 166.6 122.89 165.485 123.621 165.446C124.198 165.408 124.812 165.446 125.389 165.562C125.351 164.562 125.274 163.524 125.235 162.524C123.967 162.678 122.659 162.409 121.622 161.679C119.814 160.448 118.892 158.103 119.315 155.988C115.97 155.873 112.625 155.758 109.281 155.681C109.357 155.758 109.396 155.796 109.473 155.873C110.049 156.642 110.203 157.641 109.972 158.564C109.511 160.448 107.627 161.41 105.781 161.14C105.281 161.063 104.82 160.91 104.398 160.679C103.975 160.448 103.59 160.063 103.129 159.91C102.629 159.717 102.398 160.063 102.091 160.41C101.783 160.756 101.437 161.025 100.976 161.179C100.053 161.448 99.0536 161.063 98.2074 160.64C97.2459 160.14 96.3621 159.563 95.4778 158.949C93.7477 157.68 92.2098 156.181 90.8642 154.488C90.7872 154.413 90.7489 154.336 90.7489 154.259C89.9799 153.989 89.2879 153.605 88.5958 153.105C86.9042 151.874 85.5201 150.26 84.2897 148.607C83.0595 146.953 81.983 145.146 81.0987 143.263C80.9065 142.878 80.7527 142.455 80.5604 142.032C76.6773 142.224 72.9096 143.839 69.9492 146.415C66.489 149.376 64.2206 153.413 63.2978 157.872C62.2982 162.716 62.9134 167.791 64.5281 172.443C67.7576 181.787 75.101 189.014 82.7903 194.935C88.6727 191.321 95.2087 188.784 101.976 187.399C101.822 186.054 101.553 184.708 101.322 183.363C101.206 182.978 101.13 182.632 101.014 182.247L95.5931 169.79C94.632 168.022 93.6323 166.254 92.6712 164.485C92.3251 163.832 93.2864 163.255 93.6708 163.909C94.5167 165.446 95.4009 166.984 96.2083 168.522C98.0151 171.867 99.7065 175.25 101.053 178.826C101.283 177.134 101.976 175.596 103.167 174.213C106.243 170.637 110.78 168.907 115.239 168.407ZM125.928 177.518C125.812 176.827 125.697 176.135 125.62 175.442C125.081 175.365 124.544 175.135 124.044 174.788C122.352 173.597 121.468 171.444 121.737 169.406C119.93 169.29 118.161 169.253 116.355 169.406C113.163 169.675 109.856 170.521 107.128 172.289C111.587 175.327 116.855 177.172 122.198 177.518C123.429 177.595 124.697 177.595 125.928 177.518ZM118.007 202.97C118.007 202.509 118.007 202.047 118.007 201.587C118.007 200.856 118.007 200.163 118.046 199.471C114.816 199.51 111.587 200.01 108.434 200.894C108.357 200.933 108.242 200.933 108.165 200.894C108.127 202.047 108.088 203.201 108.011 204.355C111.318 203.624 114.663 203.201 118.007 202.97ZM127.311 178.98C127.388 179.479 127.465 180.017 127.542 180.517C127.581 180.825 127.465 181.133 127.158 181.21C126.889 181.287 126.505 181.133 126.466 180.825C126.351 180.133 126.235 179.403 126.12 178.711C123.006 178.941 119.737 186.631 119.238 198.28C121.583 198.318 123.967 198.588 126.274 199.049C127.005 199.203 126.697 200.317 125.966 200.163C123.736 199.702 121.468 199.471 119.2 199.433C119.161 200.125 119.161 200.856 119.161 201.548C119.161 202.009 119.161 202.432 119.161 202.855C120.545 202.778 121.93 202.739 123.313 202.739C124.044 202.739 124.044 203.893 123.313 203.893C121.93 203.893 120.545 203.932 119.161 204.009C119.584 216.312 123.006 224.385 126.235 224.385C129.695 224.385 133.348 215.196 133.348 201.51C133.386 189.284 130.426 180.594 127.311 178.98ZM128.234 168.214C127.773 167.714 127.196 167.33 126.581 167.061C126.581 167.099 126.543 167.176 126.505 167.214C126.389 167.368 126.235 167.445 126.005 167.407C125.928 167.407 125.812 167.368 125.735 167.33C124.966 167.138 124.159 167.407 123.582 167.945C122.929 168.599 122.736 169.598 122.813 170.521C122.929 172.02 123.89 173.674 125.351 174.213C125.505 174.251 125.658 174.289 125.812 174.327C125.851 174.289 125.889 174.289 125.928 174.251C126.081 174.213 126.274 174.251 126.428 174.327C127.542 174.251 128.581 173.482 129.081 172.443C129.772 171.098 129.273 169.291 128.234 168.214ZM147.611 159.141C147.151 159.333 146.651 159.487 146.151 159.487C144.766 159.525 143.498 158.795 142.536 157.834C141.922 158.911 140.653 159.64 139.384 159.448C138.538 159.334 137.769 158.795 137.269 158.103C136.693 158.795 135.808 159.257 134.885 159.257C133.309 159.218 132.041 157.988 131.464 156.565C131.349 156.258 131.272 155.988 131.195 155.681C130.349 155.796 129.465 155.912 128.619 156.104C128.657 156.949 128.657 157.757 128.696 158.603C128.696 159.064 128.734 159.525 128.734 159.987C128.734 160.448 128.734 160.717 128.388 161.063C127.811 161.602 127.081 161.986 126.312 162.255C126.389 163.447 126.428 164.638 126.505 165.831C127.85 166.292 129.042 167.138 129.772 168.407C129.926 168.638 130.041 168.868 130.118 169.138C130.772 169.214 131.426 169.253 132.08 169.329C135.77 169.598 139.577 169.444 142.959 168.022C144.306 165.446 145.651 162.87 147.035 160.256C147.227 159.91 147.419 159.525 147.611 159.141ZM150.533 153.797C150.303 153.028 149.573 152.413 148.765 152.374C148.304 152.336 147.919 151.721 148.342 151.375C149.803 150.221 151.418 148.991 152.11 147.222C152.302 146.646 152.417 146.108 152.417 145.531C151.803 145.838 151.187 146.108 150.533 146.3C148.342 147.03 145.843 147.184 143.652 146.377C141.653 145.646 139.883 144.224 138.846 142.378C137.769 140.494 137.577 138.264 138.384 136.265C138.884 134.958 139.73 133.843 140.653 132.805C138.731 132.266 136.847 131.537 134.885 131.421C131.156 131.19 127.504 132.459 124.121 133.882C120.66 135.304 117.277 136.881 113.74 138.034C110.856 138.957 107.896 139.687 104.897 140.225C104.935 140.379 104.935 140.494 104.974 140.648C105.32 141.993 106.089 143.186 106.551 144.531C106.897 145.531 106.935 146.569 106.628 147.53C109.741 148.222 112.164 150.875 112.548 154.028C112.586 154.259 112.394 154.45 112.202 154.527C114.855 154.604 117.507 154.681 120.122 154.796C120.468 154.796 120.814 155.142 120.66 155.527C120.006 157.372 120.66 159.64 122.352 160.717C123.198 161.256 124.236 161.448 125.235 161.333C125.197 160.679 126.043 160.602 126.312 161.063C126.812 160.871 127.273 160.602 127.696 160.217C127.657 158.68 127.619 157.141 127.542 155.604C127.542 155.373 127.734 155.104 127.965 155.065C129.042 154.873 130.118 154.681 131.195 154.565C131.195 153.336 131.503 152.066 131.887 150.913C133.002 147.338 134.885 144.032 137.307 141.148C137.769 140.571 138.615 141.417 138.115 141.955C137.001 143.301 136.001 144.723 135.155 146.262C134.425 147.607 133.771 148.991 133.271 150.413C132.732 151.913 132.194 153.566 132.386 155.181C132.54 156.412 133.309 157.757 134.579 158.064C135.462 158.295 136.578 157.68 136.77 156.758C136.731 156.527 136.731 156.296 136.731 156.027C136.808 155.412 137.731 155.181 137.846 155.873C137.884 156.142 137.923 156.373 137.884 156.642C138.038 157.449 138.654 158.218 139.538 158.334C140.614 158.488 141.614 157.641 141.806 156.604C141.883 156.219 142.498 156.027 142.767 156.335C143.536 157.295 144.613 158.257 145.92 158.334C146.997 158.411 148.15 157.757 148.381 156.642C148.419 156.373 148.688 156.258 148.919 156.219C148.996 156.219 149.111 156.181 149.188 156.142C149.573 155.373 149.995 154.527 150.533 153.797ZM201.591 118.618C202.014 115.196 201.63 111.583 199.937 108.507C198.438 105.777 195.978 103.778 193.132 102.663C186.905 100.202 180.176 101.816 174.563 105.123C171.987 106.662 169.527 108.468 167.22 110.467C168.527 114.313 168.988 118.349 168.219 122.386C167.719 124.962 166.681 127.384 165.451 129.69C164.221 132.036 162.798 134.304 161.337 136.535C159.261 139.763 156.762 142.916 153.494 144.915C153.648 145.954 153.456 147.03 152.994 148.03C152.34 149.452 151.187 150.567 149.956 151.529C150.572 151.836 151.072 152.297 151.38 152.874C151.88 152.489 152.494 152.22 153.148 152.143C154.302 151.989 155.455 152.297 156.57 152.528C161.376 153.605 165.989 155.296 170.333 157.603C170.372 157.603 170.372 157.641 170.41 157.641C173.294 157.988 176.178 157.872 178.984 156.834C182.367 155.565 184.598 152.836 186.481 149.875C188.596 146.569 190.556 143.186 192.479 139.763C194.402 136.342 196.285 132.92 197.977 129.384C199.669 126.038 201.13 122.424 201.591 118.618ZM106.243 89.091C105.974 89.2447 105.897 89.6292 106.051 89.8984C106.205 90.1675 106.551 90.2444 106.858 90.0906C108.011 89.514 109.473 89.5139 110.626 90.0521C110.895 90.1675 111.241 90.1291 111.433 89.8599C111.587 89.5908 111.51 89.2063 111.241 89.0525C109.627 88.322 107.819 88.322 106.243 89.091ZM111.818 81.0941C114.701 79.9791 117.507 78.7489 120.314 77.4032C120.968 77.0956 121.583 78.0952 120.891 78.4028C120.506 78.595 120.16 78.7488 119.776 78.9026C119.814 78.9411 119.891 78.9795 119.93 79.018C120.045 79.1333 120.083 79.2486 120.16 79.364C120.237 79.5562 120.237 79.7484 120.199 79.9406C120.16 80.1329 120.045 80.3251 119.891 80.4405C119.737 80.5942 119.546 80.7096 119.354 80.7481C119.161 80.7865 118.931 80.8249 118.738 80.7481C118.507 80.6712 118.315 80.5174 118.161 80.2867C118.046 80.0944 118.007 79.8638 118.046 79.633C117.008 80.0944 116.008 80.5558 114.97 80.9787C115.008 81.0171 115.047 81.0941 115.085 81.1325C115.124 81.2094 115.162 81.3247 115.201 81.4016C115.239 81.4785 115.239 81.5939 115.239 81.7092C115.239 81.9015 115.201 82.0937 115.085 82.2859C115.047 82.3243 115.047 82.3628 115.008 82.4013C114.97 82.4397 114.97 82.4781 114.931 82.5166C114.855 82.5935 114.778 82.6319 114.701 82.6704C114.625 82.7089 114.586 82.7472 114.509 82.7472C114.432 82.7472 114.356 82.7858 114.279 82.7858C114.24 82.7858 114.163 82.7858 114.125 82.7858C114.009 82.7858 113.932 82.7472 113.817 82.7088C113.74 82.6703 113.625 82.6319 113.548 82.5935C113.509 82.5551 113.432 82.5166 113.394 82.4782C113.356 82.4397 113.317 82.3628 113.279 82.3243C113.202 82.2474 113.202 82.1321 113.163 82.0552V82.0168C113.163 82.0168 113.163 82.0167 113.163 81.9783C113.163 81.9015 113.125 81.8245 113.125 81.7476C112.817 81.863 112.471 82.0167 112.164 82.132C111.433 82.4781 111.126 81.3632 111.818 81.0941ZM114.24 81.7476C114.24 81.7476 114.24 81.7861 114.279 81.7861C114.24 81.7476 114.24 81.7476 114.24 81.7476ZM111.241 79.5946C112.126 79.2487 113.009 78.941 113.894 78.595C114.163 78.4796 114.394 78.2105 114.279 77.9029C114.202 77.6338 113.856 77.4031 113.586 77.5185C112.702 77.8645 111.818 78.1721 110.933 78.5181C110.664 78.6335 110.433 78.9026 110.549 79.2102C110.587 79.4793 110.933 79.71 111.241 79.5946ZM117.392 75.2501C117.392 75.2117 117.392 75.2117 117.392 75.2501V75.2501ZM119.084 95.281C118.969 95.281 118.854 95.281 118.738 95.281C118.738 95.281 118.661 95.281 118.623 95.281C118.584 95.281 118.546 95.2809 118.507 95.2424C118.277 95.204 118.046 95.1271 117.854 95.0502C117.546 94.9349 117.047 94.6658 116.816 94.4736C116.624 94.3197 116.47 94.166 116.316 94.0122C116.239 93.9353 116.162 93.8584 116.085 93.7431C116.008 93.6662 116.085 93.743 116.047 93.6661C116.008 93.6276 115.97 93.5508 115.931 93.5123C115.662 93.0894 115.508 92.7818 115.393 92.3205C115.316 92.0129 114.97 91.8207 114.701 91.936C114.394 92.0129 114.24 92.359 114.317 92.6281C114.855 94.7811 116.931 96.3959 119.123 96.3959C119.814 96.4343 119.814 95.281 119.084 95.281Z" fill="#24668A"/>
<path d="M140.538 177.364C140.039 173.174 142.077 168.753 145.575 166.408C149.074 164.061 153.956 163.832 157.648 165.869C161.338 167.907 163.76 172.136 163.645 176.365" fill="#50CD89"/>
<path d="M86.3675 208.776C85.0603 205.123 86.7903 200.664 89.6739 198.588C92.519 196.512 96.1714 196.358 99.4777 197.126C101.977 197.665 104.476 198.78 106.168 200.971C107.859 203.201 108.436 206.738 106.975 209.161L106.782 208.93C100.247 208.238 93.6724 207.968 87.1364 208.161" fill="#50CD89"/>
</g>
</g>
<defs>
<clipPath id="clip0_1_152">
<rect width="250" height="250" fill="white" transform="translate(0.340088 0.5)"/>
</clipPath>
<clipPath id="clip1_1_152">
<rect width="250" height="250" fill="white" transform="translate(0.340088 0.5)"/>
</clipPath>
</defs>
</svg>
