<svg width="5" height="9" viewBox="0 0 5 9" fill="none" xmlns="http://www.w3.org/2000/svg">
<path d="M1.24679 8.58594C0.998035 8.58594 0.779129 8.50136 0.590075 8.33221C0.40102 8.14315 0.304005 7.91927 0.29903 7.66056C0.294055 7.40186 0.381119 7.17798 0.560224 6.98892L2.67963 4.76504L0.560224 2.54116C0.381119 2.35211 0.294055 2.12823 0.29903 1.86952C0.304005 1.61081 0.40102 1.38942 0.590075 1.20534C0.779129 1.02126 1.0055 0.934196 1.26918 0.944147C1.53286 0.954097 1.75425 1.0536 1.93336 1.24265L4.67963 4.10833C4.84878 4.28743 4.93336 4.50385 4.93336 4.75758C4.93336 5.01131 4.84878 5.22773 4.67963 5.40683L1.93336 8.28743C1.7443 8.48644 1.51545 8.58594 1.24679 8.58594Z" fill="#B5B5C3"/>
</svg>
