<svg width="6" height="9" viewBox="0 0 6 9" fill="none" xmlns="http://www.w3.org/2000/svg">
<path d="M2.95598 4.76504L5.28434 7.0934C5.42364 7.24265 5.4933 7.41678 5.4933 7.61579C5.4933 7.81479 5.42364 7.98395 5.28434 8.12325L5.03061 8.37698C4.8913 8.51629 4.72215 8.58594 4.52315 8.58594C4.32414 8.58594 4.15499 8.51629 4.01568 8.37698L0.955982 5.31728C0.806728 5.16803 0.737076 4.98395 0.747027 4.76504C0.737076 4.54614 0.806728 4.36206 0.955982 4.2128L4.01568 1.1531C4.15499 1.0138 4.32414 0.944147 4.52315 0.944147C4.72215 0.944147 4.8913 1.0138 5.03061 1.1531L5.28434 1.40683C5.42364 1.54614 5.4933 1.71529 5.4933 1.9143C5.4933 2.1133 5.42364 2.28743 5.28434 2.43668L2.95598 4.76504Z" fill="#B5B5C3"/>
</svg>
