<svg width="37" height="37" viewBox="0 0 37 37" fill="none" xmlns="http://www.w3.org/2000/svg">
<path d="M0.43042 0.485352V6.5529C3.83408 6.97809 6.63972 8.45461 9.3164 10.1449L7.43115 11.6731L15.1842 15.6268L13.0559 7.11231L11.0827 8.71192C9.5421 5.66428 7.8242 2.79107 5.54117 0.485352H0.43042ZM21.5587 0.485352C20.3686 2.67644 19.3339 4.91292 18.3762 7.20036L16.0766 6.7124L18.0525 15.2627L23.1606 8.2168L20.9065 7.73844C23.4422 5.09169 26.0555 2.57452 29.1378 0.485352H21.5587ZM36.6026 7.63363C33.709 7.82268 31.1152 9.13246 28.6023 10.7495L27.6524 8.27164L21.5539 14.5819L30.2447 15.0342L29.2354 12.4015C31.6912 12.3303 34.1468 12.5406 36.6026 14.0296V7.63363ZM21.823 17.3859C21.4208 17.3951 21.0453 17.5699 20.5328 18.1168L20.0329 18.6475L19.5139 18.1357C18.9512 17.5811 18.5072 17.428 18.0571 17.4478C17.6071 17.4676 17.0779 17.7043 16.4861 18.1834L16.0124 18.5665L15.5626 18.1572C14.8846 17.5438 14.3069 17.3621 13.7535 17.3906C13.3507 17.4115 12.9327 17.5632 12.5157 17.8286L15.6363 23.4416C16.8135 24.1616 19.2189 24.4323 20.8731 23.5987L23.8891 18.012C23.317 17.7787 22.8029 17.5396 22.3585 17.4478C22.1976 17.4146 22.0483 17.3903 21.9037 17.3859C21.8768 17.3852 21.8499 17.3852 21.823 17.3859ZM14.9698 24.7129C13.596 25.6835 12.493 27.3574 12.0658 29.8092C11.6518 32.1854 12.304 33.7903 13.4583 34.884C14.6127 35.9779 16.3454 36.5398 18.1048 36.5169C19.8644 36.4941 21.6191 35.8839 22.7989 34.7699C23.9788 33.6557 24.6461 32.0714 24.2676 29.8044C23.8764 27.4615 22.8661 25.8322 21.5872 24.846C19.4176 25.9929 16.705 25.7491 14.9698 24.7127V24.7129Z" fill="white"/>
</svg>
