<svg width="36" height="35" viewBox="0 0 36 35" fill="none" xmlns="http://www.w3.org/2000/svg">
<g clip-path="url(#clip0_1_738)">
<g clip-path="url(#clip1_1_738)">
<path d="M17.75 1.16211C26.7734 1.16211 34.0742 8.46289 34.0742 17.4727C34.0742 26.4824 26.7734 33.7969 17.75 33.7969C8.72656 33.7969 1.42578 26.4961 1.42578 17.4863C1.42578 8.47656 8.72656 1.16211 17.75 1.16211Z" fill="#E74D89"/>
<path d="M17.75 34.959C8.09766 34.959 0.25 27.125 0.25 17.4863C0.25 7.83398 8.09766 0 17.75 0C27.4023 0 35.25 7.83398 35.25 17.4727C35.25 27.1113 27.4023 34.959 17.75 34.959ZM32.502 19.8652C31.9961 19.7012 27.8809 18.4844 23.1914 19.2227C25.1465 24.582 25.9395 28.957 26.0898 29.8594C29.4531 27.6035 31.8457 24.0215 32.502 19.8652ZM23.5879 31.2402C23.3691 29.9277 22.4941 25.3613 20.4023 19.9199C20.375 19.9336 20.334 19.9473 20.3066 19.9473C11.8711 22.8867 8.84961 28.7246 8.57617 29.2715C11.1055 31.2402 14.291 32.416 17.75 32.416C19.8145 32.4297 21.7969 32.0059 23.5879 31.2402ZM6.64844 27.4805C6.99023 26.9062 11.0918 20.125 18.8027 17.623C18.9941 17.5547 19.1992 17.5 19.3906 17.4453C19.0215 16.5977 18.6113 15.75 18.1738 14.916C10.709 17.1445 3.46289 17.0488 2.80664 17.0352C2.80664 17.1855 2.79297 17.3359 2.79297 17.4863C2.80664 21.3281 4.25586 24.8281 6.64844 27.4805ZM3.12109 14.4375C3.79102 14.4512 9.94336 14.4785 16.9434 12.6191C14.4688 8.2168 11.7891 4.52539 11.4062 3.99219C7.20898 5.96094 4.0918 9.81641 3.12109 14.4375ZM14.25 2.98047C14.6602 3.52734 17.3809 7.21875 19.8281 11.7168C25.1465 9.7207 27.3887 6.71289 27.6621 6.33008C25.0234 3.99219 21.5508 2.57031 17.75 2.57031C16.5469 2.57031 15.3711 2.7207 14.25 2.98047ZM29.3164 8.05273C29.002 8.47656 26.5 11.6895 20.9766 13.9453C21.3184 14.6562 21.6602 15.3809 21.9746 16.1055C22.084 16.3652 22.1934 16.625 22.3027 16.8711C27.2793 16.2422 32.2148 17.2539 32.707 17.3496C32.666 13.8359 31.4082 10.5957 29.3164 8.05273Z" fill="#B2215A"/>
</g>
</g>
<defs>
<clipPath id="clip0_1_738">
<rect width="35" height="35" fill="white" transform="translate(0.25)"/>
</clipPath>
<clipPath id="clip1_1_738">
<rect width="35" height="35" fill="white" transform="translate(0.25)"/>
</clipPath>
</defs>
</svg>
