<svg width="17" height="16" viewBox="0 0 17 16" fill="none" xmlns="http://www.w3.org/2000/svg">
<path d="M15.8681 14.2288C16.0074 14.3681 16.077 14.5372 16.077 14.7362C16.077 14.9352 16.0024 15.1044 15.8532 15.2437C15.7039 15.383 15.5248 15.4526 15.3158 15.4526C15.1069 15.4526 14.9328 15.383 14.7935 15.2437L11.3308 11.9302C10.1566 12.8656 8.80341 13.3332 7.27107 13.3332C5.48002 13.3332 3.95266 12.7213 2.68898 11.4974C1.4253 10.2735 0.793457 8.80587 0.793457 7.09443C0.793457 5.38299 1.4253 3.9203 2.68898 2.70637C3.95266 1.49244 5.48002 0.885473 7.27107 0.885473C9.06211 0.885473 10.5895 1.49244 11.8532 2.70637C13.1168 3.9203 13.7487 5.38299 13.7487 7.09443C13.7487 8.50736 13.3009 9.78099 12.4054 10.9153L15.8681 14.2288ZM3.74868 3.72129C3.74868 3.72129 3.5049 3.95512 3.01734 4.42279C2.52978 4.89045 2.28599 5.781 2.28599 7.09443C2.28599 8.40786 2.77356 9.53224 3.74868 10.4676C4.72381 11.4029 5.89793 11.8705 7.27107 11.8705C8.6442 11.8705 9.81833 11.4029 10.7935 10.4676C11.7686 9.53224 12.2561 8.40786 12.2561 7.09443C12.2561 6.45761 12.1218 5.8407 11.8532 5.24368C11.5845 4.64667 11.2313 4.13423 10.7935 3.70637C10.3556 3.27851 9.82828 2.9402 9.21137 2.69144C8.59445 2.44269 7.94769 2.31831 7.27107 2.31831C5.89793 2.31831 4.72381 2.78597 3.74868 3.72129Z" fill="#B5B5C3"/>
</svg>
