<svg width="33" height="33" viewBox="0 0 33 33" fill="none" xmlns="http://www.w3.org/2000/svg">
<rect width="32.53" height="32.53" rx="5.46" fill="#15171C"/>
<rect width="32.53" height="32.53" rx="5.46" />
<g clip-path="url(#clip0_1_87)">
<path d="M21.849 18.6941V18.7256C21.7649 18.9149 21.7964 19.0832 21.9436 19.2304L21.9752 19.262C22.3748 19.6406 22.5746 20.1085 22.5746 20.6659C22.5746 21.2232 22.38 21.6965 21.9909 22.0856C21.6019 22.4747 21.1286 22.6692 20.5713 22.6692C20.0139 22.6692 19.5459 22.4799 19.1674 22.1013L19.1043 22.0382C18.957 21.912 18.7888 21.8858 18.5995 21.9594C18.4102 22.033 18.3155 22.175 18.3155 22.3853V22.5115C18.3155 23.0583 18.121 23.5263 17.7319 23.9154C17.3428 24.3045 16.8696 24.499 16.3122 24.499C15.7549 24.499 15.2816 24.3045 14.8925 23.9154C14.5034 23.5263 14.3089 23.0583 14.3089 22.5115V22.4484C14.3089 22.238 14.2142 22.1013 14.025 22.0382C14.0039 22.0172 13.9829 22.0067 13.9619 22.0067C13.7726 21.9226 13.6043 21.9541 13.4571 22.1013L13.4255 22.1329C13.0469 22.5325 12.579 22.7323 12.0216 22.7323C11.4643 22.7323 10.9963 22.5325 10.6177 22.1329H10.5862C10.2076 21.7543 10.0183 21.2863 10.0183 20.729C10.0183 20.1716 10.2076 19.7037 10.5862 19.3251V19.2935L10.6493 19.262C10.7755 19.1147 10.8017 18.9465 10.7281 18.7572C10.6545 18.5679 10.5125 18.4733 10.3022 18.4733H10.176C9.62919 18.4733 9.16122 18.2787 8.77212 17.8896C8.38303 17.5005 8.18848 17.0273 8.18848 16.4699C8.18848 15.9126 8.38303 15.4393 8.77212 15.0502C9.16122 14.6611 9.62919 14.4666 10.176 14.4666H10.2391C10.4495 14.4666 10.5862 14.372 10.6493 14.1827C10.6703 14.1616 10.6808 14.1406 10.6808 14.1196C10.7649 13.9303 10.7334 13.762 10.5862 13.6148L10.5546 13.5832C10.155 13.2047 9.95519 12.7367 9.95519 12.1793C9.95519 11.622 10.1497 11.1487 10.5388 10.7596C10.9279 10.3706 11.4012 10.176 11.9585 10.176C12.5159 10.176 12.9838 10.3653 13.3624 10.7439L13.4255 10.807C13.5728 10.9332 13.741 10.9542 13.9303 10.8701C13.9724 10.8701 14.0144 10.8596 14.0565 10.8385C14.1827 10.7544 14.2563 10.6282 14.2773 10.4599V10.3337C14.2773 9.7869 14.4719 9.31893 14.861 8.92984C15.2501 8.54074 15.7181 8.34619 16.2649 8.34619C16.8117 8.34619 17.2797 8.54074 17.6688 8.92984C18.0579 9.31893 18.2524 9.7869 18.2524 10.3337V10.3968C18.2735 10.6072 18.3681 10.7544 18.5364 10.8385C18.5364 10.8385 18.5469 10.8385 18.5679 10.8385C18.7572 10.9226 18.9255 10.8911 19.0727 10.7439L19.1043 10.7123C19.4828 10.3127 19.9508 10.1129 20.5082 10.1129C21.0655 10.1129 21.5388 10.3075 21.9279 10.6966C22.3169 11.0856 22.5115 11.5589 22.5115 12.1162C22.5115 12.6736 22.3222 13.1416 21.9436 13.5201C21.9436 13.5412 21.9436 13.5517 21.9436 13.5517L21.8805 13.5832C21.7543 13.7305 21.7333 13.8987 21.8174 14.088C21.8174 14.1301 21.8279 14.1721 21.849 14.2142C21.9331 14.3614 22.0593 14.4351 22.2276 14.4351H22.3538C22.9006 14.4351 23.3686 14.6296 23.7577 15.0187C24.1468 15.4078 24.3413 15.8758 24.3413 16.4226C24.3413 16.9694 24.1468 17.4374 23.7577 17.8265C23.3686 18.2156 22.9006 18.4102 22.3538 18.4102H22.2907C22.0803 18.4312 21.9331 18.5258 21.849 18.6941ZM21.0287 20.1453C20.4608 19.5775 20.3347 18.9255 20.6501 18.1893C20.7974 17.8738 21.0182 17.6162 21.3127 17.4164C21.6071 17.2166 21.9331 17.1167 22.2907 17.1167H22.3538C22.543 17.1167 22.706 17.0483 22.8428 16.9116C22.9795 16.7749 23.0478 16.6119 23.0478 16.4226C23.0478 16.3385 23.0268 16.2491 22.9847 16.1544C22.9427 16.0598 22.8901 15.9809 22.827 15.9178C22.7639 15.8547 22.6903 15.8074 22.6061 15.7759C22.522 15.7443 22.4379 15.7285 22.3538 15.7285H22.2276C22.0593 15.7285 21.891 15.7022 21.7228 15.6497C21.5545 15.5971 21.3968 15.5235 21.2496 15.4288C21.1023 15.3342 20.9761 15.2238 20.871 15.0976C20.7658 14.9714 20.6817 14.8241 20.6186 14.6559C20.5765 14.5928 20.5555 14.5297 20.5555 14.4666C20.3031 13.7936 20.4398 13.1941 20.9656 12.6683L20.9972 12.6052C21.1444 12.479 21.218 12.316 21.218 12.1162C21.218 11.9164 21.1497 11.7482 21.0129 11.6115C20.8762 11.4747 20.708 11.4064 20.5082 11.4064C20.3084 11.4064 20.1454 11.48 20.0192 11.6272L19.9876 11.6588C19.4197 12.2267 18.7677 12.3528 18.0316 12.0374C17.7161 11.8901 17.4585 11.6693 17.2587 11.3748C17.0589 11.0804 16.959 10.7544 16.959 10.3968V10.3337C16.959 10.1445 16.8906 9.98145 16.7539 9.84474C16.6172 9.70803 16.4542 9.63968 16.2649 9.63968C16.0756 9.63968 15.9126 9.70803 15.7759 9.84474C15.6392 9.98145 15.5708 10.1445 15.5708 10.3337V10.4599C15.5708 10.8175 15.4709 11.1435 15.2711 11.4379C15.0713 11.7324 14.8137 11.9427 14.4982 12.0689C14.4351 12.111 14.372 12.132 14.3089 12.132C13.6359 12.3844 13.0364 12.2477 12.5106 11.7219L12.4475 11.6903C12.3213 11.5431 12.1583 11.4695 11.9585 11.4695C11.7587 11.4695 11.5905 11.5378 11.4537 11.6746C11.317 11.8113 11.2487 11.9795 11.2487 12.1793C11.2487 12.3791 11.3223 12.5421 11.4695 12.6683L11.5011 12.6999C12.0689 13.2678 12.1951 13.9198 11.8797 14.6559C11.7535 14.9924 11.5431 15.2606 11.2487 15.4604C10.9542 15.6602 10.6282 15.7706 10.2707 15.7916H10.2391H10.176C10.0919 15.7916 10.0078 15.8074 9.92364 15.839C9.83952 15.8705 9.7659 15.9178 9.7028 15.9809C9.63971 16.044 9.58713 16.1176 9.54506 16.2018C9.503 16.2859 9.48197 16.3805 9.48197 16.4857C9.48197 16.6119 9.51351 16.7276 9.57661 16.8327C9.63971 16.9379 9.72384 17.022 9.829 17.0851C9.93416 17.1482 10.0498 17.1798 10.176 17.1798H10.3022C10.6598 17.1798 10.9858 17.2744 11.2802 17.4637C11.5747 17.653 11.785 17.9159 11.9112 18.2524C12.2477 18.9675 12.132 19.609 11.5642 20.1769L11.5326 20.24C11.3854 20.3662 11.3118 20.5292 11.3118 20.729C11.3118 20.9288 11.3801 21.097 11.5168 21.2338C11.6536 21.3705 11.8218 21.4336 12.0216 21.423C12.2214 21.4125 12.3844 21.3442 12.5106 21.218L12.5422 21.1864C13.11 20.6186 13.762 20.4924 14.4982 20.8078C14.8347 20.934 15.1029 21.1444 15.3027 21.4388C15.5025 21.7333 15.6129 22.0593 15.6339 22.4168C15.6339 22.4168 15.6339 22.4273 15.6339 22.4484V22.5115C15.6339 22.7008 15.7023 22.8638 15.839 23.0005C15.9757 23.1372 16.1387 23.2055 16.328 23.2055C16.5173 23.2055 16.6803 23.1372 16.817 23.0005C16.9537 22.8638 17.0221 22.7008 17.0221 22.5115V22.3853C17.0221 22.0277 17.1167 21.7017 17.306 21.4073C17.4953 21.1128 17.7582 20.9025 18.0947 20.7763C18.8098 20.4398 19.4513 20.5555 20.0192 21.1233L20.0823 21.1549C20.2085 21.3021 20.3715 21.3757 20.5713 21.3757C20.7711 21.3757 20.9341 21.3074 21.0603 21.1707C21.1865 21.0339 21.2496 20.8657 21.2496 20.6659C21.2496 20.4661 21.1865 20.3031 21.0603 20.1769L21.0287 20.1453ZM14.372 14.5297C14.372 14.5297 14.5034 14.3982 14.7663 14.1353C15.0292 13.8724 15.5288 13.741 16.2649 13.741C17.001 13.741 17.632 14.0039 18.1578 14.5297C18.6836 15.0555 18.9465 15.6865 18.9465 16.4226C18.9465 17.1587 18.6836 17.7897 18.1578 18.3155C17.632 18.8413 17.001 19.1042 16.2649 19.1042C15.5288 19.1042 14.8978 18.8413 14.372 18.3155C13.8462 17.7897 13.5833 17.1587 13.5833 16.4226C13.5833 15.6865 13.8462 15.0555 14.372 14.5297ZM15.3027 17.3848C15.3027 17.3848 15.3684 17.4506 15.4998 17.582C15.6313 17.7135 15.8863 17.7792 16.2649 17.7792C16.6435 17.7792 16.9642 17.6477 17.2271 17.3848C17.49 17.1219 17.6215 16.8012 17.6215 16.4226C17.6215 16.044 17.49 15.7233 17.2271 15.4604C16.9642 15.1975 16.6435 15.066 16.2649 15.066C15.8863 15.066 15.5656 15.1975 15.3027 15.4604C15.0398 15.7233 14.9083 16.044 14.9083 16.4226C14.9083 16.8012 15.0398 17.1219 15.3027 17.3848Z" fill="#3699FF"/>
</g>
<defs>
<clipPath id="clip0_1_87">
<rect width="16.89" height="16.91" fill="white" transform="matrix(1 0 0 -1 7.82031 24.7197)"/>
</clipPath>
</defs>
</svg>
