<svg width="60" height="61" viewBox="0 0 60 61" fill="none" xmlns="http://www.w3.org/2000/svg">
<rect y="0.540039" width="30" height="30" rx="15" fill="white" fill-opacity="0.15"/>
<path d="M19.1611 21.9355C18.9111 21.7376 18.4528 21.5814 17.7861 21.4668C17.1195 21.3522 16.3851 21.2845 15.583 21.2637C14.7809 21.2428 13.9945 21.2689 13.2236 21.3418C12.4424 21.4043 11.8174 21.5137 11.3486 21.6699C11.307 21.6908 11.2601 21.7038 11.208 21.709C11.1559 21.7142 11.1038 21.7168 11.0518 21.7168C10.9163 21.7168 10.7861 21.6908 10.6611 21.6387C10.5361 21.5866 10.4268 21.5137 10.333 21.4199L8.48926 19.5762C8.86426 19.2012 9.39551 18.8939 10.083 18.6543C10.7705 18.4043 11.5387 18.2194 12.3877 18.0996C13.2367 17.9798 14.1247 17.9251 15.0518 17.9355C15.9788 17.9355 16.8643 17.998 17.708 18.123C17.833 18.9564 18.0153 19.709 18.2549 20.3809C18.4945 21.0527 18.7965 21.571 19.1611 21.9355ZM19.6768 9.41992C19.583 9.32617 19.471 9.25065 19.3408 9.19336C19.2106 9.13607 19.0726 9.10742 18.9268 9.10742C18.8747 9.10742 18.8226 9.11263 18.7705 9.12305C18.7184 9.13346 18.6663 9.14388 18.6143 9.1543H18.6299C18.1611 9.32096 17.5361 9.44075 16.7549 9.51367C15.9736 9.57617 15.1846 9.5944 14.3877 9.56836C13.5908 9.54232 12.859 9.472 12.1924 9.35742C11.5153 9.24284 11.057 9.08659 10.8174 8.88867C11.2653 9.32617 11.6038 9.89128 11.833 10.584C12.0622 11.2767 12.2288 11.9876 12.333 12.7168C12.7393 12.7793 13.1663 12.8262 13.6143 12.8574C14.0622 12.8887 14.5205 12.9043 14.9893 12.9043C14.9997 12.9043 15.0049 12.9043 15.0049 12.9043C15.682 12.9043 16.3486 12.873 17.0049 12.8105C17.6715 12.7376 18.2939 12.6335 18.8721 12.498C19.4502 12.3626 19.9684 12.1908 20.4268 11.9824C20.8851 11.7741 21.2497 11.5345 21.5205 11.2637L19.6768 9.41992Z" fill="white"/>
<g opacity="0.3">
<path d="M21.3684 19.2424C21.379 19.2847 21.3869 19.3324 21.3922 19.3853C21.3975 19.4382 21.4001 19.491 21.4001 19.5439C21.4001 19.6921 21.3737 19.8296 21.3208 19.9565C21.2679 20.0835 21.1938 20.1946 21.0986 20.2898L19.2261 22.1465C18.8452 21.7762 18.5331 21.2419 18.2898 20.5437C18.0359 19.8455 17.8481 19.0652 17.7264 18.203C17.6048 17.3408 17.5492 16.4389 17.5598 15.4973C17.5598 14.5557 17.6233 13.6565 17.7502 12.7996C18.5966 12.6726 19.361 12.4875 20.0433 12.2441C20.7257 12.0008 21.252 11.694 21.6223 11.3237C21.4213 11.5671 21.2626 12.0273 21.1462 12.7043C21.0404 13.3814 20.9743 14.1273 20.9479 14.9419C20.9214 15.7565 20.9452 16.5605 21.0193 17.354C21.0828 18.1369 21.1991 18.7664 21.3684 19.2424ZM12.4658 15.4656C12.4658 15.0107 12.4447 14.4817 12.4023 13.8787C12.36 13.2756 12.2807 12.6673 12.1643 12.0537C12.0479 11.4401 11.8787 10.8582 11.6565 10.3081C11.4343 9.7474 11.1434 9.28719 10.7837 8.92749L8.91113 10.8C8.81592 10.8953 8.73922 11.009 8.68103 11.1412C8.62284 11.2735 8.59375 11.4137 8.59375 11.5618C8.59375 11.6147 8.59904 11.6702 8.60962 11.7284C8.6202 11.7866 8.63078 11.8421 8.64136 11.895V11.8792C8.78947 12.3764 8.90055 12.908 8.97461 13.474C9.04867 14.04 9.08569 14.6192 9.08569 15.2117C9.08569 15.2646 9.08569 15.3148 9.08569 15.3624C9.08569 15.41 9.08569 15.455 9.08569 15.4973V15.4814C9.08569 16.7721 8.99841 17.7772 8.82385 18.4966C8.64929 19.216 8.50911 19.6444 8.40332 19.782C8.76302 19.4011 9.2867 19.089 9.97437 18.8457C10.662 18.6024 11.4343 18.4172 12.2913 18.2903C12.3442 17.9094 12.3865 17.5074 12.4182 17.0842C12.45 16.6611 12.4658 16.2326 12.4658 15.7988C12.4658 15.7354 12.4658 15.6772 12.4658 15.6243C12.4658 15.5714 12.4658 15.5132 12.4658 15.4497V15.4656Z" fill="white"/>
</g>
</svg>
