<svg width="30" height="30" viewBox="0 0 30 30" fill="none" xmlns="http://www.w3.org/2000/svg">
<path d="M6.03188 13.0538C4.35737 12.8133 2.82568 11.9772 1.71776 10.6988C0.609843 9.42041 -3.23864e-05 7.78543 1.2899e-09 6.09375L1.28991e-09 5.15625C1.28991e-09 3.345 1.47 1.875 3.28125 1.875H5.82375C6.25125 0.778125 7.31625 0 8.565 0H21.435C22.6481 0 23.7356 0.744375 24.1763 1.875H26.7188C28.53 1.875 30 3.345 30 5.15625V6.09375C30 7.78543 29.3902 9.42041 28.2822 10.6988C27.1743 11.9772 25.6426 12.8133 23.9681 13.0538C23.5722 14.3437 22.9033 15.5333 22.0068 16.5418C21.1103 17.5502 20.0072 18.3539 18.7725 18.8981L19.0425 21.6094C19.0519 21.7031 19.0988 21.8344 19.2563 21.9919C19.4175 22.155 19.6631 22.3106 19.9556 22.4175C20.4862 22.6106 21.1144 22.9312 21.6244 23.4825C22.1587 24.0637 22.5 24.8381 22.5 25.7812V27.1875H24.8438C25.2167 27.1875 25.5744 27.3357 25.8381 27.5994C26.1018 27.8631 26.25 28.2208 26.25 28.5938C26.25 28.9667 26.1018 29.3244 25.8381 29.5881C25.5744 29.8518 25.2167 30 24.8438 30H5.15625C4.78329 30 4.4256 29.8518 4.16188 29.5881C3.89816 29.3244 3.75 28.9667 3.75 28.5938C3.75 28.2208 3.89816 27.8631 4.16188 27.5994C4.4256 27.3357 4.78329 27.1875 5.15625 27.1875H7.5V25.7812C7.5 24.8381 7.84125 24.0637 8.3775 23.4825C8.88375 22.9312 9.51375 22.6106 10.0444 22.4175C10.305 22.3275 10.5431 22.1813 10.7438 21.9919C10.9013 21.8325 10.9481 21.705 10.9575 21.6094L11.2275 18.8981C9.99321 18.3536 8.89054 17.5498 7.99438 16.5414C7.09822 15.5329 6.42766 14.3435 6.03188 13.0538ZM8.4375 2.94V10.3125C8.4375 12.053 9.12891 13.7222 10.3596 14.9529C11.5903 16.1836 13.2595 16.875 15 16.875C16.7405 16.875 18.4097 16.1836 19.6404 14.9529C20.8711 13.7222 21.5625 12.053 21.5625 10.3125V2.94C21.5625 2.90618 21.5491 2.87375 21.5252 2.84984C21.5012 2.82593 21.4688 2.8125 21.435 2.8125H8.565C8.53118 2.8125 8.49875 2.82593 8.47484 2.84984C8.45093 2.87375 8.4375 2.90618 8.4375 2.94ZM13.9819 19.6313L13.7569 21.8888C13.5825 23.6231 12.1481 24.645 11.0063 25.0594C10.7959 25.1248 10.6035 25.2377 10.4438 25.3894C10.3744 25.4644 10.3125 25.5637 10.3125 25.7831V27.1894H19.6875V25.7831C19.6875 25.5637 19.6256 25.4644 19.5563 25.3894C19.3965 25.2377 19.2041 25.1248 18.9938 25.0594C17.8519 24.645 16.4175 23.6231 16.245 21.8906L16.02 19.6331C15.3426 19.7063 14.6593 19.7044 13.9819 19.6313ZM24.375 4.6875V10.0725C25.1977 9.78162 25.91 9.24278 26.4137 8.5302C26.9174 7.81762 27.1878 6.96638 27.1875 6.09375V5.15625C27.1875 5.03193 27.1381 4.9127 27.0502 4.82479C26.9623 4.73689 26.8431 4.6875 26.7188 4.6875H24.375ZM5.625 4.6875H3.28125C3.15693 4.6875 3.0377 4.73689 2.94979 4.82479C2.86189 4.9127 2.8125 5.03193 2.8125 5.15625V6.09375C2.8125 7.93125 3.98625 9.49312 5.625 10.0725V4.6875Z" fill="white"/>
</svg>
