<svg width="31" height="31" viewBox="0 0 31 31" fill="none" xmlns="http://www.w3.org/2000/svg">
<rect x="0.800049" y="0.540039" width="30" height="30" rx="15" fill="white" fill-opacity="0.15"/>
<g opacity="0.3">
<path d="M21.967 19.7637L16.467 21.9512C16.3629 21.9928 16.2535 22.0267 16.1389 22.0527C16.0243 22.0788 15.9045 22.0918 15.7795 22.0918C15.6545 22.0918 15.5321 22.0788 15.4124 22.0527C15.2926 22.0267 15.1806 21.9928 15.0764 21.9512H15.092L9.62329 19.7637C9.47746 19.7012 9.35767 19.6048 9.26392 19.4746C9.17017 19.3444 9.12329 19.196 9.12329 19.0293C9.12329 18.8626 9.17017 18.7116 9.26392 18.5762C9.35767 18.4408 9.47746 18.3418 9.62329 18.2793L10.467 17.9355L14.592 19.5918C14.7691 19.6647 14.9566 19.722 15.1545 19.7637C15.3525 19.8053 15.5608 19.8262 15.7795 19.8262C15.9879 19.8262 16.1936 19.8053 16.3967 19.7637C16.5999 19.722 16.7952 19.6647 16.9827 19.5918H16.967L21.1233 17.9355L21.9827 18.2793C22.1285 18.3418 22.2483 18.4382 22.342 18.5684C22.4358 18.6986 22.4827 18.847 22.4827 19.0137C22.4827 19.1908 22.4332 19.3444 22.3342 19.4746C22.2353 19.6048 22.1129 19.7012 21.967 19.7637ZM16.467 18.3574L21.9358 16.1543C22.0816 16.0918 22.2014 15.9954 22.2952 15.8652C22.3889 15.735 22.4358 15.5866 22.4358 15.4199C22.4358 15.2533 22.3915 15.1048 22.303 14.9746C22.2144 14.8444 22.0972 14.748 21.9514 14.6855H21.9358L16.467 12.4824C16.3629 12.4512 16.2561 12.4225 16.1467 12.3965C16.0374 12.3704 15.9202 12.3574 15.7952 12.3574C15.6702 12.3574 15.553 12.3704 15.4436 12.3965C15.3342 12.4225 15.2275 12.4564 15.1233 12.498V12.4824L9.62329 14.6855C9.47746 14.748 9.36027 14.8444 9.27173 14.9746C9.18319 15.1048 9.13892 15.2533 9.13892 15.4199C9.13892 15.5866 9.18319 15.735 9.27173 15.8652C9.36027 15.9954 9.47746 16.0918 9.62329 16.1543L15.1233 18.3574C15.2275 18.3887 15.3342 18.4173 15.4436 18.4434C15.553 18.4694 15.6702 18.4824 15.7952 18.4824C15.9202 18.4824 16.0374 18.4694 16.1467 18.4434C16.2561 18.4173 16.3629 18.3835 16.467 18.3418V18.3574Z" fill="white"/>
</g>
<path d="M15.1128 14.8623L9.52686 12.6406C9.37874 12.5771 9.25708 12.4766 9.16187 12.3391C9.06665 12.2016 9.01904 12.0482 9.01904 11.8789C9.01904 11.7096 9.06665 11.5589 9.16187 11.4266C9.25708 11.2944 9.37874 11.1965 9.52686 11.1331L15.1128 8.91138C15.2186 8.86906 15.327 8.83732 15.4381 8.81616C15.5492 8.795 15.6682 8.78442 15.7952 8.78442C15.9221 8.78442 16.0411 8.795 16.1522 8.81616C16.2633 8.83732 16.3717 8.86906 16.4775 8.91138L22.0317 11.1331C22.1904 11.1965 22.3174 11.2944 22.4126 11.4266C22.5078 11.5589 22.5554 11.7096 22.5554 11.8789C22.5554 12.0482 22.5078 12.2016 22.4126 12.3391C22.3174 12.4766 22.1957 12.5771 22.0476 12.6406H22.0317L16.4775 14.8623C16.3717 14.9046 16.2633 14.9364 16.1522 14.9575C16.0411 14.9787 15.9221 14.9893 15.7952 14.9893C15.6682 14.9893 15.5492 14.9787 15.4381 14.9575C15.327 14.9364 15.2186 14.9046 15.1128 14.8623Z" fill="white"/>
</svg>
